%TF.GenerationSoftware,KiCad,Pcbnew,7.0.10*%
%TF.CreationDate,2024-11-17T23:06:07+00:00*%
%TF.ProjectId,project_x_pcb,70726f6a-6563-4745-9f78-5f7063622e6b,rev?*%
%TF.SameCoordinates,Original*%
%TF.FileFunction,Copper,L1,Top*%
%TF.FilePolarity,Positive*%
%FSLAX46Y46*%
G04 Gerber Fmt 4.6, Leading zero omitted, Abs format (unit mm)*
G04 Created by KiCad (PCBNEW 7.0.10) date 2024-11-17 23:06:07*
%MOMM*%
%LPD*%
G01*
G04 APERTURE LIST*
G04 Aperture macros list*
%AMRoundRect*
0 Rectangle with rounded corners*
0 $1 Rounding radius*
0 $2 $3 $4 $5 $6 $7 $8 $9 X,Y pos of 4 corners*
0 Add a 4 corners polygon primitive as box body*
4,1,4,$2,$3,$4,$5,$6,$7,$8,$9,$2,$3,0*
0 Add four circle primitives for the rounded corners*
1,1,$1+$1,$2,$3*
1,1,$1+$1,$4,$5*
1,1,$1+$1,$6,$7*
1,1,$1+$1,$8,$9*
0 Add four rect primitives between the rounded corners*
20,1,$1+$1,$2,$3,$4,$5,0*
20,1,$1+$1,$4,$5,$6,$7,0*
20,1,$1+$1,$6,$7,$8,$9,0*
20,1,$1+$1,$8,$9,$2,$3,0*%
G04 Aperture macros list end*
%TA.AperFunction,SMDPad,CuDef*%
%ADD10RoundRect,0.250000X0.325000X0.450000X-0.325000X0.450000X-0.325000X-0.450000X0.325000X-0.450000X0*%
%TD*%
%TA.AperFunction,SMDPad,CuDef*%
%ADD11RoundRect,0.250000X-0.350000X-0.450000X0.350000X-0.450000X0.350000X0.450000X-0.350000X0.450000X0*%
%TD*%
%TA.AperFunction,SMDPad,CuDef*%
%ADD12R,2.200000X1.800000*%
%TD*%
%TA.AperFunction,SMDPad,CuDef*%
%ADD13R,1.800000X2.200000*%
%TD*%
%TA.AperFunction,ComponentPad*%
%ADD14R,1.700000X1.700000*%
%TD*%
%TA.AperFunction,ComponentPad*%
%ADD15O,1.700000X1.700000*%
%TD*%
%TA.AperFunction,ViaPad*%
%ADD16C,1.200000*%
%TD*%
%TA.AperFunction,Conductor*%
%ADD17C,0.600000*%
%TD*%
%TA.AperFunction,Conductor*%
%ADD18C,1.500000*%
%TD*%
%TA.AperFunction,Conductor*%
%ADD19C,1.000000*%
%TD*%
G04 APERTURE END LIST*
D10*
%TO.P,D3,1,K*%
%TO.N,GND*%
X102000000Y-73000000D03*
%TO.P,D3,2,A*%
%TO.N,Net-(D3-A)*%
X99950000Y-73000000D03*
%TD*%
D11*
%TO.P,R2,1*%
%TO.N,LED4*%
X95500000Y-70000000D03*
%TO.P,R2,2*%
%TO.N,Net-(D2-A)*%
X97500000Y-70000000D03*
%TD*%
D12*
%TO.P,U2,1,GND*%
%TO.N,GND*%
X110750000Y-67190000D03*
%TO.P,U2,2,SCL*%
%TO.N,SCL*%
X110750000Y-69730000D03*
%TO.P,U2,3,SDA*%
%TO.N,SDA*%
X110750000Y-72270000D03*
%TO.P,U2,4,VIN*%
%TO.N,/3.3V*%
X110750000Y-74810000D03*
%TO.P,U2,5,GND*%
%TO.N,unconnected-(U2-GND-Pad5)*%
X126250000Y-74810000D03*
%TO.P,U2,6,RD*%
%TO.N,unconnected-(U2-RD-Pad6)*%
X126250000Y-72270000D03*
%TO.P,U2,7,IRD*%
%TO.N,unconnected-(U2-IRD-Pad7)*%
X126250000Y-69730000D03*
%TO.P,U2,8,INT*%
%TO.N,unconnected-(U2-INT-Pad8)*%
X126250000Y-67190000D03*
%TD*%
D11*
%TO.P,R3,1*%
%TO.N,LED3*%
X95500000Y-73000000D03*
%TO.P,R3,2*%
%TO.N,Net-(D3-A)*%
X97500000Y-73000000D03*
%TD*%
%TO.P,R5,1*%
%TO.N,LED1*%
X95500000Y-79000000D03*
%TO.P,R5,2*%
%TO.N,Net-(D5-A)*%
X97500000Y-79000000D03*
%TD*%
D13*
%TO.P,U1,1,A5/MISO*%
%TO.N,unconnected-(U1-A5{slash}MISO-Pad1)*%
X67110000Y-80000000D03*
%TO.P,U1,2,MOSI*%
%TO.N,unconnected-(U1-MOSI-Pad2)*%
X69650000Y-80000000D03*
%TO.P,U1,3,SS*%
%TO.N,unconnected-(U1-SS-Pad3)*%
X72190000Y-80000000D03*
%TO.P,U1,4,SDA*%
%TO.N,SDA*%
X74730000Y-80000000D03*
%TO.P,U1,5,SCL*%
%TO.N,SCL*%
X77270000Y-80000000D03*
%TO.P,U1,6,10*%
%TO.N,unconnected-(U1-10-Pad6)*%
X79810000Y-80000000D03*
%TO.P,U1,7,RX*%
%TO.N,unconnected-(U1-RX-Pad7)*%
X82350000Y-80000000D03*
%TO.P,U1,8,TX*%
%TO.N,unconnected-(U1-TX-Pad8)*%
X84890000Y-80000000D03*
%TO.P,U1,9,A0*%
%TO.N,LED1*%
X84890000Y-62000000D03*
%TO.P,U1,10,A1*%
%TO.N,LED2*%
X82350000Y-62000000D03*
%TO.P,U1,11,A2*%
%TO.N,LED3*%
X79810000Y-62000000D03*
%TO.P,U1,12,A3*%
%TO.N,LED4*%
X77270000Y-62000000D03*
%TO.P,U1,13,A4/SCL*%
%TO.N,LED5*%
X74730000Y-62000000D03*
%TO.P,U1,14,3.3V*%
%TO.N,/3.3V*%
X72190000Y-62000000D03*
%TO.P,U1,15,GND*%
%TO.N,GND*%
X69650000Y-62000000D03*
%TO.P,U1,16,5V*%
%TO.N,VDD*%
X67110000Y-62000000D03*
%TD*%
D11*
%TO.P,R4,1*%
%TO.N,LED2*%
X95500000Y-76000000D03*
%TO.P,R4,2*%
%TO.N,Net-(D4-A)*%
X97500000Y-76000000D03*
%TD*%
D10*
%TO.P,D2,1,K*%
%TO.N,GND*%
X102000000Y-70000000D03*
%TO.P,D2,2,A*%
%TO.N,Net-(D2-A)*%
X99950000Y-70000000D03*
%TD*%
%TO.P,D1,1,K*%
%TO.N,GND*%
X102000000Y-67000000D03*
%TO.P,D1,2,A*%
%TO.N,Net-(D1-A)*%
X99950000Y-67000000D03*
%TD*%
D11*
%TO.P,R1,1*%
%TO.N,LED5*%
X95500000Y-67000000D03*
%TO.P,R1,2*%
%TO.N,Net-(D1-A)*%
X97500000Y-67000000D03*
%TD*%
D10*
%TO.P,D4,1,K*%
%TO.N,GND*%
X102000000Y-76000000D03*
%TO.P,D4,2,A*%
%TO.N,Net-(D4-A)*%
X99950000Y-76000000D03*
%TD*%
%TO.P,D5,1,K*%
%TO.N,GND*%
X102000000Y-79000000D03*
%TO.P,D5,2,A*%
%TO.N,Net-(D5-A)*%
X99950000Y-79000000D03*
%TD*%
D14*
%TO.P,J1,1,Pin_1*%
%TO.N,VDD*%
X67100000Y-57000000D03*
D15*
%TO.P,J1,2,Pin_2*%
%TO.N,GND*%
X69640000Y-57000000D03*
%TD*%
D16*
%TO.N,/3.3V*%
X72190000Y-59000000D03*
X110000000Y-83000000D03*
%TO.N,GND*%
X89200000Y-80400000D03*
X126500000Y-88000000D03*
X103000000Y-64000000D03*
X126500000Y-54500000D03*
X66500000Y-88000000D03*
%TD*%
D17*
%TO.N,LED5*%
X93000000Y-66600000D02*
X93400000Y-67000000D01*
X93400000Y-67000000D02*
X95500000Y-67000000D01*
X74730000Y-60870000D02*
X78400000Y-57200000D01*
X78400000Y-57200000D02*
X88814214Y-57200000D01*
X88814214Y-57200000D02*
X93000000Y-61385786D01*
X74730000Y-62000000D02*
X74730000Y-60870000D01*
X93000000Y-61385786D02*
X93000000Y-66600000D01*
%TO.N,LED4*%
X92000000Y-69000000D02*
X93000000Y-70000000D01*
X80000000Y-58200000D02*
X88400000Y-58200000D01*
X92000000Y-61800000D02*
X92000000Y-69000000D01*
X93000000Y-70000000D02*
X95500000Y-70000000D01*
X77270000Y-60930000D02*
X80000000Y-58200000D01*
X88400000Y-58200000D02*
X92000000Y-61800000D01*
X77270000Y-62000000D02*
X77270000Y-60930000D01*
%TO.N,LED3*%
X92800000Y-73000000D02*
X95500000Y-73000000D01*
X91000000Y-71200000D02*
X92800000Y-73000000D01*
X81600000Y-59200000D02*
X87952691Y-59199999D01*
X87952691Y-59199999D02*
X91000000Y-62247308D01*
X79810000Y-60990000D02*
X81600000Y-59200000D01*
X79810000Y-62000000D02*
X79810000Y-60990000D01*
X91000000Y-62247308D02*
X91000000Y-71200000D01*
%TO.N,LED2*%
X90000000Y-73800000D02*
X92200000Y-76000000D01*
X87538478Y-60200000D02*
X90000000Y-62661522D01*
X83000000Y-60200000D02*
X87538478Y-60200000D01*
X82350000Y-60850000D02*
X83000000Y-60200000D01*
X92200000Y-76000000D02*
X95500000Y-76000000D01*
X82350000Y-62000000D02*
X82350000Y-60850000D01*
X90000000Y-62661522D02*
X90000000Y-73800000D01*
%TO.N,LED1*%
X92400000Y-79000000D02*
X95500000Y-79000000D01*
X89000000Y-63075736D02*
X89000000Y-75600000D01*
X87624264Y-61700000D02*
X89000000Y-63075736D01*
X85190000Y-61700000D02*
X87624264Y-61700000D01*
X84890000Y-62000000D02*
X85190000Y-61700000D01*
X89000000Y-75600000D02*
X92400000Y-79000000D01*
D18*
%TO.N,/3.3V*%
X110589340Y-74810000D02*
X110750000Y-74810000D01*
X110000000Y-75399340D02*
X110589340Y-74810000D01*
X110000000Y-83000000D02*
X110000000Y-75399340D01*
D19*
%TO.N,SDA*%
X74730000Y-86730000D02*
X74730000Y-80000000D01*
X76000000Y-88000000D02*
X74730000Y-86730000D01*
X102000000Y-88000000D02*
X76000000Y-88000000D01*
X108000000Y-82000000D02*
X102000000Y-88000000D01*
X108000000Y-73199898D02*
X108000000Y-82000000D01*
X108929898Y-72270000D02*
X108000000Y-73199898D01*
X110750000Y-72270000D02*
X108929898Y-72270000D01*
%TO.N,SCL*%
X77270000Y-85260000D02*
X77270000Y-80000000D01*
X106000000Y-80500000D02*
X100500000Y-86000000D01*
X106000000Y-71500000D02*
X106000000Y-80500000D01*
X100500000Y-86000000D02*
X78010000Y-86000000D01*
X78010000Y-86000000D02*
X77270000Y-85260000D01*
X107770000Y-69730000D02*
X106000000Y-71500000D01*
X110750000Y-69730000D02*
X107770000Y-69730000D01*
%TO.N,/3.3V*%
X110250000Y-75310000D02*
X110750000Y-74810000D01*
D18*
X72190000Y-59000000D02*
X72190000Y-62000000D01*
%TO.N,VDD*%
X67100000Y-61990000D02*
X67110000Y-62000000D01*
X67100000Y-57000000D02*
X67100000Y-61990000D01*
D19*
%TO.N,GND*%
X102190000Y-67190000D02*
X102000000Y-67000000D01*
X102000000Y-79000000D02*
X102000000Y-67000000D01*
X110750000Y-67190000D02*
X102190000Y-67190000D01*
%TO.N,Net-(D1-A)*%
X97500000Y-67000000D02*
X99950000Y-67000000D01*
%TO.N,Net-(D2-A)*%
X97500000Y-70000000D02*
X99950000Y-70000000D01*
%TO.N,Net-(D3-A)*%
X97500000Y-73000000D02*
X99950000Y-73000000D01*
%TO.N,Net-(D4-A)*%
X97500000Y-76000000D02*
X99950000Y-76000000D01*
%TO.N,Net-(D5-A)*%
X97500000Y-79000000D02*
X99950000Y-79000000D01*
%TD*%
%TA.AperFunction,Conductor*%
%TO.N,GND*%
G36*
X126994341Y-52000536D02*
G01*
X126995456Y-52000556D01*
X127004399Y-52000874D01*
X127010126Y-52001181D01*
X127013042Y-52001354D01*
X127083425Y-52005967D01*
X127083894Y-52006000D01*
X127208855Y-52014937D01*
X127217673Y-52015726D01*
X127275445Y-52021936D01*
X127292992Y-52024459D01*
X127317315Y-52028848D01*
X127321402Y-52029623D01*
X127387311Y-52042733D01*
X127391529Y-52043611D01*
X127489262Y-52064872D01*
X127497865Y-52066905D01*
X127547226Y-52079503D01*
X127565662Y-52084977D01*
X127655941Y-52115622D01*
X127662872Y-52118090D01*
X127759652Y-52154188D01*
X127767920Y-52157441D01*
X127803273Y-52172085D01*
X127818106Y-52178805D01*
X127908361Y-52223314D01*
X127917452Y-52228034D01*
X128014644Y-52281106D01*
X128022300Y-52285466D01*
X128043530Y-52298062D01*
X128054766Y-52305142D01*
X128142475Y-52363748D01*
X128142487Y-52363756D01*
X128153360Y-52371450D01*
X128248909Y-52442977D01*
X128255902Y-52448409D01*
X128263044Y-52454165D01*
X128270958Y-52460819D01*
X128354888Y-52534423D01*
X128366782Y-52545562D01*
X128454436Y-52633216D01*
X128465575Y-52645110D01*
X128539172Y-52729032D01*
X128545839Y-52736962D01*
X128551569Y-52744072D01*
X128557028Y-52751098D01*
X128628544Y-52846632D01*
X128636244Y-52857514D01*
X128694852Y-52945226D01*
X128701942Y-52956477D01*
X128714525Y-52977685D01*
X128718905Y-52985377D01*
X128746859Y-53036570D01*
X128771922Y-53082469D01*
X128771928Y-53082479D01*
X128776709Y-53091685D01*
X128821192Y-53181889D01*
X128827916Y-53196730D01*
X128842551Y-53232062D01*
X128845806Y-53240334D01*
X128881906Y-53337123D01*
X128884390Y-53344100D01*
X128915015Y-53434317D01*
X128920495Y-53452773D01*
X128933089Y-53502113D01*
X128935133Y-53510767D01*
X128956370Y-53608391D01*
X128957277Y-53612744D01*
X128970360Y-53678519D01*
X128971188Y-53682884D01*
X128975534Y-53706972D01*
X128978063Y-53724565D01*
X128984269Y-53782287D01*
X128985062Y-53791143D01*
X128993970Y-53915702D01*
X128994071Y-53917179D01*
X128998644Y-53986953D01*
X128998820Y-53989915D01*
X128999125Y-53995607D01*
X128999439Y-54004310D01*
X128999457Y-54005280D01*
X128999500Y-54009900D01*
X128999500Y-87990098D01*
X128999457Y-87994723D01*
X128999439Y-87995692D01*
X128999124Y-88004422D01*
X128998818Y-88010119D01*
X128998643Y-88013046D01*
X128994071Y-88082816D01*
X128993970Y-88084296D01*
X128985062Y-88208856D01*
X128984270Y-88217709D01*
X128978065Y-88275428D01*
X128975533Y-88293034D01*
X128971184Y-88317133D01*
X128970358Y-88321487D01*
X128957277Y-88387253D01*
X128956371Y-88391606D01*
X128935130Y-88489251D01*
X128933084Y-88497909D01*
X128920497Y-88547219D01*
X128915018Y-88565672D01*
X128884386Y-88655910D01*
X128881902Y-88662885D01*
X128845809Y-88759657D01*
X128842551Y-88767938D01*
X128827914Y-88803272D01*
X128821194Y-88818104D01*
X128776714Y-88908303D01*
X128771933Y-88917510D01*
X128718917Y-89014601D01*
X128714514Y-89022331D01*
X128701944Y-89043515D01*
X128694841Y-89054789D01*
X128636238Y-89142494D01*
X128628537Y-89153376D01*
X128557038Y-89248888D01*
X128551588Y-89255904D01*
X128545853Y-89263021D01*
X128539176Y-89270962D01*
X128465574Y-89354889D01*
X128454436Y-89366782D01*
X128366782Y-89454436D01*
X128354889Y-89465574D01*
X128270962Y-89539176D01*
X128263021Y-89545853D01*
X128255904Y-89551588D01*
X128248888Y-89557038D01*
X128153376Y-89628537D01*
X128142494Y-89636238D01*
X128054789Y-89694841D01*
X128043515Y-89701944D01*
X128022331Y-89714514D01*
X128014601Y-89718917D01*
X127917510Y-89771933D01*
X127908303Y-89776714D01*
X127818104Y-89821194D01*
X127803272Y-89827914D01*
X127767938Y-89842551D01*
X127759657Y-89845809D01*
X127662885Y-89881902D01*
X127655910Y-89884386D01*
X127565672Y-89915018D01*
X127547219Y-89920497D01*
X127515017Y-89928716D01*
X127497886Y-89933089D01*
X127489251Y-89935130D01*
X127391606Y-89956371D01*
X127387253Y-89957277D01*
X127321487Y-89970358D01*
X127317133Y-89971184D01*
X127293034Y-89975533D01*
X127275428Y-89978065D01*
X127217709Y-89984270D01*
X127208856Y-89985062D01*
X127084296Y-89993970D01*
X127082816Y-89994071D01*
X127013046Y-89998643D01*
X127010119Y-89998818D01*
X127004422Y-89999124D01*
X126995696Y-89999439D01*
X126995156Y-89999449D01*
X126994690Y-89999457D01*
X126990099Y-89999500D01*
X102011999Y-89999500D01*
X101965949Y-89990340D01*
X101965501Y-89990565D01*
X101899398Y-89999500D01*
X76100602Y-89999500D01*
X76047505Y-89988938D01*
X75988006Y-89999500D01*
X66009901Y-89999500D01*
X66005294Y-89999457D01*
X66005183Y-89999455D01*
X66004315Y-89999439D01*
X65995607Y-89999125D01*
X65989915Y-89998820D01*
X65986953Y-89998644D01*
X65917179Y-89994071D01*
X65915702Y-89993970D01*
X65791143Y-89985062D01*
X65782287Y-89984269D01*
X65724565Y-89978063D01*
X65706972Y-89975534D01*
X65682884Y-89971188D01*
X65678519Y-89970360D01*
X65612744Y-89957277D01*
X65608391Y-89956370D01*
X65510767Y-89935133D01*
X65502113Y-89933089D01*
X65452773Y-89920495D01*
X65434317Y-89915015D01*
X65344100Y-89884390D01*
X65337123Y-89881906D01*
X65240334Y-89845806D01*
X65232062Y-89842551D01*
X65196730Y-89827916D01*
X65181889Y-89821192D01*
X65125984Y-89793623D01*
X65091674Y-89776703D01*
X65082489Y-89771933D01*
X65036570Y-89746859D01*
X64985377Y-89718905D01*
X64977685Y-89714525D01*
X64956477Y-89701942D01*
X64945226Y-89694852D01*
X64857514Y-89636244D01*
X64846632Y-89628544D01*
X64751098Y-89557028D01*
X64744072Y-89551569D01*
X64736962Y-89545839D01*
X64729032Y-89539172D01*
X64645110Y-89465575D01*
X64633216Y-89454436D01*
X64545562Y-89366782D01*
X64534423Y-89354888D01*
X64460819Y-89270958D01*
X64454165Y-89263044D01*
X64448409Y-89255902D01*
X64442977Y-89248909D01*
X64371450Y-89153360D01*
X64363756Y-89142487D01*
X64352049Y-89124966D01*
X64305142Y-89054766D01*
X64298053Y-89043515D01*
X64285466Y-89022300D01*
X64281106Y-89014644D01*
X64228034Y-88917452D01*
X64223314Y-88908361D01*
X64178804Y-88818104D01*
X64172085Y-88803273D01*
X64165975Y-88788523D01*
X64157438Y-88767914D01*
X64154186Y-88759647D01*
X64118099Y-88662895D01*
X64118095Y-88662885D01*
X64118090Y-88662872D01*
X64115614Y-88655917D01*
X64111711Y-88644419D01*
X64084977Y-88565662D01*
X64079501Y-88547216D01*
X64066909Y-88497881D01*
X64064872Y-88489262D01*
X64043611Y-88391529D01*
X64042728Y-88387286D01*
X64029623Y-88321402D01*
X64028848Y-88317315D01*
X64024459Y-88292992D01*
X64021935Y-88275433D01*
X64021934Y-88275428D01*
X64015726Y-88217673D01*
X64014936Y-88208835D01*
X64006000Y-88083894D01*
X64005967Y-88083425D01*
X64001354Y-88013042D01*
X64001182Y-88010156D01*
X64000873Y-88004392D01*
X64000556Y-87995440D01*
X64000536Y-87994350D01*
X64000500Y-87990098D01*
X64000500Y-80000000D01*
X65000000Y-80000000D01*
X65000001Y-80000000D01*
X65009808Y-80009807D01*
X65055789Y-80018954D01*
X65136571Y-80072930D01*
X65190547Y-80153712D01*
X65209501Y-80249000D01*
X65209501Y-81158043D01*
X65220113Y-81277414D01*
X65220113Y-81277417D01*
X65220114Y-81277418D01*
X65276091Y-81473049D01*
X65370302Y-81653407D01*
X65498891Y-81811109D01*
X65656593Y-81939698D01*
X65836951Y-82033909D01*
X66032582Y-82089886D01*
X66151963Y-82100500D01*
X68068036Y-82100499D01*
X68187418Y-82089886D01*
X68311502Y-82054380D01*
X68408326Y-82046390D01*
X68448499Y-82054381D01*
X68572582Y-82089886D01*
X68691963Y-82100500D01*
X70608036Y-82100499D01*
X70727418Y-82089886D01*
X70851502Y-82054380D01*
X70948326Y-82046390D01*
X70988499Y-82054381D01*
X71112582Y-82089886D01*
X71231963Y-82100500D01*
X72980500Y-82100499D01*
X73075788Y-82119453D01*
X73156569Y-82173429D01*
X73210546Y-82254211D01*
X73229500Y-82349499D01*
X73229500Y-86621375D01*
X73227588Y-86652174D01*
X73225643Y-86667779D01*
X73229287Y-86755884D01*
X73229500Y-86766175D01*
X73229500Y-86792071D01*
X73231638Y-86817872D01*
X73232275Y-86828143D01*
X73235918Y-86916230D01*
X73239146Y-86931627D01*
X73243593Y-86962154D01*
X73244890Y-86977814D01*
X73244892Y-86977824D01*
X73266538Y-87063302D01*
X73268857Y-87073326D01*
X73286949Y-87159609D01*
X73286950Y-87159611D01*
X73292663Y-87174253D01*
X73302072Y-87203624D01*
X73305935Y-87218877D01*
X73305936Y-87218879D01*
X73341352Y-87299620D01*
X73345289Y-87309126D01*
X73377344Y-87391274D01*
X73377345Y-87391275D01*
X73385392Y-87404780D01*
X73399510Y-87432207D01*
X73405827Y-87446607D01*
X73405828Y-87446608D01*
X73454038Y-87520401D01*
X73459485Y-87529127D01*
X73504634Y-87604895D01*
X73514796Y-87616893D01*
X73533242Y-87641631D01*
X73541836Y-87654785D01*
X73541838Y-87654787D01*
X73601545Y-87719646D01*
X73608358Y-87727361D01*
X73625098Y-87747126D01*
X73643446Y-87765474D01*
X73650527Y-87772856D01*
X73705166Y-87832209D01*
X73710255Y-87837737D01*
X73722656Y-87847389D01*
X73745789Y-87867817D01*
X74862183Y-88984211D01*
X74882610Y-89007343D01*
X74892261Y-89019743D01*
X74892263Y-89019745D01*
X74957119Y-89079449D01*
X74964546Y-89086574D01*
X74982880Y-89104908D01*
X75002639Y-89121643D01*
X75010353Y-89128455D01*
X75025604Y-89142494D01*
X75075215Y-89188164D01*
X75088374Y-89196761D01*
X75113112Y-89215207D01*
X75125106Y-89225366D01*
X75188337Y-89263044D01*
X75200857Y-89270504D01*
X75209586Y-89275953D01*
X75283395Y-89324174D01*
X75297778Y-89330483D01*
X75325220Y-89344608D01*
X75338726Y-89352656D01*
X75403554Y-89377952D01*
X75420853Y-89384702D01*
X75430361Y-89388640D01*
X75511113Y-89424061D01*
X75511116Y-89424061D01*
X75511119Y-89424063D01*
X75526364Y-89427923D01*
X75555741Y-89437334D01*
X75570386Y-89443049D01*
X75656675Y-89461142D01*
X75666673Y-89463455D01*
X75666709Y-89463464D01*
X75752179Y-89485108D01*
X75767847Y-89486405D01*
X75798385Y-89490855D01*
X75813763Y-89494080D01*
X75901855Y-89497723D01*
X75912108Y-89498359D01*
X75937933Y-89500500D01*
X75963832Y-89500500D01*
X75974122Y-89500712D01*
X75980070Y-89500959D01*
X75998298Y-89501713D01*
X76038957Y-89511563D01*
X76069805Y-89503412D01*
X76077828Y-89502412D01*
X76108625Y-89500500D01*
X101891375Y-89500500D01*
X101922172Y-89502412D01*
X101930195Y-89503412D01*
X101955670Y-89511864D01*
X102001709Y-89501713D01*
X102025886Y-89500713D01*
X102036176Y-89500500D01*
X102062058Y-89500500D01*
X102062067Y-89500500D01*
X102087866Y-89498361D01*
X102098142Y-89497724D01*
X102186224Y-89494082D01*
X102186227Y-89494081D01*
X102186237Y-89494081D01*
X102201629Y-89490853D01*
X102232150Y-89486406D01*
X102247821Y-89485108D01*
X102333339Y-89463451D01*
X102343292Y-89461148D01*
X102429614Y-89443049D01*
X102444258Y-89437334D01*
X102473638Y-89427922D01*
X102488881Y-89424063D01*
X102569651Y-89388633D01*
X102579091Y-89384723D01*
X102661274Y-89352656D01*
X102674778Y-89344608D01*
X102702219Y-89330483D01*
X102716607Y-89324173D01*
X102790418Y-89275949D01*
X102799141Y-89270505D01*
X102835383Y-89248909D01*
X102874894Y-89225366D01*
X102886883Y-89215211D01*
X102911620Y-89196764D01*
X102924785Y-89188164D01*
X102974395Y-89142494D01*
X102989648Y-89128453D01*
X102997366Y-89121637D01*
X103006616Y-89113803D01*
X103017126Y-89104902D01*
X103035441Y-89086586D01*
X103042868Y-89079461D01*
X103081915Y-89043515D01*
X103107738Y-89019744D01*
X103117392Y-89007339D01*
X103137809Y-88984217D01*
X108168284Y-83953742D01*
X108249063Y-83899769D01*
X108344351Y-83880815D01*
X108439639Y-83899769D01*
X108520421Y-83953745D01*
X108543608Y-83981729D01*
X108543805Y-83981573D01*
X108713194Y-84193980D01*
X108713205Y-84193991D01*
X108905520Y-84372432D01*
X109122292Y-84520226D01*
X109122294Y-84520227D01*
X109122296Y-84520228D01*
X109261838Y-84587428D01*
X109358668Y-84634059D01*
X109358669Y-84634059D01*
X109358677Y-84634063D01*
X109609385Y-84711396D01*
X109868818Y-84750500D01*
X109868822Y-84750500D01*
X110131178Y-84750500D01*
X110131182Y-84750500D01*
X110390615Y-84711396D01*
X110641323Y-84634063D01*
X110877704Y-84520228D01*
X111094479Y-84372433D01*
X111286805Y-84193981D01*
X111450386Y-83988857D01*
X111581568Y-83761643D01*
X111677420Y-83517416D01*
X111735802Y-83261630D01*
X111750500Y-83065494D01*
X111750500Y-80999000D01*
X111769454Y-80903712D01*
X111823430Y-80822930D01*
X111904212Y-80768954D01*
X111999500Y-80750000D01*
X126249999Y-80750000D01*
X126250000Y-80750000D01*
X126250000Y-76959499D01*
X126268954Y-76864211D01*
X126322930Y-76783429D01*
X126403712Y-76729453D01*
X126499000Y-76710499D01*
X127408032Y-76710499D01*
X127408036Y-76710499D01*
X127527418Y-76699886D01*
X127723049Y-76643909D01*
X127903407Y-76549698D01*
X128061109Y-76421109D01*
X128189698Y-76263407D01*
X128283909Y-76083049D01*
X128339886Y-75887418D01*
X128350500Y-75768037D01*
X128350499Y-73851964D01*
X128339886Y-73732582D01*
X128304380Y-73608498D01*
X128296391Y-73511673D01*
X128304381Y-73471501D01*
X128339886Y-73347418D01*
X128350500Y-73228037D01*
X128350499Y-71311964D01*
X128339886Y-71192582D01*
X128304380Y-71068498D01*
X128296391Y-70971673D01*
X128304381Y-70931501D01*
X128323499Y-70864686D01*
X128339886Y-70807418D01*
X128350500Y-70688037D01*
X128350499Y-68771964D01*
X128339886Y-68652582D01*
X128304380Y-68528498D01*
X128296391Y-68431673D01*
X128304381Y-68391501D01*
X128306128Y-68385396D01*
X128339886Y-68267418D01*
X128350500Y-68148037D01*
X128350499Y-66231964D01*
X128339886Y-66112582D01*
X128283909Y-65916951D01*
X128189698Y-65736593D01*
X128061109Y-65578891D01*
X127903407Y-65450302D01*
X127903402Y-65450299D01*
X127723053Y-65356093D01*
X127723052Y-65356092D01*
X127723049Y-65356091D01*
X127527418Y-65300114D01*
X127408037Y-65289500D01*
X127408036Y-65289500D01*
X126499000Y-65289500D01*
X126403712Y-65270546D01*
X126322930Y-65216570D01*
X126268954Y-65135788D01*
X126250000Y-65040500D01*
X126250000Y-61250001D01*
X126250000Y-61250000D01*
X110750000Y-61250000D01*
X110750000Y-66290000D01*
X111601000Y-66290000D01*
X111696288Y-66308954D01*
X111777070Y-66362930D01*
X111831046Y-66443712D01*
X111850000Y-66539000D01*
X111850000Y-67580500D01*
X111831046Y-67675788D01*
X111777070Y-67756570D01*
X111696288Y-67810546D01*
X111601000Y-67829500D01*
X109591968Y-67829500D01*
X109591956Y-67829501D01*
X109472585Y-67840113D01*
X109276954Y-67896090D01*
X109276946Y-67896093D01*
X109096597Y-67990299D01*
X109096592Y-67990302D01*
X108938890Y-68118891D01*
X108938880Y-68118902D01*
X108923426Y-68137855D01*
X108848520Y-68199727D01*
X108755638Y-68228223D01*
X108730449Y-68229500D01*
X107878625Y-68229500D01*
X107847825Y-68227588D01*
X107832216Y-68225642D01*
X107744115Y-68229287D01*
X107733824Y-68229500D01*
X107707926Y-68229500D01*
X107682126Y-68231638D01*
X107671857Y-68232275D01*
X107583770Y-68235918D01*
X107583765Y-68235918D01*
X107583763Y-68235919D01*
X107568365Y-68239147D01*
X107537846Y-68243593D01*
X107522182Y-68244891D01*
X107436707Y-68266536D01*
X107426684Y-68268855D01*
X107340385Y-68286951D01*
X107325735Y-68292667D01*
X107296367Y-68302075D01*
X107281116Y-68305937D01*
X107281114Y-68305938D01*
X107200371Y-68341354D01*
X107190871Y-68345290D01*
X107108723Y-68377345D01*
X107095212Y-68385396D01*
X107067796Y-68399508D01*
X107053397Y-68405824D01*
X107053396Y-68405824D01*
X106979594Y-68454041D01*
X106970871Y-68459486D01*
X106895107Y-68504633D01*
X106895092Y-68504644D01*
X106883099Y-68514801D01*
X106858384Y-68533231D01*
X106845219Y-68541832D01*
X106780352Y-68601546D01*
X106772650Y-68608347D01*
X106752876Y-68625095D01*
X106734540Y-68643431D01*
X106727122Y-68650547D01*
X106662265Y-68710252D01*
X106662252Y-68710266D01*
X106652604Y-68722662D01*
X106632185Y-68745785D01*
X105015785Y-70362185D01*
X104992662Y-70382604D01*
X104980266Y-70392252D01*
X104980252Y-70392265D01*
X104920547Y-70457122D01*
X104913431Y-70464540D01*
X104895095Y-70482876D01*
X104878347Y-70502650D01*
X104871546Y-70510352D01*
X104811832Y-70575219D01*
X104803231Y-70588384D01*
X104784801Y-70613099D01*
X104774644Y-70625092D01*
X104774633Y-70625107D01*
X104729486Y-70700871D01*
X104724041Y-70709594D01*
X104675824Y-70783396D01*
X104675824Y-70783397D01*
X104669508Y-70797796D01*
X104655396Y-70825212D01*
X104647345Y-70838723D01*
X104615290Y-70920871D01*
X104611354Y-70930371D01*
X104575938Y-71011114D01*
X104575937Y-71011116D01*
X104572075Y-71026367D01*
X104562667Y-71055735D01*
X104556951Y-71070385D01*
X104538855Y-71156684D01*
X104536536Y-71166707D01*
X104514891Y-71252182D01*
X104513593Y-71267846D01*
X104509147Y-71298365D01*
X104505919Y-71313763D01*
X104505918Y-71313770D01*
X104502275Y-71401857D01*
X104501638Y-71412126D01*
X104499500Y-71437926D01*
X104499500Y-71463823D01*
X104499287Y-71474113D01*
X104495642Y-71562218D01*
X104497588Y-71577823D01*
X104499500Y-71608624D01*
X104499500Y-79775332D01*
X104480546Y-79870620D01*
X104426570Y-79951402D01*
X99951402Y-84426570D01*
X99870620Y-84480546D01*
X99775332Y-84499500D01*
X79019500Y-84499500D01*
X78924212Y-84480546D01*
X78843430Y-84426570D01*
X78789454Y-84345788D01*
X78770500Y-84250500D01*
X78770500Y-82349499D01*
X78789454Y-82254211D01*
X78843430Y-82173429D01*
X78924212Y-82119453D01*
X79019495Y-82100499D01*
X80768036Y-82100499D01*
X80887418Y-82089886D01*
X81011502Y-82054380D01*
X81108326Y-82046390D01*
X81148499Y-82054381D01*
X81272582Y-82089886D01*
X81391963Y-82100500D01*
X83308036Y-82100499D01*
X83427418Y-82089886D01*
X83551502Y-82054380D01*
X83648326Y-82046390D01*
X83688499Y-82054381D01*
X83812582Y-82089886D01*
X83931963Y-82100500D01*
X85848036Y-82100499D01*
X85967418Y-82089886D01*
X86163049Y-82033909D01*
X86343407Y-81939698D01*
X86501109Y-81811109D01*
X86629698Y-81653407D01*
X86723909Y-81473049D01*
X86779886Y-81277418D01*
X86790500Y-81158037D01*
X86790499Y-80248998D01*
X86809453Y-80153712D01*
X86863429Y-80072931D01*
X86944211Y-80018954D01*
X87039499Y-80000000D01*
X87499999Y-80000000D01*
X87500000Y-80000000D01*
X87500000Y-76519711D01*
X87518954Y-76424423D01*
X87572930Y-76343641D01*
X87653712Y-76289665D01*
X87749000Y-76270711D01*
X87844288Y-76289665D01*
X87925070Y-76343641D01*
X87939750Y-76359663D01*
X87960278Y-76384129D01*
X87973496Y-76401355D01*
X87999950Y-76439135D01*
X87999953Y-76439139D01*
X88160861Y-76600047D01*
X88160864Y-76600049D01*
X91399950Y-79839135D01*
X91399953Y-79839139D01*
X91560861Y-80000047D01*
X91560864Y-80000049D01*
X91560865Y-80000050D01*
X91598645Y-80026503D01*
X91615879Y-80039727D01*
X91651214Y-80069377D01*
X91691164Y-80092442D01*
X91709479Y-80104110D01*
X91747253Y-80130560D01*
X91747258Y-80130562D01*
X91747266Y-80130568D01*
X91789072Y-80150062D01*
X91808328Y-80160087D01*
X91848278Y-80183152D01*
X91848285Y-80183156D01*
X91891629Y-80198931D01*
X91911680Y-80207235D01*
X91953504Y-80226739D01*
X91998066Y-80238678D01*
X92018773Y-80245208D01*
X92062114Y-80260983D01*
X92062115Y-80260983D01*
X92062120Y-80260985D01*
X92107542Y-80268993D01*
X92128750Y-80273695D01*
X92173308Y-80285635D01*
X92219264Y-80289655D01*
X92240795Y-80292491D01*
X92270798Y-80297781D01*
X92286221Y-80300501D01*
X92286225Y-80300501D01*
X92524053Y-80300501D01*
X92524077Y-80300500D01*
X94128888Y-80300500D01*
X94224176Y-80319454D01*
X94304954Y-80373427D01*
X94345346Y-80413819D01*
X94530374Y-80542007D01*
X94735317Y-80635096D01*
X94953588Y-80690096D01*
X94953591Y-80690096D01*
X94953594Y-80690097D01*
X95019685Y-80695298D01*
X95085783Y-80700500D01*
X95914216Y-80700499D01*
X96046412Y-80690096D01*
X96264683Y-80635096D01*
X96397024Y-80574983D01*
X96491620Y-80552834D01*
X96587492Y-80568571D01*
X96602970Y-80574981D01*
X96735317Y-80635096D01*
X96953588Y-80690096D01*
X96953591Y-80690096D01*
X96953594Y-80690097D01*
X97019685Y-80695298D01*
X97085783Y-80700500D01*
X97914216Y-80700499D01*
X98046412Y-80690096D01*
X98264683Y-80635096D01*
X98469626Y-80542007D01*
X98469639Y-80541997D01*
X98479355Y-80536486D01*
X98480424Y-80538370D01*
X98554687Y-80506136D01*
X98607365Y-80500500D01*
X98867635Y-80500500D01*
X98962923Y-80519454D01*
X98995292Y-80537107D01*
X98995645Y-80536486D01*
X99005364Y-80542000D01*
X99005374Y-80542007D01*
X99210317Y-80635096D01*
X99428588Y-80690096D01*
X99428591Y-80690096D01*
X99428594Y-80690097D01*
X99494685Y-80695298D01*
X99560783Y-80700500D01*
X100339216Y-80700499D01*
X100471412Y-80690096D01*
X100689683Y-80635096D01*
X100894626Y-80542007D01*
X101079654Y-80413819D01*
X101238819Y-80254654D01*
X101367007Y-80069626D01*
X101460096Y-79864683D01*
X101515096Y-79646412D01*
X101525500Y-79514217D01*
X101525499Y-78485784D01*
X101515096Y-78353588D01*
X101460096Y-78135317D01*
X101367007Y-77930374D01*
X101238819Y-77745346D01*
X101169539Y-77676066D01*
X101115566Y-77595288D01*
X101096612Y-77500000D01*
X101115566Y-77404712D01*
X101169539Y-77323933D01*
X101238819Y-77254654D01*
X101367007Y-77069626D01*
X101460096Y-76864683D01*
X101515096Y-76646412D01*
X101515294Y-76643906D01*
X101525499Y-76514228D01*
X101525500Y-76514217D01*
X101525499Y-75485784D01*
X101515096Y-75353588D01*
X101460096Y-75135317D01*
X101367007Y-74930374D01*
X101238819Y-74745346D01*
X101169539Y-74676066D01*
X101115566Y-74595288D01*
X101096612Y-74500000D01*
X101115566Y-74404712D01*
X101169539Y-74323933D01*
X101238819Y-74254654D01*
X101367007Y-74069626D01*
X101460096Y-73864683D01*
X101515096Y-73646412D01*
X101525500Y-73514217D01*
X101525499Y-72485784D01*
X101515096Y-72353588D01*
X101460096Y-72135317D01*
X101367007Y-71930374D01*
X101238819Y-71745346D01*
X101169539Y-71676066D01*
X101115566Y-71595288D01*
X101096612Y-71500000D01*
X101115566Y-71404712D01*
X101169539Y-71323933D01*
X101238819Y-71254654D01*
X101367007Y-71069626D01*
X101460096Y-70864683D01*
X101515096Y-70646412D01*
X101518646Y-70601314D01*
X101525499Y-70514228D01*
X101525500Y-70514217D01*
X101525499Y-69485784D01*
X101515096Y-69353588D01*
X101460096Y-69135317D01*
X101367007Y-68930374D01*
X101257260Y-68771964D01*
X101238822Y-68745350D01*
X101238821Y-68745349D01*
X101238819Y-68745346D01*
X101169539Y-68676066D01*
X101115566Y-68595288D01*
X101096612Y-68500000D01*
X101115566Y-68404712D01*
X101169539Y-68323933D01*
X101238819Y-68254654D01*
X101367007Y-68069626D01*
X101460096Y-67864683D01*
X101515096Y-67646412D01*
X101520284Y-67580500D01*
X101525499Y-67514228D01*
X101525500Y-67514217D01*
X101525499Y-66485784D01*
X101515096Y-66353588D01*
X101460096Y-66135317D01*
X101367007Y-65930374D01*
X101238819Y-65745346D01*
X101079654Y-65586181D01*
X101079650Y-65586178D01*
X101079649Y-65586177D01*
X100894631Y-65457996D01*
X100894629Y-65457995D01*
X100894626Y-65457993D01*
X100757776Y-65395833D01*
X100689686Y-65364905D01*
X100689684Y-65364904D01*
X100689683Y-65364904D01*
X100471412Y-65309904D01*
X100471411Y-65309903D01*
X100471408Y-65309903D01*
X100471405Y-65309902D01*
X100339222Y-65299500D01*
X99560791Y-65299500D01*
X99428587Y-65309904D01*
X99210313Y-65364905D01*
X99005376Y-65457992D01*
X98995645Y-65463514D01*
X98994575Y-65461629D01*
X98920313Y-65493864D01*
X98867635Y-65499500D01*
X98607365Y-65499500D01*
X98512077Y-65480546D01*
X98479707Y-65462892D01*
X98479355Y-65463514D01*
X98469631Y-65457996D01*
X98469626Y-65457993D01*
X98347524Y-65402532D01*
X98264686Y-65364905D01*
X98264684Y-65364904D01*
X98264683Y-65364904D01*
X98046412Y-65309904D01*
X98046411Y-65309903D01*
X98046408Y-65309903D01*
X98046405Y-65309902D01*
X97914222Y-65299500D01*
X97085791Y-65299500D01*
X96953587Y-65309904D01*
X96735316Y-65364904D01*
X96602975Y-65425016D01*
X96508378Y-65447165D01*
X96412506Y-65431428D01*
X96397025Y-65425016D01*
X96264683Y-65364904D01*
X96046408Y-65309903D01*
X96046405Y-65309902D01*
X95914222Y-65299500D01*
X95085791Y-65299500D01*
X94953587Y-65309904D01*
X94735313Y-65364905D01*
X94652476Y-65402532D01*
X94557880Y-65424682D01*
X94462008Y-65408945D01*
X94379455Y-65357718D01*
X94322791Y-65278799D01*
X94300641Y-65184203D01*
X94300500Y-65175823D01*
X94300500Y-61511873D01*
X94300501Y-61511852D01*
X94300501Y-61272011D01*
X94300501Y-61272007D01*
X94292491Y-61226581D01*
X94289655Y-61205050D01*
X94285635Y-61159094D01*
X94273695Y-61114536D01*
X94268992Y-61093320D01*
X94260987Y-61047918D01*
X94260985Y-61047906D01*
X94245208Y-61004559D01*
X94238678Y-60983852D01*
X94226739Y-60939290D01*
X94207235Y-60897466D01*
X94198931Y-60877415D01*
X94186030Y-60841968D01*
X94183156Y-60834071D01*
X94160080Y-60794104D01*
X94150063Y-60774860D01*
X94130568Y-60733052D01*
X94104105Y-60695259D01*
X94092437Y-60676943D01*
X94069375Y-60636999D01*
X94069373Y-60636996D01*
X94061264Y-60627333D01*
X94039726Y-60601665D01*
X94026521Y-60584457D01*
X94000047Y-60546647D01*
X93839139Y-60385739D01*
X93839135Y-60385736D01*
X93831871Y-60378472D01*
X93831858Y-60378460D01*
X89814263Y-56360864D01*
X89814261Y-56360861D01*
X89653353Y-56199953D01*
X89653349Y-56199950D01*
X89615569Y-56173496D01*
X89598340Y-56160276D01*
X89562999Y-56130622D01*
X89562992Y-56130618D01*
X89523048Y-56107556D01*
X89504728Y-56095885D01*
X89466951Y-56069434D01*
X89466950Y-56069433D01*
X89466946Y-56069431D01*
X89425140Y-56049936D01*
X89405879Y-56039909D01*
X89365931Y-56016845D01*
X89365928Y-56016843D01*
X89322579Y-56001066D01*
X89302509Y-55992752D01*
X89260708Y-55973260D01*
X89216144Y-55961318D01*
X89195436Y-55954789D01*
X89152095Y-55939015D01*
X89152092Y-55939014D01*
X89106663Y-55931003D01*
X89085466Y-55926304D01*
X89053976Y-55917867D01*
X89040906Y-55914365D01*
X89040904Y-55914364D01*
X89040899Y-55914363D01*
X88994951Y-55910343D01*
X88973424Y-55907509D01*
X88943733Y-55902274D01*
X88927993Y-55899499D01*
X88700435Y-55899499D01*
X88690161Y-55899499D01*
X88690137Y-55899500D01*
X78524077Y-55899500D01*
X78524053Y-55899499D01*
X78513779Y-55899499D01*
X78286221Y-55899499D01*
X78272723Y-55901878D01*
X78240775Y-55907511D01*
X78219252Y-55910344D01*
X78173309Y-55914364D01*
X78128749Y-55926303D01*
X78107556Y-55931002D01*
X78062122Y-55939014D01*
X78018775Y-55954791D01*
X77998065Y-55961320D01*
X77978112Y-55966667D01*
X77953503Y-55973261D01*
X77911689Y-55992759D01*
X77891624Y-56001070D01*
X77848283Y-56016844D01*
X77808319Y-56039917D01*
X77789062Y-56049941D01*
X77747268Y-56069431D01*
X77747263Y-56069433D01*
X77709478Y-56095890D01*
X77691164Y-56107557D01*
X77651219Y-56130619D01*
X77651206Y-56130628D01*
X77615871Y-56160277D01*
X77598645Y-56173495D01*
X77560865Y-56199949D01*
X77560862Y-56199951D01*
X77399952Y-56360860D01*
X77399953Y-56360861D01*
X74365570Y-59395244D01*
X74284788Y-59449220D01*
X74189500Y-59468174D01*
X74094212Y-59449220D01*
X74013430Y-59395244D01*
X73959454Y-59314462D01*
X73940500Y-59219174D01*
X73940500Y-58934505D01*
X73925802Y-58738374D01*
X73925802Y-58738370D01*
X73867420Y-58482584D01*
X73771568Y-58238357D01*
X73771563Y-58238348D01*
X73640387Y-58011144D01*
X73476805Y-57806019D01*
X73476794Y-57806008D01*
X73284479Y-57627567D01*
X73067707Y-57479773D01*
X73067702Y-57479771D01*
X72831331Y-57365940D01*
X72831326Y-57365938D01*
X72831323Y-57365937D01*
X72580615Y-57288604D01*
X72321182Y-57249500D01*
X72058818Y-57249500D01*
X71851271Y-57280783D01*
X71799384Y-57288604D01*
X71654107Y-57333416D01*
X71548677Y-57365937D01*
X71548675Y-57365937D01*
X71548668Y-57365940D01*
X71312297Y-57479771D01*
X71312292Y-57479773D01*
X71095520Y-57627567D01*
X70903205Y-57806008D01*
X70903194Y-57806019D01*
X70739612Y-58011144D01*
X70608436Y-58238348D01*
X70608428Y-58238364D01*
X70512578Y-58482587D01*
X70454198Y-58738370D01*
X70454197Y-58738374D01*
X70439500Y-58934505D01*
X70439500Y-60306156D01*
X70420546Y-60401444D01*
X70411205Y-60421440D01*
X70356091Y-60526951D01*
X70356090Y-60526953D01*
X70356090Y-60526954D01*
X70337094Y-60593344D01*
X70300114Y-60722582D01*
X70289500Y-60841963D01*
X70289500Y-61927069D01*
X70289501Y-62851000D01*
X70270547Y-62946288D01*
X70216571Y-63027070D01*
X70135789Y-63081046D01*
X70040501Y-63100000D01*
X69259500Y-63100000D01*
X69164212Y-63081046D01*
X69083430Y-63027070D01*
X69029454Y-62946288D01*
X69010500Y-62851000D01*
X69010499Y-60841968D01*
X69010498Y-60841956D01*
X69005408Y-60784705D01*
X68999886Y-60722582D01*
X68943909Y-60526951D01*
X68888795Y-60421440D01*
X68878796Y-60402297D01*
X68851478Y-60309061D01*
X68850500Y-60287012D01*
X68850500Y-58348122D01*
X68869454Y-58252834D01*
X68878790Y-58232848D01*
X68883909Y-58223049D01*
X68939886Y-58027418D01*
X68950500Y-57908037D01*
X68950499Y-56091964D01*
X68939886Y-55972582D01*
X68883909Y-55776951D01*
X68789698Y-55596593D01*
X68661109Y-55438891D01*
X68503407Y-55310302D01*
X68503402Y-55310299D01*
X68323053Y-55216093D01*
X68323052Y-55216092D01*
X68323049Y-55216091D01*
X68127418Y-55160114D01*
X68008037Y-55149500D01*
X68008035Y-55149500D01*
X66191968Y-55149500D01*
X66191956Y-55149501D01*
X66072585Y-55160113D01*
X65876954Y-55216090D01*
X65876946Y-55216093D01*
X65696597Y-55310299D01*
X65696592Y-55310302D01*
X65538893Y-55438889D01*
X65538889Y-55438893D01*
X65410302Y-55596592D01*
X65410299Y-55596597D01*
X65316093Y-55776946D01*
X65316090Y-55776954D01*
X65260115Y-55972578D01*
X65260114Y-55972582D01*
X65249500Y-56091963D01*
X65249500Y-57908031D01*
X65249501Y-57908043D01*
X65260113Y-58027415D01*
X65316089Y-58223044D01*
X65316090Y-58223046D01*
X65316091Y-58223049D01*
X65321204Y-58232838D01*
X65348522Y-58326072D01*
X65349500Y-58348122D01*
X65349500Y-60325299D01*
X65330546Y-60420587D01*
X65321204Y-60440584D01*
X65276093Y-60526944D01*
X65276092Y-60526948D01*
X65220115Y-60722578D01*
X65220114Y-60722582D01*
X65209500Y-60841963D01*
X65209500Y-60841964D01*
X65209501Y-61751000D01*
X65190547Y-61846288D01*
X65136571Y-61927069D01*
X65055789Y-61981046D01*
X65009808Y-61990192D01*
X65000001Y-62000000D01*
X65000000Y-62000000D01*
X65000000Y-80000000D01*
X64000500Y-80000000D01*
X64000500Y-54009900D01*
X64000537Y-54005599D01*
X64000543Y-54005280D01*
X64000556Y-54004555D01*
X64000871Y-53995653D01*
X64001189Y-53989709D01*
X64001343Y-53987135D01*
X64005975Y-53916455D01*
X64005995Y-53916174D01*
X64014938Y-53791139D01*
X64015727Y-53782316D01*
X64021934Y-53724576D01*
X64024463Y-53706989D01*
X64025216Y-53702811D01*
X64028835Y-53682752D01*
X64029620Y-53678609D01*
X64042735Y-53612674D01*
X64043618Y-53608439D01*
X64064868Y-53510753D01*
X64066896Y-53502167D01*
X64079506Y-53452763D01*
X64084974Y-53434343D01*
X64115644Y-53343994D01*
X64118081Y-53337153D01*
X64154198Y-53240321D01*
X64157415Y-53232142D01*
X64172104Y-53196680D01*
X64178790Y-53181922D01*
X64223337Y-53091591D01*
X64228020Y-53082574D01*
X64281122Y-52985326D01*
X64285445Y-52977734D01*
X64298079Y-52956440D01*
X64305097Y-52945301D01*
X64363798Y-52857449D01*
X64371418Y-52846682D01*
X64442995Y-52751066D01*
X64448429Y-52744073D01*
X64448430Y-52744072D01*
X64454163Y-52736957D01*
X64460766Y-52729101D01*
X64534465Y-52645063D01*
X64545532Y-52633247D01*
X64633247Y-52545532D01*
X64645063Y-52534465D01*
X64729101Y-52460766D01*
X64736957Y-52454163D01*
X64744075Y-52448427D01*
X64751075Y-52442989D01*
X64751091Y-52442977D01*
X64846682Y-52371418D01*
X64857449Y-52363798D01*
X64945301Y-52305097D01*
X64956440Y-52298079D01*
X64977734Y-52285445D01*
X64985326Y-52281122D01*
X65082574Y-52228020D01*
X65091591Y-52223337D01*
X65181922Y-52178790D01*
X65196680Y-52172104D01*
X65232142Y-52157415D01*
X65240321Y-52154198D01*
X65337153Y-52118081D01*
X65343994Y-52115644D01*
X65434343Y-52084974D01*
X65452763Y-52079506D01*
X65502167Y-52066896D01*
X65510753Y-52064868D01*
X65608439Y-52043618D01*
X65612674Y-52042735D01*
X65678609Y-52029620D01*
X65682752Y-52028835D01*
X65702811Y-52025216D01*
X65706989Y-52024463D01*
X65724562Y-52021935D01*
X65782335Y-52015725D01*
X65791139Y-52014938D01*
X65916174Y-52005995D01*
X65916455Y-52005975D01*
X65987135Y-52001343D01*
X65989709Y-52001189D01*
X65995653Y-52000871D01*
X66004563Y-52000555D01*
X66005646Y-52000536D01*
X66009901Y-52000500D01*
X126990099Y-52000500D01*
X126994341Y-52000536D01*
G37*
%TD.AperFunction*%
%TD*%
M02*
