%TF.GenerationSoftware,KiCad,Pcbnew,8.0.2*%
%TF.CreationDate,2024-11-06T11:30:06+00:00*%
%TF.ProjectId,session_1_pcb,73657373-696f-46e5-9f31-5f7063622e6b,rev?*%
%TF.SameCoordinates,Original*%
%TF.FileFunction,Copper,L1,Top*%
%TF.FilePolarity,Positive*%
%FSLAX46Y46*%
G04 Gerber Fmt 4.6, Leading zero omitted, Abs format (unit mm)*
G04 Created by KiCad (PCBNEW 8.0.2) date 2024-11-06 11:30:06*
%MOMM*%
%LPD*%
G01*
G04 APERTURE LIST*
G04 Aperture macros list*
%AMRoundRect*
0 Rectangle with rounded corners*
0 $1 Rounding radius*
0 $2 $3 $4 $5 $6 $7 $8 $9 X,Y pos of 4 corners*
0 Add a 4 corners polygon primitive as box body*
4,1,4,$2,$3,$4,$5,$6,$7,$8,$9,$2,$3,0*
0 Add four circle primitives for the rounded corners*
1,1,$1+$1,$2,$3*
1,1,$1+$1,$4,$5*
1,1,$1+$1,$6,$7*
1,1,$1+$1,$8,$9*
0 Add four rect primitives between the rounded corners*
20,1,$1+$1,$2,$3,$4,$5,0*
20,1,$1+$1,$4,$5,$6,$7,0*
20,1,$1+$1,$6,$7,$8,$9,0*
20,1,$1+$1,$8,$9,$2,$3,0*%
G04 Aperture macros list end*
%TA.AperFunction,SMDPad,CuDef*%
%ADD10RoundRect,0.250000X0.325000X0.450000X-0.325000X0.450000X-0.325000X-0.450000X0.325000X-0.450000X0*%
%TD*%
%TA.AperFunction,SMDPad,CuDef*%
%ADD11R,2.200000X1.800000*%
%TD*%
%TA.AperFunction,SMDPad,CuDef*%
%ADD12R,1.800000X2.200000*%
%TD*%
%TA.AperFunction,ViaPad*%
%ADD13C,0.800000*%
%TD*%
%TA.AperFunction,Conductor*%
%ADD14C,0.800000*%
%TD*%
%TA.AperFunction,Conductor*%
%ADD15C,0.400000*%
%TD*%
G04 APERTURE END LIST*
D10*
%TO.P,D2,1,K*%
%TO.N,GND*%
X165500000Y-67460000D03*
%TO.P,D2,2,A*%
%TO.N,LED2*%
X163450000Y-67460000D03*
%TD*%
D11*
%TO.P,U2,1,GND*%
%TO.N,GND*%
X177250000Y-66190000D03*
%TO.P,U2,2,SCL*%
%TO.N,SCL*%
X177250000Y-68730000D03*
%TO.P,U2,3,SDA*%
%TO.N,SDA*%
X177250000Y-71270000D03*
%TO.P,U2,4,VIN*%
%TO.N,/3.3V*%
X177250000Y-73810000D03*
%TO.P,U2,5,GND*%
%TO.N,unconnected-(U2-GND-Pad5)*%
X192750000Y-73810000D03*
%TO.P,U2,6,RD*%
%TO.N,unconnected-(U2-RD-Pad6)*%
X192750000Y-71270000D03*
%TO.P,U2,7,IRD*%
%TO.N,unconnected-(U2-IRD-Pad7)*%
X192750000Y-68730000D03*
%TO.P,U2,8,INT*%
%TO.N,unconnected-(U2-INT-Pad8)*%
X192750000Y-66190000D03*
%TD*%
D12*
%TO.P,U1,1,A5/MISO*%
%TO.N,unconnected-(U1-A5{slash}MISO-Pad1)*%
X132430000Y-79000000D03*
%TO.P,U1,2,MOSI*%
%TO.N,unconnected-(U1-MOSI-Pad2)*%
X134970000Y-79000000D03*
%TO.P,U1,3,SS*%
%TO.N,unconnected-(U1-SS-Pad3)*%
X137510000Y-79000000D03*
%TO.P,U1,4,SDA*%
%TO.N,SDA*%
X140050000Y-79000000D03*
%TO.P,U1,5,SCL*%
%TO.N,SCL*%
X142590000Y-79000000D03*
%TO.P,U1,6,10*%
%TO.N,unconnected-(U1-10-Pad6)*%
X145130000Y-79000000D03*
%TO.P,U1,7,RX*%
%TO.N,unconnected-(U1-RX-Pad7)*%
X147670000Y-79000000D03*
%TO.P,U1,8,TX*%
%TO.N,unconnected-(U1-TX-Pad8)*%
X150210000Y-79000000D03*
%TO.P,U1,9,A0*%
%TO.N,LED1*%
X150210000Y-61000000D03*
%TO.P,U1,10,A1*%
%TO.N,LED2*%
X147670000Y-61000000D03*
%TO.P,U1,11,A2*%
%TO.N,LED3*%
X145130000Y-61000000D03*
%TO.P,U1,12,A3*%
%TO.N,LED4*%
X142590000Y-61000000D03*
%TO.P,U1,13,A4/SCL*%
%TO.N,LED5*%
X140050000Y-61000000D03*
%TO.P,U1,14,3.3V*%
%TO.N,/3.3V*%
X137510000Y-61000000D03*
%TO.P,U1,15,GND*%
%TO.N,GND*%
X134970000Y-61000000D03*
%TO.P,U1,16,5V*%
%TO.N,VDD*%
X132430000Y-61000000D03*
%TD*%
D10*
%TO.P,D1,1,K*%
%TO.N,GND*%
X165500000Y-64920000D03*
%TO.P,D1,2,A*%
%TO.N,LED1*%
X163450000Y-64920000D03*
%TD*%
%TO.P,D4,1,K*%
%TO.N,GND*%
X165500000Y-72540000D03*
%TO.P,D4,2,A*%
%TO.N,LED4*%
X163450000Y-72540000D03*
%TD*%
%TO.P,D5,1,K*%
%TO.N,GND*%
X165500000Y-75080000D03*
%TO.P,D5,2,A*%
%TO.N,LED5*%
X163450000Y-75080000D03*
%TD*%
%TO.P,D3,1,K*%
%TO.N,GND*%
X165500000Y-70000000D03*
%TO.P,D3,2,A*%
%TO.N,LED3*%
X163450000Y-70000000D03*
%TD*%
D13*
%TO.N,GND*%
X143500000Y-75000000D03*
X174250000Y-59750000D03*
%TO.N,VDD*%
X154500000Y-54750000D03*
%TO.N,SCL*%
X153000000Y-83000000D03*
X153000000Y-86500000D03*
%TO.N,/3.3V*%
X146550000Y-72500000D03*
X176000000Y-76500000D03*
%TD*%
D14*
%TO.N,GND*%
X167750000Y-59750000D02*
X165500000Y-62000000D01*
D15*
X165500000Y-75080000D02*
X165500000Y-72540000D01*
D14*
X143500000Y-75000000D02*
X137000000Y-75000000D01*
X137000000Y-75000000D02*
X134970000Y-72970000D01*
X174250000Y-59750000D02*
X175750000Y-59750000D01*
X165500000Y-62000000D02*
X165500000Y-64920000D01*
D15*
X165500000Y-70000000D02*
X165500000Y-67460000D01*
D14*
X175750000Y-59750000D02*
X177250000Y-61250000D01*
X177250000Y-61250000D02*
X177250000Y-66190000D01*
D15*
X165500000Y-72540000D02*
X165500000Y-70000000D01*
D14*
X174250000Y-59750000D02*
X167750000Y-59750000D01*
D15*
X165500000Y-67460000D02*
X165500000Y-64920000D01*
D14*
X134970000Y-72970000D02*
X134970000Y-61000000D01*
D15*
%TO.N,LED1*%
X150210000Y-61000000D02*
X159530000Y-61000000D01*
X159530000Y-61000000D02*
X163450000Y-64920000D01*
%TO.N,LED2*%
X147670000Y-61000000D02*
X147670000Y-62165000D01*
X147670000Y-62165000D02*
X148505000Y-63000000D01*
X158500000Y-63000000D02*
X162960000Y-67460000D01*
X162960000Y-67460000D02*
X163450000Y-67460000D01*
X148505000Y-63000000D02*
X158500000Y-63000000D01*
%TO.N,LED3*%
X158450000Y-65000000D02*
X163450000Y-70000000D01*
X145130000Y-62630000D02*
X147500000Y-65000000D01*
X147500000Y-65000000D02*
X158450000Y-65000000D01*
X145130000Y-61000000D02*
X145130000Y-62630000D01*
%TO.N,LED4*%
X142590000Y-62590000D02*
X146500000Y-66500000D01*
X142590000Y-61000000D02*
X142590000Y-62590000D01*
X146500000Y-66500000D02*
X157410000Y-66500000D01*
X157410000Y-66500000D02*
X163450000Y-72540000D01*
%TO.N,LED5*%
X156000000Y-68500000D02*
X162580000Y-75080000D01*
X146000000Y-68500000D02*
X156000000Y-68500000D01*
X162580000Y-75080000D02*
X163450000Y-75080000D01*
X140050000Y-62550000D02*
X146000000Y-68500000D01*
X140050000Y-61000000D02*
X140050000Y-62550000D01*
D14*
%TO.N,VDD*%
X132430000Y-59100000D02*
X132430000Y-61000000D01*
X154375000Y-54625000D02*
X136905000Y-54625000D01*
X136905000Y-54625000D02*
X132430000Y-59100000D01*
X154500000Y-54750000D02*
X154375000Y-54625000D01*
%TO.N,SDA*%
X179270000Y-71270000D02*
X177250000Y-71270000D01*
X143850000Y-84700000D02*
X175300000Y-84700000D01*
X140050000Y-79000000D02*
X140050000Y-80900000D01*
X180000000Y-72000000D02*
X179270000Y-71270000D01*
X180000000Y-80000000D02*
X180000000Y-72000000D01*
X175300000Y-84700000D02*
X180000000Y-80000000D01*
X140050000Y-80900000D02*
X143850000Y-84700000D01*
%TO.N,SCL*%
X179730000Y-68730000D02*
X177250000Y-68730000D01*
X142590000Y-80900000D02*
X144690000Y-83000000D01*
X142590000Y-79000000D02*
X142590000Y-80900000D01*
X181500000Y-70500000D02*
X179730000Y-68730000D01*
X181500000Y-81500000D02*
X181500000Y-70500000D01*
X144690000Y-83000000D02*
X153000000Y-83000000D01*
X153000000Y-86500000D02*
X176500000Y-86500000D01*
X176500000Y-86500000D02*
X181500000Y-81500000D01*
%TO.N,/3.3V*%
X177250000Y-76250000D02*
X177250000Y-73810000D01*
X176000000Y-76500000D02*
X177000000Y-76500000D01*
X177000000Y-76500000D02*
X177250000Y-76250000D01*
X146550000Y-72500000D02*
X138500000Y-72500000D01*
X138500000Y-72500000D02*
X137510000Y-71510000D01*
X137510000Y-71510000D02*
X137510000Y-61000000D01*
%TD*%
%TA.AperFunction,Conductor*%
%TO.N,GND*%
G36*
X192539365Y-50269707D02*
G01*
X192542018Y-50271009D01*
X193940670Y-50970335D01*
X194009084Y-51026575D01*
X194029665Y-51059330D01*
X194341092Y-51682183D01*
X194373149Y-51746297D01*
X194419686Y-51839371D01*
X194419689Y-51839377D01*
X194548568Y-52097135D01*
X194708115Y-52416229D01*
X194728991Y-52457982D01*
X194749978Y-52544023D01*
X194750000Y-52546978D01*
X194750000Y-64718914D01*
X194730293Y-64805257D01*
X194675074Y-64874498D01*
X194595282Y-64912925D01*
X194506718Y-64912925D01*
X194426926Y-64874498D01*
X194410286Y-64859628D01*
X194285187Y-64734529D01*
X194139605Y-64646521D01*
X193977197Y-64595914D01*
X193977193Y-64595913D01*
X193914453Y-64590212D01*
X193906616Y-64589500D01*
X191593384Y-64589500D01*
X191586329Y-64590141D01*
X191522806Y-64595913D01*
X191522802Y-64595914D01*
X191360394Y-64646521D01*
X191214812Y-64734529D01*
X191094529Y-64854812D01*
X191006521Y-65000394D01*
X190955914Y-65162802D01*
X190955913Y-65162806D01*
X190949500Y-65233385D01*
X190949500Y-67146614D01*
X190955913Y-67217193D01*
X190955914Y-67217197D01*
X191010103Y-67391099D01*
X191008608Y-67391564D01*
X191023411Y-67465155D01*
X191008943Y-67528539D01*
X191010103Y-67528901D01*
X190955914Y-67702802D01*
X190955913Y-67702806D01*
X190949500Y-67773385D01*
X190949500Y-69686614D01*
X190955913Y-69757193D01*
X190955914Y-69757197D01*
X191010103Y-69931099D01*
X191008608Y-69931564D01*
X191023411Y-70005155D01*
X191008943Y-70068539D01*
X191010103Y-70068901D01*
X190955914Y-70242802D01*
X190955913Y-70242806D01*
X190950141Y-70306329D01*
X190949500Y-70313384D01*
X190949500Y-72226616D01*
X190949529Y-72226930D01*
X190955913Y-72297193D01*
X190955914Y-72297197D01*
X191010103Y-72471099D01*
X191008608Y-72471564D01*
X191023411Y-72545155D01*
X191008943Y-72608539D01*
X191010103Y-72608901D01*
X190955914Y-72782802D01*
X190955913Y-72782806D01*
X190949500Y-72853385D01*
X190949500Y-74766614D01*
X190955913Y-74837193D01*
X190955914Y-74837197D01*
X191006521Y-74999605D01*
X191094529Y-75145187D01*
X191214812Y-75265470D01*
X191214814Y-75265471D01*
X191214815Y-75265472D01*
X191360394Y-75353478D01*
X191522804Y-75404086D01*
X191593384Y-75410500D01*
X191593385Y-75410500D01*
X193906615Y-75410500D01*
X193906616Y-75410500D01*
X193977196Y-75404086D01*
X194139606Y-75353478D01*
X194285185Y-75265472D01*
X194308004Y-75242653D01*
X194410286Y-75140372D01*
X194485274Y-75093253D01*
X194573281Y-75083337D01*
X194656874Y-75112588D01*
X194719498Y-75175212D01*
X194748749Y-75258805D01*
X194750000Y-75281086D01*
X194750000Y-87453022D01*
X194730293Y-87539365D01*
X194728991Y-87542018D01*
X194716854Y-87566293D01*
X194713299Y-87573403D01*
X194707936Y-87584129D01*
X194707467Y-87585067D01*
X194029665Y-88940670D01*
X193973425Y-89009084D01*
X193940670Y-89029665D01*
X192542018Y-89728991D01*
X192455977Y-89749978D01*
X192453022Y-89750000D01*
X132546978Y-89750000D01*
X132460635Y-89730293D01*
X132457982Y-89728991D01*
X131059330Y-89029665D01*
X130990916Y-88973425D01*
X130970335Y-88940670D01*
X130292534Y-87585067D01*
X130292065Y-87584129D01*
X130286702Y-87573403D01*
X130283147Y-87566293D01*
X130271009Y-87542018D01*
X130250022Y-87455977D01*
X130250000Y-87453022D01*
X130250000Y-77843385D01*
X130829500Y-77843385D01*
X130829500Y-80156614D01*
X130835913Y-80227193D01*
X130835914Y-80227197D01*
X130886521Y-80389605D01*
X130974529Y-80535187D01*
X131094812Y-80655470D01*
X131094814Y-80655471D01*
X131094815Y-80655472D01*
X131240394Y-80743478D01*
X131402804Y-80794086D01*
X131473384Y-80800500D01*
X131473385Y-80800500D01*
X133386615Y-80800500D01*
X133386616Y-80800500D01*
X133457196Y-80794086D01*
X133619606Y-80743478D01*
X133619608Y-80743476D01*
X133631099Y-80739896D01*
X133631565Y-80741391D01*
X133705138Y-80726586D01*
X133768539Y-80741057D01*
X133768901Y-80739896D01*
X133780391Y-80743476D01*
X133780394Y-80743478D01*
X133942804Y-80794086D01*
X134013384Y-80800500D01*
X134013385Y-80800500D01*
X135926615Y-80800500D01*
X135926616Y-80800500D01*
X135997196Y-80794086D01*
X136159606Y-80743478D01*
X136159608Y-80743476D01*
X136171099Y-80739896D01*
X136171565Y-80741391D01*
X136245138Y-80726586D01*
X136308539Y-80741057D01*
X136308901Y-80739896D01*
X136320391Y-80743476D01*
X136320394Y-80743478D01*
X136482804Y-80794086D01*
X136553384Y-80800500D01*
X136553385Y-80800500D01*
X138466615Y-80800500D01*
X138466616Y-80800500D01*
X138537196Y-80794086D01*
X138691301Y-80746065D01*
X138779594Y-80739194D01*
X138862128Y-80771313D01*
X138922552Y-80836061D01*
X138948900Y-80920614D01*
X138949500Y-80936056D01*
X138949500Y-80986610D01*
X138976596Y-81157693D01*
X138976599Y-81157705D01*
X139030125Y-81322441D01*
X139030126Y-81322444D01*
X139108769Y-81476790D01*
X139108770Y-81476792D01*
X139210581Y-81616923D01*
X139210587Y-81616930D01*
X143010586Y-85416928D01*
X143133072Y-85539414D01*
X143133076Y-85539418D01*
X143273207Y-85641229D01*
X143273213Y-85641233D01*
X143311195Y-85660585D01*
X143311196Y-85660586D01*
X143427553Y-85719872D01*
X143427555Y-85719873D01*
X143592300Y-85773403D01*
X143736289Y-85796207D01*
X143736290Y-85796208D01*
X143736291Y-85796208D01*
X143756918Y-85799475D01*
X143763389Y-85800500D01*
X143763390Y-85800500D01*
X143936611Y-85800500D01*
X151797063Y-85800500D01*
X151883406Y-85820207D01*
X151952647Y-85875426D01*
X151991074Y-85955218D01*
X151991074Y-86043782D01*
X151980892Y-86075710D01*
X151978582Y-86081282D01*
X151972898Y-86093758D01*
X151969422Y-86100739D01*
X151969416Y-86100753D01*
X151948075Y-86175759D01*
X151945933Y-86182790D01*
X151926597Y-86242300D01*
X151925273Y-86250664D01*
X151920126Y-86273990D01*
X151913603Y-86296914D01*
X151908071Y-86356608D01*
X151906471Y-86369366D01*
X151899500Y-86413389D01*
X151899500Y-86439916D01*
X151898651Y-86458277D01*
X151894785Y-86499998D01*
X151894785Y-86499999D01*
X151898651Y-86541720D01*
X151899500Y-86560082D01*
X151899500Y-86586608D01*
X151906469Y-86630617D01*
X151908069Y-86643376D01*
X151913603Y-86703082D01*
X151913603Y-86703083D01*
X151920127Y-86726011D01*
X151925274Y-86749343D01*
X151926596Y-86757691D01*
X151926600Y-86757709D01*
X151945935Y-86817215D01*
X151948075Y-86824238D01*
X151969418Y-86899250D01*
X151969419Y-86899252D01*
X151969420Y-86899255D01*
X151972892Y-86906228D01*
X151978602Y-86918763D01*
X151980125Y-86922441D01*
X152016693Y-86994211D01*
X152017519Y-86995851D01*
X152060327Y-87081822D01*
X152114561Y-87153638D01*
X152116750Y-87156593D01*
X152160586Y-87216928D01*
X152165663Y-87222872D01*
X152165528Y-87222986D01*
X152176128Y-87235167D01*
X152183236Y-87244579D01*
X152183238Y-87244581D01*
X152183239Y-87244582D01*
X152236425Y-87293068D01*
X152243073Y-87299416D01*
X152283066Y-87339409D01*
X152283069Y-87339411D01*
X152283072Y-87339414D01*
X152294800Y-87347935D01*
X152311883Y-87361856D01*
X152333959Y-87381981D01*
X152379807Y-87410368D01*
X152392022Y-87418571D01*
X152423206Y-87441228D01*
X152423209Y-87441230D01*
X152423212Y-87441232D01*
X152452209Y-87456006D01*
X152466615Y-87464118D01*
X152507359Y-87489346D01*
X152507361Y-87489346D01*
X152507363Y-87489348D01*
X152540834Y-87502314D01*
X152559284Y-87510563D01*
X152577555Y-87519873D01*
X152625672Y-87535507D01*
X152636025Y-87539191D01*
X152697544Y-87563024D01*
X152715034Y-87566293D01*
X152739980Y-87572648D01*
X152742299Y-87573402D01*
X152742302Y-87573402D01*
X152742304Y-87573403D01*
X152789887Y-87580939D01*
X152810035Y-87584130D01*
X152815451Y-87585064D01*
X152898024Y-87600500D01*
X152898026Y-87600500D01*
X176586611Y-87600500D01*
X176757701Y-87573402D01*
X176922445Y-87519873D01*
X177076788Y-87441232D01*
X177158340Y-87381981D01*
X177216923Y-87339418D01*
X177216930Y-87339412D01*
X182339412Y-82216930D01*
X182339418Y-82216923D01*
X182431906Y-82089624D01*
X182441232Y-82076788D01*
X182519873Y-81922445D01*
X182573402Y-81757701D01*
X182600500Y-81586611D01*
X182600500Y-81413389D01*
X182600500Y-70413389D01*
X182573402Y-70242299D01*
X182519873Y-70077555D01*
X182441232Y-69923212D01*
X182441230Y-69923209D01*
X182441229Y-69923207D01*
X182339418Y-69783076D01*
X182306342Y-69750000D01*
X182216928Y-69660586D01*
X181393614Y-68837272D01*
X180446930Y-67890587D01*
X180446923Y-67890581D01*
X180306792Y-67788770D01*
X180306790Y-67788769D01*
X180152444Y-67710126D01*
X180152441Y-67710125D01*
X179987705Y-67656599D01*
X179987693Y-67656596D01*
X179816611Y-67629500D01*
X179159581Y-67629500D01*
X179073238Y-67609793D01*
X179003997Y-67554574D01*
X178989281Y-67533451D01*
X178905470Y-67394812D01*
X178896160Y-67385502D01*
X178849041Y-67310514D01*
X178839125Y-67222507D01*
X178843211Y-67199011D01*
X178843598Y-67197373D01*
X178850000Y-67137822D01*
X178850000Y-65242177D01*
X178843598Y-65182627D01*
X178843596Y-65182621D01*
X178793352Y-65047911D01*
X178793352Y-65047910D01*
X178772926Y-65020625D01*
X177390713Y-66402838D01*
X177315724Y-66449957D01*
X177227718Y-66459873D01*
X177144125Y-66430622D01*
X177109285Y-66402838D01*
X175727072Y-65020625D01*
X175727071Y-65020625D01*
X175706646Y-65047912D01*
X175706644Y-65047914D01*
X175656403Y-65182618D01*
X175656401Y-65182627D01*
X175650000Y-65242177D01*
X175650000Y-67137822D01*
X175656402Y-67197378D01*
X175656793Y-67199031D01*
X175656809Y-67201161D01*
X175657733Y-67209754D01*
X175656875Y-67209846D01*
X175657467Y-67287592D01*
X175619650Y-67367675D01*
X175603843Y-67385499D01*
X175594527Y-67394815D01*
X175506521Y-67540394D01*
X175455914Y-67702802D01*
X175455913Y-67702806D01*
X175449500Y-67773385D01*
X175449500Y-69686614D01*
X175455913Y-69757193D01*
X175455914Y-69757197D01*
X175510103Y-69931099D01*
X175508608Y-69931564D01*
X175523411Y-70005155D01*
X175508943Y-70068539D01*
X175510103Y-70068901D01*
X175455914Y-70242802D01*
X175455913Y-70242806D01*
X175450141Y-70306329D01*
X175449500Y-70313384D01*
X175449500Y-72226616D01*
X175449529Y-72226930D01*
X175455913Y-72297193D01*
X175455914Y-72297197D01*
X175510103Y-72471099D01*
X175508608Y-72471564D01*
X175523411Y-72545155D01*
X175508943Y-72608539D01*
X175510103Y-72608901D01*
X175455914Y-72782802D01*
X175455913Y-72782806D01*
X175449500Y-72853385D01*
X175449500Y-74766614D01*
X175455913Y-74837193D01*
X175455914Y-74837197D01*
X175506521Y-74999605D01*
X175594529Y-75145187D01*
X175617007Y-75167665D01*
X175664126Y-75242653D01*
X175674042Y-75330660D01*
X175644791Y-75414253D01*
X175582167Y-75476877D01*
X175566617Y-75485699D01*
X175559265Y-75489444D01*
X175540835Y-75497683D01*
X175507365Y-75510650D01*
X175507356Y-75510654D01*
X175466611Y-75535882D01*
X175452208Y-75543992D01*
X175423217Y-75558765D01*
X175423208Y-75558770D01*
X175392019Y-75581430D01*
X175379816Y-75589624D01*
X175333960Y-75618017D01*
X175333959Y-75618018D01*
X175311881Y-75638144D01*
X175294802Y-75652062D01*
X175283072Y-75660585D01*
X175243070Y-75700586D01*
X175236427Y-75706930D01*
X175183234Y-75755422D01*
X175183225Y-75755432D01*
X175176122Y-75764838D01*
X175165534Y-75777008D01*
X175165667Y-75777122D01*
X175160590Y-75783066D01*
X175116761Y-75843390D01*
X175114576Y-75846339D01*
X175060329Y-75918175D01*
X175060328Y-75918176D01*
X175047268Y-75944405D01*
X175020409Y-75998346D01*
X175017541Y-76004105D01*
X175016716Y-76005744D01*
X174980120Y-76077568D01*
X174978594Y-76081253D01*
X174972898Y-76093758D01*
X174969422Y-76100739D01*
X174969416Y-76100753D01*
X174948075Y-76175759D01*
X174945933Y-76182790D01*
X174926597Y-76242300D01*
X174925273Y-76250664D01*
X174920126Y-76273990D01*
X174913603Y-76296914D01*
X174908071Y-76356608D01*
X174906471Y-76369366D01*
X174899500Y-76413389D01*
X174899500Y-76439916D01*
X174898651Y-76458277D01*
X174894785Y-76499998D01*
X174894785Y-76499999D01*
X174898651Y-76541720D01*
X174899500Y-76560082D01*
X174899500Y-76586608D01*
X174906469Y-76630617D01*
X174908069Y-76643376D01*
X174913603Y-76703082D01*
X174913603Y-76703083D01*
X174920127Y-76726011D01*
X174925274Y-76749343D01*
X174926596Y-76757691D01*
X174926600Y-76757709D01*
X174945935Y-76817215D01*
X174948075Y-76824238D01*
X174969418Y-76899250D01*
X174969419Y-76899252D01*
X174969420Y-76899255D01*
X174972892Y-76906228D01*
X174978602Y-76918763D01*
X174980125Y-76922441D01*
X175016693Y-76994211D01*
X175017519Y-76995851D01*
X175060327Y-77081822D01*
X175114561Y-77153638D01*
X175116750Y-77156593D01*
X175160586Y-77216928D01*
X175165663Y-77222872D01*
X175165528Y-77222986D01*
X175176128Y-77235167D01*
X175183236Y-77244579D01*
X175183238Y-77244581D01*
X175183239Y-77244582D01*
X175236425Y-77293068D01*
X175243073Y-77299416D01*
X175283066Y-77339409D01*
X175283069Y-77339411D01*
X175283072Y-77339414D01*
X175294800Y-77347935D01*
X175311883Y-77361856D01*
X175333959Y-77381981D01*
X175379807Y-77410368D01*
X175392022Y-77418571D01*
X175423206Y-77441228D01*
X175423209Y-77441230D01*
X175423212Y-77441232D01*
X175452209Y-77456006D01*
X175466611Y-77464115D01*
X175479285Y-77471963D01*
X175507359Y-77489346D01*
X175507361Y-77489346D01*
X175507363Y-77489348D01*
X175540834Y-77502314D01*
X175559284Y-77510563D01*
X175577555Y-77519873D01*
X175625672Y-77535507D01*
X175636025Y-77539191D01*
X175697544Y-77563024D01*
X175715034Y-77566293D01*
X175739980Y-77572648D01*
X175742299Y-77573402D01*
X175742302Y-77573402D01*
X175742304Y-77573403D01*
X175789887Y-77580939D01*
X175810035Y-77584130D01*
X175815451Y-77585064D01*
X175898024Y-77600500D01*
X175898026Y-77600500D01*
X177086611Y-77600500D01*
X177257701Y-77573402D01*
X177422445Y-77519873D01*
X177576788Y-77441232D01*
X177658340Y-77381981D01*
X177716923Y-77339418D01*
X177716930Y-77339412D01*
X178089412Y-76966930D01*
X178089418Y-76966923D01*
X178191231Y-76826789D01*
X178194327Y-76820713D01*
X178269873Y-76672446D01*
X178323402Y-76507701D01*
X178350500Y-76336611D01*
X178350500Y-76163390D01*
X178350500Y-75589993D01*
X178370207Y-75503650D01*
X178425426Y-75434409D01*
X178490299Y-75400003D01*
X178641299Y-75352951D01*
X178729595Y-75346079D01*
X178812129Y-75378199D01*
X178872553Y-75442947D01*
X178898900Y-75527501D01*
X178899500Y-75542941D01*
X178899500Y-79461730D01*
X178879793Y-79548073D01*
X178841214Y-79602444D01*
X174902444Y-83541214D01*
X174827456Y-83588333D01*
X174761730Y-83599500D01*
X154237124Y-83599500D01*
X154150781Y-83579793D01*
X154081540Y-83524574D01*
X154043113Y-83444782D01*
X154043113Y-83356218D01*
X154045720Y-83346045D01*
X154051921Y-83324249D01*
X154054057Y-83317233D01*
X154073402Y-83257701D01*
X154074725Y-83249339D01*
X154079873Y-83226007D01*
X154086397Y-83203083D01*
X154091928Y-83143381D01*
X154093524Y-83130654D01*
X154100500Y-83086611D01*
X154100500Y-83060082D01*
X154101349Y-83041720D01*
X154105215Y-82999999D01*
X154105215Y-82999998D01*
X154101349Y-82958277D01*
X154100500Y-82939916D01*
X154100500Y-82913391D01*
X154100500Y-82913389D01*
X154093525Y-82869353D01*
X154091927Y-82856601D01*
X154086397Y-82796917D01*
X154079873Y-82773989D01*
X154074725Y-82750656D01*
X154073402Y-82742299D01*
X154054063Y-82682782D01*
X154051918Y-82675741D01*
X154030582Y-82600751D01*
X154027112Y-82593782D01*
X154021394Y-82581227D01*
X154019871Y-82577550D01*
X153983328Y-82505832D01*
X153982499Y-82504187D01*
X153939673Y-82418179D01*
X153885417Y-82346334D01*
X153883293Y-82343467D01*
X153839414Y-82283072D01*
X153839411Y-82283069D01*
X153839409Y-82283066D01*
X153834337Y-82277128D01*
X153834471Y-82277013D01*
X153823862Y-82264821D01*
X153816763Y-82255420D01*
X153763574Y-82206932D01*
X153756945Y-82200603D01*
X153716928Y-82160586D01*
X153716927Y-82160585D01*
X153716925Y-82160583D01*
X153705205Y-82152068D01*
X153688112Y-82138139D01*
X153666042Y-82118020D01*
X153666037Y-82118016D01*
X153620182Y-82089624D01*
X153607972Y-82081425D01*
X153576784Y-82058765D01*
X153576779Y-82058762D01*
X153547792Y-82043993D01*
X153533393Y-82035886D01*
X153492637Y-82010652D01*
X153492632Y-82010650D01*
X153492630Y-82010649D01*
X153459159Y-81997681D01*
X153440716Y-81989436D01*
X153422440Y-81980124D01*
X153422437Y-81980123D01*
X153374358Y-81964502D01*
X153363986Y-81960812D01*
X153302456Y-81936976D01*
X153284942Y-81933702D01*
X153260027Y-81927353D01*
X153257701Y-81926598D01*
X153257698Y-81926597D01*
X153189940Y-81915865D01*
X153184510Y-81914927D01*
X153101979Y-81899500D01*
X153101976Y-81899500D01*
X153086611Y-81899500D01*
X145228270Y-81899500D01*
X145141927Y-81879793D01*
X145087556Y-81841214D01*
X144386556Y-81140214D01*
X144339437Y-81065226D01*
X144329521Y-80977219D01*
X144358772Y-80893626D01*
X144421396Y-80831002D01*
X144504989Y-80801751D01*
X144527270Y-80800500D01*
X146086615Y-80800500D01*
X146086616Y-80800500D01*
X146157196Y-80794086D01*
X146319606Y-80743478D01*
X146319608Y-80743476D01*
X146331099Y-80739896D01*
X146331565Y-80741391D01*
X146405138Y-80726586D01*
X146468539Y-80741057D01*
X146468901Y-80739896D01*
X146480391Y-80743476D01*
X146480394Y-80743478D01*
X146642804Y-80794086D01*
X146713384Y-80800500D01*
X146713385Y-80800500D01*
X148626615Y-80800500D01*
X148626616Y-80800500D01*
X148697196Y-80794086D01*
X148859606Y-80743478D01*
X148859608Y-80743476D01*
X148871099Y-80739896D01*
X148871565Y-80741391D01*
X148945138Y-80726586D01*
X149008539Y-80741057D01*
X149008901Y-80739896D01*
X149020391Y-80743476D01*
X149020394Y-80743478D01*
X149182804Y-80794086D01*
X149253384Y-80800500D01*
X149253385Y-80800500D01*
X151166615Y-80800500D01*
X151166616Y-80800500D01*
X151237196Y-80794086D01*
X151399606Y-80743478D01*
X151545185Y-80655472D01*
X151665472Y-80535185D01*
X151753478Y-80389606D01*
X151804086Y-80227196D01*
X151810500Y-80156616D01*
X151810500Y-77843384D01*
X151804086Y-77772804D01*
X151753478Y-77610394D01*
X151665472Y-77464815D01*
X151665471Y-77464814D01*
X151665470Y-77464812D01*
X151545187Y-77344529D01*
X151399605Y-77256521D01*
X151237197Y-77205914D01*
X151237193Y-77205913D01*
X151174453Y-77200212D01*
X151166616Y-77199500D01*
X149253384Y-77199500D01*
X149246329Y-77200141D01*
X149182806Y-77205913D01*
X149182802Y-77205914D01*
X149008901Y-77260103D01*
X149008435Y-77258608D01*
X148934845Y-77273411D01*
X148871460Y-77258943D01*
X148871099Y-77260103D01*
X148697197Y-77205914D01*
X148697193Y-77205913D01*
X148634453Y-77200212D01*
X148626616Y-77199500D01*
X146713384Y-77199500D01*
X146706329Y-77200141D01*
X146642806Y-77205913D01*
X146642802Y-77205914D01*
X146468901Y-77260103D01*
X146468435Y-77258608D01*
X146394845Y-77273411D01*
X146331460Y-77258943D01*
X146331099Y-77260103D01*
X146157197Y-77205914D01*
X146157193Y-77205913D01*
X146094453Y-77200212D01*
X146086616Y-77199500D01*
X144173384Y-77199500D01*
X144166329Y-77200141D01*
X144102806Y-77205913D01*
X144102802Y-77205914D01*
X143928901Y-77260103D01*
X143928435Y-77258608D01*
X143854845Y-77273411D01*
X143791460Y-77258943D01*
X143791099Y-77260103D01*
X143617197Y-77205914D01*
X143617193Y-77205913D01*
X143554453Y-77200212D01*
X143546616Y-77199500D01*
X141633384Y-77199500D01*
X141626329Y-77200141D01*
X141562806Y-77205913D01*
X141562802Y-77205914D01*
X141388901Y-77260103D01*
X141388435Y-77258608D01*
X141314845Y-77273411D01*
X141251460Y-77258943D01*
X141251099Y-77260103D01*
X141077197Y-77205914D01*
X141077193Y-77205913D01*
X141014453Y-77200212D01*
X141006616Y-77199500D01*
X139093384Y-77199500D01*
X139086329Y-77200141D01*
X139022806Y-77205913D01*
X139022802Y-77205914D01*
X138848901Y-77260103D01*
X138848435Y-77258608D01*
X138774845Y-77273411D01*
X138711460Y-77258943D01*
X138711099Y-77260103D01*
X138537197Y-77205914D01*
X138537193Y-77205913D01*
X138474453Y-77200212D01*
X138466616Y-77199500D01*
X136553384Y-77199500D01*
X136546329Y-77200141D01*
X136482806Y-77205913D01*
X136482802Y-77205914D01*
X136308901Y-77260103D01*
X136308435Y-77258608D01*
X136234845Y-77273411D01*
X136171460Y-77258943D01*
X136171099Y-77260103D01*
X135997197Y-77205914D01*
X135997193Y-77205913D01*
X135934453Y-77200212D01*
X135926616Y-77199500D01*
X134013384Y-77199500D01*
X134006329Y-77200141D01*
X133942806Y-77205913D01*
X133942802Y-77205914D01*
X133768901Y-77260103D01*
X133768435Y-77258608D01*
X133694845Y-77273411D01*
X133631460Y-77258943D01*
X133631099Y-77260103D01*
X133457197Y-77205914D01*
X133457193Y-77205913D01*
X133394453Y-77200212D01*
X133386616Y-77199500D01*
X131473384Y-77199500D01*
X131466329Y-77200141D01*
X131402806Y-77205913D01*
X131402802Y-77205914D01*
X131240394Y-77256521D01*
X131094812Y-77344529D01*
X130974529Y-77464812D01*
X130886521Y-77610394D01*
X130835914Y-77772802D01*
X130835913Y-77772806D01*
X130829500Y-77843385D01*
X130250000Y-77843385D01*
X130250000Y-59843385D01*
X130829500Y-59843385D01*
X130829500Y-62156614D01*
X130835913Y-62227193D01*
X130835914Y-62227197D01*
X130886521Y-62389605D01*
X130974529Y-62535187D01*
X131094812Y-62655470D01*
X131094814Y-62655471D01*
X131094815Y-62655472D01*
X131240394Y-62743478D01*
X131402804Y-62794086D01*
X131473384Y-62800500D01*
X131473385Y-62800500D01*
X133386615Y-62800500D01*
X133386616Y-62800500D01*
X133457196Y-62794086D01*
X133619606Y-62743478D01*
X133765185Y-62655472D01*
X133774494Y-62646162D01*
X133849479Y-62599043D01*
X133937485Y-62589125D01*
X133960981Y-62593209D01*
X133962627Y-62593598D01*
X134022177Y-62600000D01*
X135917823Y-62600000D01*
X135977373Y-62593598D01*
X135979011Y-62593211D01*
X135981125Y-62593194D01*
X135989755Y-62592267D01*
X135989847Y-62593127D01*
X136067571Y-62592527D01*
X136147658Y-62630337D01*
X136165502Y-62646160D01*
X136174811Y-62655469D01*
X136174813Y-62655470D01*
X136174815Y-62655472D01*
X136313453Y-62739282D01*
X136377145Y-62800813D01*
X136407835Y-62883889D01*
X136409500Y-62909580D01*
X136409500Y-71596610D01*
X136436596Y-71767693D01*
X136436599Y-71767705D01*
X136490125Y-71932441D01*
X136490126Y-71932444D01*
X136568769Y-72086790D01*
X136568770Y-72086792D01*
X136670581Y-72226923D01*
X136670587Y-72226930D01*
X137783069Y-73339412D01*
X137783076Y-73339418D01*
X137923210Y-73441231D01*
X137923212Y-73441232D01*
X138077554Y-73519873D01*
X138242299Y-73573402D01*
X138242304Y-73573402D01*
X138242305Y-73573403D01*
X138312773Y-73584564D01*
X138413389Y-73600500D01*
X146651974Y-73600500D01*
X146651976Y-73600500D01*
X146734609Y-73585052D01*
X146739846Y-73584148D01*
X146807701Y-73573402D01*
X146810009Y-73572651D01*
X146834940Y-73566297D01*
X146852456Y-73563024D01*
X146913977Y-73539190D01*
X146924343Y-73535502D01*
X146972445Y-73519873D01*
X146990713Y-73510564D01*
X147009179Y-73502309D01*
X147042637Y-73489348D01*
X147083383Y-73464118D01*
X147097794Y-73456004D01*
X147126788Y-73441232D01*
X147157989Y-73418561D01*
X147170166Y-73410383D01*
X147216041Y-73381981D01*
X147238120Y-73361851D01*
X147255211Y-73347926D01*
X147266928Y-73339414D01*
X147306932Y-73299408D01*
X147313558Y-73293080D01*
X147366764Y-73244579D01*
X147373854Y-73235188D01*
X147384465Y-73222996D01*
X147384330Y-73222881D01*
X147389409Y-73216932D01*
X147389414Y-73216928D01*
X147433274Y-73156557D01*
X147435388Y-73153704D01*
X147489673Y-73081821D01*
X147532554Y-72995700D01*
X147533228Y-72994362D01*
X147569873Y-72922445D01*
X147569878Y-72922427D01*
X147571379Y-72918807D01*
X147577111Y-72906220D01*
X147580582Y-72899250D01*
X147601933Y-72824206D01*
X147604057Y-72817233D01*
X147623402Y-72757701D01*
X147624725Y-72749339D01*
X147629873Y-72726007D01*
X147636397Y-72703083D01*
X147641928Y-72643381D01*
X147643524Y-72630654D01*
X147650500Y-72586611D01*
X147650500Y-72560082D01*
X147651349Y-72541720D01*
X147651509Y-72540000D01*
X147655215Y-72500000D01*
X147651349Y-72458277D01*
X147650500Y-72439916D01*
X147650500Y-72413391D01*
X147648800Y-72402657D01*
X147643525Y-72369353D01*
X147641927Y-72356601D01*
X147636397Y-72296917D01*
X147629873Y-72273989D01*
X147624725Y-72250656D01*
X147623402Y-72242299D01*
X147618407Y-72226928D01*
X147604063Y-72182782D01*
X147601918Y-72175741D01*
X147580582Y-72100751D01*
X147577112Y-72093782D01*
X147571394Y-72081227D01*
X147569871Y-72077550D01*
X147533328Y-72005832D01*
X147532499Y-72004187D01*
X147496776Y-71932444D01*
X147489673Y-71918179D01*
X147435417Y-71846334D01*
X147433293Y-71843467D01*
X147389414Y-71783072D01*
X147389411Y-71783069D01*
X147389409Y-71783066D01*
X147384337Y-71777128D01*
X147384471Y-71777013D01*
X147373862Y-71764821D01*
X147366763Y-71755420D01*
X147313574Y-71706932D01*
X147306945Y-71700603D01*
X147266928Y-71660586D01*
X147266927Y-71660585D01*
X147266925Y-71660583D01*
X147255205Y-71652068D01*
X147238112Y-71638139D01*
X147216042Y-71618020D01*
X147216037Y-71618016D01*
X147170182Y-71589624D01*
X147157972Y-71581425D01*
X147126784Y-71558765D01*
X147126779Y-71558762D01*
X147097792Y-71543993D01*
X147083393Y-71535886D01*
X147042637Y-71510652D01*
X147042632Y-71510650D01*
X147042630Y-71510649D01*
X147009159Y-71497681D01*
X146990716Y-71489436D01*
X146972440Y-71480124D01*
X146972437Y-71480123D01*
X146924358Y-71464502D01*
X146913986Y-71460812D01*
X146852456Y-71436976D01*
X146834942Y-71433702D01*
X146810027Y-71427353D01*
X146807701Y-71426598D01*
X146807698Y-71426597D01*
X146739940Y-71415865D01*
X146734510Y-71414927D01*
X146651979Y-71399500D01*
X146651976Y-71399500D01*
X146636611Y-71399500D01*
X139038270Y-71399500D01*
X138951927Y-71379793D01*
X138897556Y-71341214D01*
X138668786Y-71112444D01*
X138621667Y-71037456D01*
X138610500Y-70971730D01*
X138610500Y-62936056D01*
X138630207Y-62849713D01*
X138685426Y-62780472D01*
X138765218Y-62742045D01*
X138853782Y-62742045D01*
X138868675Y-62746058D01*
X139022804Y-62794086D01*
X139062610Y-62797703D01*
X139146815Y-62825142D01*
X139210775Y-62886400D01*
X139228453Y-62919731D01*
X139251986Y-62976545D01*
X139251987Y-62976547D01*
X139288301Y-63030895D01*
X139329510Y-63092568D01*
X139350536Y-63124036D01*
X145300536Y-69074035D01*
X145422095Y-69195594D01*
X145425964Y-69199463D01*
X145425965Y-69199464D01*
X145573451Y-69298012D01*
X145573452Y-69298012D01*
X145573453Y-69298013D01*
X145621452Y-69317895D01*
X145737334Y-69365895D01*
X145806924Y-69379737D01*
X145911306Y-69400500D01*
X145911309Y-69400500D01*
X146088692Y-69400500D01*
X155544572Y-69400500D01*
X155630915Y-69420207D01*
X155685286Y-69458786D01*
X158786583Y-72560082D01*
X161880536Y-75654035D01*
X162005965Y-75779464D01*
X162153453Y-75878013D01*
X162190010Y-75893155D01*
X162262238Y-75944405D01*
X162290240Y-75984869D01*
X162327267Y-76055752D01*
X162327270Y-76055758D01*
X162449427Y-76205569D01*
X162449430Y-76205572D01*
X162599242Y-76327729D01*
X162599245Y-76327731D01*
X162599249Y-76327734D01*
X162770594Y-76417237D01*
X162956448Y-76470417D01*
X163047557Y-76478517D01*
X163069848Y-76480499D01*
X163069853Y-76480499D01*
X163069862Y-76480500D01*
X163069870Y-76480500D01*
X163830130Y-76480500D01*
X163830138Y-76480500D01*
X163830147Y-76480499D01*
X163830151Y-76480499D01*
X163844341Y-76479237D01*
X163943552Y-76470417D01*
X164129406Y-76417237D01*
X164300751Y-76327734D01*
X164450571Y-76205571D01*
X164471203Y-76180267D01*
X164541037Y-76125807D01*
X164627589Y-76107038D01*
X164713713Y-76127681D01*
X164729899Y-76136653D01*
X164855878Y-76214357D01*
X165022299Y-76269504D01*
X165125029Y-76279999D01*
X165750000Y-76279999D01*
X165874977Y-76279999D01*
X165874983Y-76279998D01*
X165977695Y-76269506D01*
X165977696Y-76269506D01*
X166144120Y-76214358D01*
X166293342Y-76122317D01*
X166293346Y-76122314D01*
X166417314Y-75998346D01*
X166417317Y-75998342D01*
X166509357Y-75849121D01*
X166564504Y-75682700D01*
X166575000Y-75579970D01*
X166575000Y-75330000D01*
X165750000Y-75330000D01*
X165750000Y-76279999D01*
X165125029Y-76279999D01*
X165249999Y-76279998D01*
X165250000Y-76279998D01*
X165250000Y-75029000D01*
X165269707Y-74942657D01*
X165324926Y-74873416D01*
X165404718Y-74834989D01*
X165449000Y-74830000D01*
X166574999Y-74830000D01*
X166574999Y-74580022D01*
X166574998Y-74580016D01*
X166564506Y-74477304D01*
X166564506Y-74477303D01*
X166509358Y-74310879D01*
X166417317Y-74161657D01*
X166417314Y-74161653D01*
X166293346Y-74037685D01*
X166293338Y-74037679D01*
X166198808Y-73979373D01*
X166135665Y-73917272D01*
X166105720Y-73833925D01*
X166114904Y-73745839D01*
X166161397Y-73670461D01*
X166198808Y-73640627D01*
X166293338Y-73582320D01*
X166293346Y-73582314D01*
X166417314Y-73458346D01*
X166417317Y-73458342D01*
X166509357Y-73309121D01*
X166564504Y-73142700D01*
X166575000Y-73039970D01*
X166575000Y-72790000D01*
X165449000Y-72790000D01*
X165362657Y-72770293D01*
X165293416Y-72715074D01*
X165254989Y-72635282D01*
X165250000Y-72591000D01*
X165250000Y-72489000D01*
X165269707Y-72402657D01*
X165324926Y-72333416D01*
X165404718Y-72294989D01*
X165449000Y-72290000D01*
X166574999Y-72290000D01*
X166574999Y-72040022D01*
X166574998Y-72040016D01*
X166564506Y-71937304D01*
X166564506Y-71937303D01*
X166509358Y-71770879D01*
X166417317Y-71621657D01*
X166417314Y-71621653D01*
X166293346Y-71497685D01*
X166293338Y-71497679D01*
X166198808Y-71439373D01*
X166135665Y-71377272D01*
X166105720Y-71293925D01*
X166114904Y-71205839D01*
X166161397Y-71130461D01*
X166198808Y-71100627D01*
X166293338Y-71042320D01*
X166293346Y-71042314D01*
X166417314Y-70918346D01*
X166417317Y-70918342D01*
X166509357Y-70769121D01*
X166564504Y-70602700D01*
X166575000Y-70499970D01*
X166575000Y-70250000D01*
X165449000Y-70250000D01*
X165362657Y-70230293D01*
X165293416Y-70175074D01*
X165254989Y-70095282D01*
X165250000Y-70051000D01*
X165250000Y-69949000D01*
X165269707Y-69862657D01*
X165324926Y-69793416D01*
X165404718Y-69754989D01*
X165449000Y-69750000D01*
X166574999Y-69750000D01*
X166574999Y-69500022D01*
X166574998Y-69500016D01*
X166564506Y-69397304D01*
X166564506Y-69397303D01*
X166509358Y-69230879D01*
X166417317Y-69081657D01*
X166417314Y-69081653D01*
X166293346Y-68957685D01*
X166293338Y-68957679D01*
X166198808Y-68899373D01*
X166135665Y-68837272D01*
X166105720Y-68753925D01*
X166114904Y-68665839D01*
X166161397Y-68590461D01*
X166198808Y-68560627D01*
X166293338Y-68502320D01*
X166293346Y-68502314D01*
X166417314Y-68378346D01*
X166417317Y-68378342D01*
X166509357Y-68229121D01*
X166564504Y-68062700D01*
X166575000Y-67959970D01*
X166575000Y-67710000D01*
X165449000Y-67710000D01*
X165362657Y-67690293D01*
X165293416Y-67635074D01*
X165254989Y-67555282D01*
X165250000Y-67511000D01*
X165250000Y-67409000D01*
X165269707Y-67322657D01*
X165324926Y-67253416D01*
X165404718Y-67214989D01*
X165449000Y-67210000D01*
X166574999Y-67210000D01*
X166574999Y-66960022D01*
X166574998Y-66960016D01*
X166564506Y-66857304D01*
X166564506Y-66857303D01*
X166509358Y-66690879D01*
X166417317Y-66541657D01*
X166417314Y-66541653D01*
X166293346Y-66417685D01*
X166293338Y-66417679D01*
X166198808Y-66359373D01*
X166135665Y-66297272D01*
X166105720Y-66213925D01*
X166114904Y-66125839D01*
X166161397Y-66050461D01*
X166198808Y-66020627D01*
X166293338Y-65962320D01*
X166293346Y-65962314D01*
X166417314Y-65838346D01*
X166417317Y-65838342D01*
X166509357Y-65689121D01*
X166564504Y-65522700D01*
X166575000Y-65419970D01*
X166575000Y-65170000D01*
X165449000Y-65170000D01*
X165362657Y-65150293D01*
X165293416Y-65095074D01*
X165254989Y-65015282D01*
X165250000Y-64971000D01*
X165250000Y-64790000D01*
X176203553Y-64790000D01*
X177250000Y-65836446D01*
X178296447Y-64790000D01*
X176203553Y-64790000D01*
X165250000Y-64790000D01*
X165250000Y-64670000D01*
X165750000Y-64670000D01*
X166574999Y-64670000D01*
X166574999Y-64420022D01*
X166574998Y-64420016D01*
X166564506Y-64317304D01*
X166564506Y-64317303D01*
X166509358Y-64150879D01*
X166417317Y-64001657D01*
X166417314Y-64001653D01*
X166293346Y-63877685D01*
X166293342Y-63877682D01*
X166144121Y-63785642D01*
X165977700Y-63730495D01*
X165874970Y-63720000D01*
X165750000Y-63720000D01*
X165750000Y-64670000D01*
X165250000Y-64670000D01*
X165250000Y-63720000D01*
X165249999Y-63719999D01*
X165125033Y-63720000D01*
X165125023Y-63720001D01*
X165022304Y-63730493D01*
X165022303Y-63730493D01*
X164855879Y-63785641D01*
X164855874Y-63785643D01*
X164729898Y-63863346D01*
X164646064Y-63891900D01*
X164558143Y-63881252D01*
X164483549Y-63833512D01*
X164471202Y-63819731D01*
X164450571Y-63794429D01*
X164372163Y-63730495D01*
X164300757Y-63672270D01*
X164300749Y-63672265D01*
X164129402Y-63582761D01*
X163990134Y-63542912D01*
X163943552Y-63529583D01*
X163935451Y-63528862D01*
X163830151Y-63519500D01*
X163830138Y-63519500D01*
X163405428Y-63519500D01*
X163319085Y-63499793D01*
X163264714Y-63461214D01*
X160104041Y-60300540D01*
X160104032Y-60300533D01*
X160044959Y-60261062D01*
X160044957Y-60261061D01*
X159956549Y-60201988D01*
X159956542Y-60201985D01*
X159874606Y-60168046D01*
X159874604Y-60168045D01*
X159850605Y-60158104D01*
X159792666Y-60134105D01*
X159792663Y-60134104D01*
X159792662Y-60134104D01*
X159618695Y-60099500D01*
X159618692Y-60099500D01*
X159618691Y-60099500D01*
X152009500Y-60099500D01*
X151923157Y-60079793D01*
X151853916Y-60024574D01*
X151815489Y-59944782D01*
X151810500Y-59900500D01*
X151810500Y-59843385D01*
X151804086Y-59772806D01*
X151804085Y-59772802D01*
X151753478Y-59610394D01*
X151665470Y-59464812D01*
X151545187Y-59344529D01*
X151399605Y-59256521D01*
X151237197Y-59205914D01*
X151237193Y-59205913D01*
X151174453Y-59200212D01*
X151166616Y-59199500D01*
X149253384Y-59199500D01*
X149246329Y-59200141D01*
X149182806Y-59205913D01*
X149182802Y-59205914D01*
X149008901Y-59260103D01*
X149008435Y-59258608D01*
X148934845Y-59273411D01*
X148871460Y-59258943D01*
X148871099Y-59260103D01*
X148697197Y-59205914D01*
X148697193Y-59205913D01*
X148634453Y-59200212D01*
X148626616Y-59199500D01*
X146713384Y-59199500D01*
X146706329Y-59200141D01*
X146642806Y-59205913D01*
X146642802Y-59205914D01*
X146468901Y-59260103D01*
X146468435Y-59258608D01*
X146394845Y-59273411D01*
X146331460Y-59258943D01*
X146331099Y-59260103D01*
X146157197Y-59205914D01*
X146157193Y-59205913D01*
X146094453Y-59200212D01*
X146086616Y-59199500D01*
X144173384Y-59199500D01*
X144166329Y-59200141D01*
X144102806Y-59205913D01*
X144102802Y-59205914D01*
X143928901Y-59260103D01*
X143928435Y-59258608D01*
X143854845Y-59273411D01*
X143791460Y-59258943D01*
X143791099Y-59260103D01*
X143617197Y-59205914D01*
X143617193Y-59205913D01*
X143554453Y-59200212D01*
X143546616Y-59199500D01*
X141633384Y-59199500D01*
X141626329Y-59200141D01*
X141562806Y-59205913D01*
X141562802Y-59205914D01*
X141388901Y-59260103D01*
X141388435Y-59258608D01*
X141314845Y-59273411D01*
X141251460Y-59258943D01*
X141251099Y-59260103D01*
X141077197Y-59205914D01*
X141077193Y-59205913D01*
X141014453Y-59200212D01*
X141006616Y-59199500D01*
X139093384Y-59199500D01*
X139086329Y-59200141D01*
X139022806Y-59205913D01*
X139022802Y-59205914D01*
X138848901Y-59260103D01*
X138848435Y-59258608D01*
X138774845Y-59273411D01*
X138711460Y-59258943D01*
X138711099Y-59260103D01*
X138537197Y-59205914D01*
X138537193Y-59205913D01*
X138474453Y-59200212D01*
X138466616Y-59199500D01*
X136553384Y-59199500D01*
X136546329Y-59200141D01*
X136482806Y-59205913D01*
X136482802Y-59205914D01*
X136320394Y-59256521D01*
X136174815Y-59344527D01*
X136165499Y-59353843D01*
X136090509Y-59400960D01*
X136002503Y-59410873D01*
X135979031Y-59406793D01*
X135977378Y-59406402D01*
X135917823Y-59400000D01*
X134166769Y-59400000D01*
X134080426Y-59380293D01*
X134011185Y-59325074D01*
X133972758Y-59245282D01*
X133972758Y-59156718D01*
X134011185Y-59076926D01*
X134026055Y-59060286D01*
X137302556Y-55783786D01*
X137377544Y-55736667D01*
X137443270Y-55725500D01*
X153934419Y-55725500D01*
X154006304Y-55738937D01*
X154007359Y-55739345D01*
X154007363Y-55739348D01*
X154040830Y-55752312D01*
X154059284Y-55760563D01*
X154077557Y-55769874D01*
X154077560Y-55769875D01*
X154125648Y-55785500D01*
X154136040Y-55789198D01*
X154197536Y-55813021D01*
X154197544Y-55813024D01*
X154215034Y-55816293D01*
X154239980Y-55822648D01*
X154242299Y-55823402D01*
X154310134Y-55834145D01*
X154315403Y-55835054D01*
X154398024Y-55850500D01*
X154398025Y-55850500D01*
X154601974Y-55850500D01*
X154601976Y-55850500D01*
X154684609Y-55835052D01*
X154689846Y-55834148D01*
X154757701Y-55823402D01*
X154760012Y-55822650D01*
X154784950Y-55816295D01*
X154802456Y-55813024D01*
X154810808Y-55809788D01*
X154863953Y-55789200D01*
X154874341Y-55785502D01*
X154922446Y-55769873D01*
X154940715Y-55760563D01*
X154959178Y-55752309D01*
X154992637Y-55739348D01*
X155033399Y-55714108D01*
X155047789Y-55706006D01*
X155076788Y-55691232D01*
X155107971Y-55668574D01*
X155120173Y-55660379D01*
X155166041Y-55631981D01*
X155188120Y-55611851D01*
X155205211Y-55597926D01*
X155216928Y-55589414D01*
X155256932Y-55549408D01*
X155263558Y-55543080D01*
X155316764Y-55494579D01*
X155323854Y-55485188D01*
X155334465Y-55472996D01*
X155334330Y-55472881D01*
X155339410Y-55466932D01*
X155339410Y-55466931D01*
X155339414Y-55466928D01*
X155383274Y-55406558D01*
X155385434Y-55403643D01*
X155439671Y-55331823D01*
X155439673Y-55331821D01*
X155482573Y-55245664D01*
X155483188Y-55244443D01*
X155519873Y-55172446D01*
X155519877Y-55172430D01*
X155521382Y-55168800D01*
X155527105Y-55156230D01*
X155530582Y-55149250D01*
X155551923Y-55074238D01*
X155554051Y-55067251D01*
X155573402Y-55007701D01*
X155574725Y-54999339D01*
X155579873Y-54976007D01*
X155586397Y-54953083D01*
X155591928Y-54893381D01*
X155593524Y-54880654D01*
X155600500Y-54836611D01*
X155600500Y-54810082D01*
X155601349Y-54791720D01*
X155605215Y-54749999D01*
X155605215Y-54749998D01*
X155601349Y-54708277D01*
X155600500Y-54689916D01*
X155600500Y-54663392D01*
X155600500Y-54663390D01*
X155593524Y-54619350D01*
X155591927Y-54606603D01*
X155586397Y-54546921D01*
X155586397Y-54546917D01*
X155579872Y-54523989D01*
X155574724Y-54500653D01*
X155573402Y-54492299D01*
X155554063Y-54432782D01*
X155551918Y-54425741D01*
X155530582Y-54350751D01*
X155527110Y-54343778D01*
X155521390Y-54331218D01*
X155519872Y-54327553D01*
X155518612Y-54325081D01*
X155483316Y-54255808D01*
X155482533Y-54254252D01*
X155439675Y-54168182D01*
X155385397Y-54096306D01*
X155383255Y-54093414D01*
X155339414Y-54033072D01*
X155339413Y-54033070D01*
X155334337Y-54027127D01*
X155334471Y-54027012D01*
X155323864Y-54014824D01*
X155316764Y-54005421D01*
X155263573Y-53956931D01*
X155256945Y-53950603D01*
X155091928Y-53785586D01*
X155091927Y-53785585D01*
X155091923Y-53785581D01*
X154951792Y-53683770D01*
X154951790Y-53683769D01*
X154797444Y-53605126D01*
X154797441Y-53605125D01*
X154632705Y-53551599D01*
X154632693Y-53551596D01*
X154461611Y-53524500D01*
X136818389Y-53524500D01*
X136647306Y-53551596D01*
X136647294Y-53551599D01*
X136482558Y-53605125D01*
X136482555Y-53605126D01*
X136328209Y-53683769D01*
X136328207Y-53683770D01*
X136222391Y-53760650D01*
X136222392Y-53760651D01*
X136188071Y-53785586D01*
X136188070Y-53785587D01*
X131713072Y-58260586D01*
X131651826Y-58321831D01*
X131590581Y-58383076D01*
X131488770Y-58523207D01*
X131488769Y-58523209D01*
X131410126Y-58677555D01*
X131410125Y-58677558D01*
X131356599Y-58842294D01*
X131356596Y-58842306D01*
X131329500Y-59013389D01*
X131329500Y-59090419D01*
X131309793Y-59176762D01*
X131254574Y-59246003D01*
X131233451Y-59260719D01*
X131094812Y-59344529D01*
X130974529Y-59464812D01*
X130886521Y-59610394D01*
X130835914Y-59772802D01*
X130835913Y-59772806D01*
X130829500Y-59843385D01*
X130250000Y-59843385D01*
X130250000Y-52546978D01*
X130269707Y-52460635D01*
X130271009Y-52457982D01*
X130291886Y-52416229D01*
X157749500Y-52416229D01*
X157749500Y-52583770D01*
X157782183Y-52748078D01*
X157782184Y-52748081D01*
X157846294Y-52902859D01*
X157846297Y-52902864D01*
X157907927Y-52995098D01*
X157939374Y-53042162D01*
X158057838Y-53160626D01*
X158150704Y-53222677D01*
X158197135Y-53253702D01*
X158197140Y-53253705D01*
X158263843Y-53281333D01*
X158351918Y-53317816D01*
X158434075Y-53334158D01*
X158516230Y-53350500D01*
X158516233Y-53350500D01*
X158683770Y-53350500D01*
X158754187Y-53336492D01*
X158848082Y-53317816D01*
X158972637Y-53266222D01*
X159002859Y-53253705D01*
X159002860Y-53253703D01*
X159002863Y-53253703D01*
X159142162Y-53160626D01*
X159260626Y-53042162D01*
X159353703Y-52902863D01*
X159417816Y-52748082D01*
X159436492Y-52654187D01*
X159450500Y-52583770D01*
X159450500Y-52416229D01*
X164549500Y-52416229D01*
X164549500Y-52583770D01*
X164582183Y-52748078D01*
X164582184Y-52748081D01*
X164646294Y-52902859D01*
X164646297Y-52902864D01*
X164707927Y-52995098D01*
X164739374Y-53042162D01*
X164857838Y-53160626D01*
X164950704Y-53222677D01*
X164997135Y-53253702D01*
X164997140Y-53253705D01*
X165063843Y-53281333D01*
X165151918Y-53317816D01*
X165234075Y-53334158D01*
X165316230Y-53350500D01*
X165316233Y-53350500D01*
X165483770Y-53350500D01*
X165554187Y-53336492D01*
X165648082Y-53317816D01*
X165772637Y-53266222D01*
X165802859Y-53253705D01*
X165802860Y-53253703D01*
X165802863Y-53253703D01*
X165942162Y-53160626D01*
X166060626Y-53042162D01*
X166153703Y-52902863D01*
X166217816Y-52748082D01*
X166236492Y-52654187D01*
X166250500Y-52583770D01*
X166250500Y-52416229D01*
X166231823Y-52322338D01*
X166217816Y-52251918D01*
X166181333Y-52163843D01*
X166153705Y-52097140D01*
X166153702Y-52097135D01*
X166122677Y-52050704D01*
X166060626Y-51957838D01*
X165942162Y-51839374D01*
X165895098Y-51807927D01*
X165802864Y-51746297D01*
X165802859Y-51746294D01*
X165684563Y-51697295D01*
X165648082Y-51682184D01*
X165648079Y-51682183D01*
X165648078Y-51682183D01*
X165483770Y-51649500D01*
X165483767Y-51649500D01*
X165316233Y-51649500D01*
X165316230Y-51649500D01*
X165151921Y-51682183D01*
X165151918Y-51682184D01*
X164997140Y-51746294D01*
X164997135Y-51746297D01*
X164857842Y-51839371D01*
X164857834Y-51839377D01*
X164739377Y-51957834D01*
X164739371Y-51957842D01*
X164646297Y-52097135D01*
X164646294Y-52097140D01*
X164582184Y-52251918D01*
X164582183Y-52251921D01*
X164549500Y-52416229D01*
X159450500Y-52416229D01*
X159431823Y-52322338D01*
X159417816Y-52251918D01*
X159381333Y-52163843D01*
X159353705Y-52097140D01*
X159353702Y-52097135D01*
X159322677Y-52050704D01*
X159260626Y-51957838D01*
X159142162Y-51839374D01*
X159095098Y-51807927D01*
X159002864Y-51746297D01*
X159002859Y-51746294D01*
X158884563Y-51697295D01*
X158848082Y-51682184D01*
X158848079Y-51682183D01*
X158848078Y-51682183D01*
X158683770Y-51649500D01*
X158683767Y-51649500D01*
X158516233Y-51649500D01*
X158516230Y-51649500D01*
X158351921Y-51682183D01*
X158351918Y-51682184D01*
X158197140Y-51746294D01*
X158197135Y-51746297D01*
X158057842Y-51839371D01*
X158057834Y-51839377D01*
X157939377Y-51957834D01*
X157939371Y-51957842D01*
X157846297Y-52097135D01*
X157846294Y-52097140D01*
X157782184Y-52251918D01*
X157782183Y-52251921D01*
X157749500Y-52416229D01*
X130291886Y-52416229D01*
X130451433Y-52097135D01*
X130580312Y-51839377D01*
X130580315Y-51839371D01*
X130626852Y-51746297D01*
X130658909Y-51682183D01*
X130970335Y-51059330D01*
X131026575Y-50990916D01*
X131059330Y-50970335D01*
X132457982Y-50271009D01*
X132544023Y-50250022D01*
X132546978Y-50250000D01*
X192453022Y-50250000D01*
X192539365Y-50269707D01*
G37*
%TD.AperFunction*%
%TD*%
M02*
