%TF.GenerationSoftware,KiCad,Pcbnew,8.0.2*%
%TF.CreationDate,2024-11-06T11:30:06+00:00*%
%TF.ProjectId,session_1_pcb,73657373-696f-46e5-9f31-5f7063622e6b,rev?*%
%TF.SameCoordinates,Original*%
%TF.FileFunction,Legend,Top*%
%TF.FilePolarity,Positive*%
%FSLAX46Y46*%
G04 Gerber Fmt 4.6, Leading zero omitted, Abs format (unit mm)*
G04 Created by KiCad (PCBNEW 8.0.2) date 2024-11-06 11:30:06*
%MOMM*%
%LPD*%
G01*
G04 APERTURE LIST*
%ADD10C,0.150000*%
%ADD11C,0.120000*%
%ADD12C,0.100000*%
G04 APERTURE END LIST*
D10*
X197638152Y-72714285D02*
X198304819Y-72714285D01*
X197257200Y-72952380D02*
X197971485Y-73190475D01*
X197971485Y-73190475D02*
X197971485Y-72571428D01*
X197304819Y-71999999D02*
X197304819Y-71904761D01*
X197304819Y-71904761D02*
X197352438Y-71809523D01*
X197352438Y-71809523D02*
X197400057Y-71761904D01*
X197400057Y-71761904D02*
X197495295Y-71714285D01*
X197495295Y-71714285D02*
X197685771Y-71666666D01*
X197685771Y-71666666D02*
X197923866Y-71666666D01*
X197923866Y-71666666D02*
X198114342Y-71714285D01*
X198114342Y-71714285D02*
X198209580Y-71761904D01*
X198209580Y-71761904D02*
X198257200Y-71809523D01*
X198257200Y-71809523D02*
X198304819Y-71904761D01*
X198304819Y-71904761D02*
X198304819Y-71999999D01*
X198304819Y-71999999D02*
X198257200Y-72095237D01*
X198257200Y-72095237D02*
X198209580Y-72142856D01*
X198209580Y-72142856D02*
X198114342Y-72190475D01*
X198114342Y-72190475D02*
X197923866Y-72238094D01*
X197923866Y-72238094D02*
X197685771Y-72238094D01*
X197685771Y-72238094D02*
X197495295Y-72190475D01*
X197495295Y-72190475D02*
X197400057Y-72142856D01*
X197400057Y-72142856D02*
X197352438Y-72095237D01*
X197352438Y-72095237D02*
X197304819Y-71999999D01*
X198209580Y-71238094D02*
X198257200Y-71190475D01*
X198257200Y-71190475D02*
X198304819Y-71238094D01*
X198304819Y-71238094D02*
X198257200Y-71285713D01*
X198257200Y-71285713D02*
X198209580Y-71238094D01*
X198209580Y-71238094D02*
X198304819Y-71238094D01*
X197304819Y-70571428D02*
X197304819Y-70476190D01*
X197304819Y-70476190D02*
X197352438Y-70380952D01*
X197352438Y-70380952D02*
X197400057Y-70333333D01*
X197400057Y-70333333D02*
X197495295Y-70285714D01*
X197495295Y-70285714D02*
X197685771Y-70238095D01*
X197685771Y-70238095D02*
X197923866Y-70238095D01*
X197923866Y-70238095D02*
X198114342Y-70285714D01*
X198114342Y-70285714D02*
X198209580Y-70333333D01*
X198209580Y-70333333D02*
X198257200Y-70380952D01*
X198257200Y-70380952D02*
X198304819Y-70476190D01*
X198304819Y-70476190D02*
X198304819Y-70571428D01*
X198304819Y-70571428D02*
X198257200Y-70666666D01*
X198257200Y-70666666D02*
X198209580Y-70714285D01*
X198209580Y-70714285D02*
X198114342Y-70761904D01*
X198114342Y-70761904D02*
X197923866Y-70809523D01*
X197923866Y-70809523D02*
X197685771Y-70809523D01*
X197685771Y-70809523D02*
X197495295Y-70761904D01*
X197495295Y-70761904D02*
X197400057Y-70714285D01*
X197400057Y-70714285D02*
X197352438Y-70666666D01*
X197352438Y-70666666D02*
X197304819Y-70571428D01*
X198304819Y-69047618D02*
X197638152Y-69047618D01*
X197733390Y-69047618D02*
X197685771Y-68999999D01*
X197685771Y-68999999D02*
X197638152Y-68904761D01*
X197638152Y-68904761D02*
X197638152Y-68761904D01*
X197638152Y-68761904D02*
X197685771Y-68666666D01*
X197685771Y-68666666D02*
X197781009Y-68619047D01*
X197781009Y-68619047D02*
X198304819Y-68619047D01*
X197781009Y-68619047D02*
X197685771Y-68571428D01*
X197685771Y-68571428D02*
X197638152Y-68476190D01*
X197638152Y-68476190D02*
X197638152Y-68333333D01*
X197638152Y-68333333D02*
X197685771Y-68238094D01*
X197685771Y-68238094D02*
X197781009Y-68190475D01*
X197781009Y-68190475D02*
X198304819Y-68190475D01*
X198304819Y-67714285D02*
X197638152Y-67714285D01*
X197733390Y-67714285D02*
X197685771Y-67666666D01*
X197685771Y-67666666D02*
X197638152Y-67571428D01*
X197638152Y-67571428D02*
X197638152Y-67428571D01*
X197638152Y-67428571D02*
X197685771Y-67333333D01*
X197685771Y-67333333D02*
X197781009Y-67285714D01*
X197781009Y-67285714D02*
X198304819Y-67285714D01*
X197781009Y-67285714D02*
X197685771Y-67238095D01*
X197685771Y-67238095D02*
X197638152Y-67142857D01*
X197638152Y-67142857D02*
X197638152Y-67000000D01*
X197638152Y-67000000D02*
X197685771Y-66904761D01*
X197685771Y-66904761D02*
X197781009Y-66857142D01*
X197781009Y-66857142D02*
X198304819Y-66857142D01*
X195500000Y-50000000D02*
X199586420Y-50000000D01*
X195500000Y-90000000D02*
X199586420Y-90000000D01*
X199000000Y-50000000D02*
X199000000Y-90000000D01*
X199000000Y-50000000D02*
X199000000Y-90000000D01*
X199000000Y-50000000D02*
X199586421Y-51126504D01*
X199000000Y-50000000D02*
X198413579Y-51126504D01*
X199000000Y-90000000D02*
X198413579Y-88873496D01*
X199000000Y-90000000D02*
X199586421Y-88873496D01*
X159285714Y-44454819D02*
X159095238Y-44454819D01*
X159095238Y-44454819D02*
X159000000Y-44502438D01*
X159000000Y-44502438D02*
X158952381Y-44550057D01*
X158952381Y-44550057D02*
X158857143Y-44692914D01*
X158857143Y-44692914D02*
X158809524Y-44883390D01*
X158809524Y-44883390D02*
X158809524Y-45264342D01*
X158809524Y-45264342D02*
X158857143Y-45359580D01*
X158857143Y-45359580D02*
X158904762Y-45407200D01*
X158904762Y-45407200D02*
X159000000Y-45454819D01*
X159000000Y-45454819D02*
X159190476Y-45454819D01*
X159190476Y-45454819D02*
X159285714Y-45407200D01*
X159285714Y-45407200D02*
X159333333Y-45359580D01*
X159333333Y-45359580D02*
X159380952Y-45264342D01*
X159380952Y-45264342D02*
X159380952Y-45026247D01*
X159380952Y-45026247D02*
X159333333Y-44931009D01*
X159333333Y-44931009D02*
X159285714Y-44883390D01*
X159285714Y-44883390D02*
X159190476Y-44835771D01*
X159190476Y-44835771D02*
X159000000Y-44835771D01*
X159000000Y-44835771D02*
X158904762Y-44883390D01*
X158904762Y-44883390D02*
X158857143Y-44931009D01*
X158857143Y-44931009D02*
X158809524Y-45026247D01*
X160285714Y-44454819D02*
X159809524Y-44454819D01*
X159809524Y-44454819D02*
X159761905Y-44931009D01*
X159761905Y-44931009D02*
X159809524Y-44883390D01*
X159809524Y-44883390D02*
X159904762Y-44835771D01*
X159904762Y-44835771D02*
X160142857Y-44835771D01*
X160142857Y-44835771D02*
X160238095Y-44883390D01*
X160238095Y-44883390D02*
X160285714Y-44931009D01*
X160285714Y-44931009D02*
X160333333Y-45026247D01*
X160333333Y-45026247D02*
X160333333Y-45264342D01*
X160333333Y-45264342D02*
X160285714Y-45359580D01*
X160285714Y-45359580D02*
X160238095Y-45407200D01*
X160238095Y-45407200D02*
X160142857Y-45454819D01*
X160142857Y-45454819D02*
X159904762Y-45454819D01*
X159904762Y-45454819D02*
X159809524Y-45407200D01*
X159809524Y-45407200D02*
X159761905Y-45359580D01*
X160761905Y-45359580D02*
X160809524Y-45407200D01*
X160809524Y-45407200D02*
X160761905Y-45454819D01*
X160761905Y-45454819D02*
X160714286Y-45407200D01*
X160714286Y-45407200D02*
X160761905Y-45359580D01*
X160761905Y-45359580D02*
X160761905Y-45454819D01*
X161428571Y-44454819D02*
X161523809Y-44454819D01*
X161523809Y-44454819D02*
X161619047Y-44502438D01*
X161619047Y-44502438D02*
X161666666Y-44550057D01*
X161666666Y-44550057D02*
X161714285Y-44645295D01*
X161714285Y-44645295D02*
X161761904Y-44835771D01*
X161761904Y-44835771D02*
X161761904Y-45073866D01*
X161761904Y-45073866D02*
X161714285Y-45264342D01*
X161714285Y-45264342D02*
X161666666Y-45359580D01*
X161666666Y-45359580D02*
X161619047Y-45407200D01*
X161619047Y-45407200D02*
X161523809Y-45454819D01*
X161523809Y-45454819D02*
X161428571Y-45454819D01*
X161428571Y-45454819D02*
X161333333Y-45407200D01*
X161333333Y-45407200D02*
X161285714Y-45359580D01*
X161285714Y-45359580D02*
X161238095Y-45264342D01*
X161238095Y-45264342D02*
X161190476Y-45073866D01*
X161190476Y-45073866D02*
X161190476Y-44835771D01*
X161190476Y-44835771D02*
X161238095Y-44645295D01*
X161238095Y-44645295D02*
X161285714Y-44550057D01*
X161285714Y-44550057D02*
X161333333Y-44502438D01*
X161333333Y-44502438D02*
X161428571Y-44454819D01*
X162952381Y-45454819D02*
X162952381Y-44788152D01*
X162952381Y-44883390D02*
X163000000Y-44835771D01*
X163000000Y-44835771D02*
X163095238Y-44788152D01*
X163095238Y-44788152D02*
X163238095Y-44788152D01*
X163238095Y-44788152D02*
X163333333Y-44835771D01*
X163333333Y-44835771D02*
X163380952Y-44931009D01*
X163380952Y-44931009D02*
X163380952Y-45454819D01*
X163380952Y-44931009D02*
X163428571Y-44835771D01*
X163428571Y-44835771D02*
X163523809Y-44788152D01*
X163523809Y-44788152D02*
X163666666Y-44788152D01*
X163666666Y-44788152D02*
X163761905Y-44835771D01*
X163761905Y-44835771D02*
X163809524Y-44931009D01*
X163809524Y-44931009D02*
X163809524Y-45454819D01*
X164285714Y-45454819D02*
X164285714Y-44788152D01*
X164285714Y-44883390D02*
X164333333Y-44835771D01*
X164333333Y-44835771D02*
X164428571Y-44788152D01*
X164428571Y-44788152D02*
X164571428Y-44788152D01*
X164571428Y-44788152D02*
X164666666Y-44835771D01*
X164666666Y-44835771D02*
X164714285Y-44931009D01*
X164714285Y-44931009D02*
X164714285Y-45454819D01*
X164714285Y-44931009D02*
X164761904Y-44835771D01*
X164761904Y-44835771D02*
X164857142Y-44788152D01*
X164857142Y-44788152D02*
X164999999Y-44788152D01*
X164999999Y-44788152D02*
X165095238Y-44835771D01*
X165095238Y-44835771D02*
X165142857Y-44931009D01*
X165142857Y-44931009D02*
X165142857Y-45454819D01*
X130000000Y-49500000D02*
X130000000Y-46413580D01*
X195000000Y-49500000D02*
X195000000Y-46413580D01*
X130000000Y-47000000D02*
X195000000Y-47000000D01*
X130000000Y-47000000D02*
X195000000Y-47000000D01*
X130000000Y-47000000D02*
X131126504Y-46413579D01*
X130000000Y-47000000D02*
X131126504Y-47586421D01*
X195000000Y-47000000D02*
X193873496Y-47586421D01*
X195000000Y-47000000D02*
X193873496Y-46413579D01*
X163736905Y-69564819D02*
X163736905Y-68564819D01*
X163736905Y-68564819D02*
X163975000Y-68564819D01*
X163975000Y-68564819D02*
X164117857Y-68612438D01*
X164117857Y-68612438D02*
X164213095Y-68707676D01*
X164213095Y-68707676D02*
X164260714Y-68802914D01*
X164260714Y-68802914D02*
X164308333Y-68993390D01*
X164308333Y-68993390D02*
X164308333Y-69136247D01*
X164308333Y-69136247D02*
X164260714Y-69326723D01*
X164260714Y-69326723D02*
X164213095Y-69421961D01*
X164213095Y-69421961D02*
X164117857Y-69517200D01*
X164117857Y-69517200D02*
X163975000Y-69564819D01*
X163975000Y-69564819D02*
X163736905Y-69564819D01*
X164689286Y-68660057D02*
X164736905Y-68612438D01*
X164736905Y-68612438D02*
X164832143Y-68564819D01*
X164832143Y-68564819D02*
X165070238Y-68564819D01*
X165070238Y-68564819D02*
X165165476Y-68612438D01*
X165165476Y-68612438D02*
X165213095Y-68660057D01*
X165213095Y-68660057D02*
X165260714Y-68755295D01*
X165260714Y-68755295D02*
X165260714Y-68850533D01*
X165260714Y-68850533D02*
X165213095Y-68993390D01*
X165213095Y-68993390D02*
X164641667Y-69564819D01*
X164641667Y-69564819D02*
X165260714Y-69564819D01*
X184238095Y-58024819D02*
X184238095Y-58834342D01*
X184238095Y-58834342D02*
X184285714Y-58929580D01*
X184285714Y-58929580D02*
X184333333Y-58977200D01*
X184333333Y-58977200D02*
X184428571Y-59024819D01*
X184428571Y-59024819D02*
X184619047Y-59024819D01*
X184619047Y-59024819D02*
X184714285Y-58977200D01*
X184714285Y-58977200D02*
X184761904Y-58929580D01*
X184761904Y-58929580D02*
X184809523Y-58834342D01*
X184809523Y-58834342D02*
X184809523Y-58024819D01*
X185238095Y-58120057D02*
X185285714Y-58072438D01*
X185285714Y-58072438D02*
X185380952Y-58024819D01*
X185380952Y-58024819D02*
X185619047Y-58024819D01*
X185619047Y-58024819D02*
X185714285Y-58072438D01*
X185714285Y-58072438D02*
X185761904Y-58120057D01*
X185761904Y-58120057D02*
X185809523Y-58215295D01*
X185809523Y-58215295D02*
X185809523Y-58310533D01*
X185809523Y-58310533D02*
X185761904Y-58453390D01*
X185761904Y-58453390D02*
X185190476Y-59024819D01*
X185190476Y-59024819D02*
X185809523Y-59024819D01*
X124274819Y-70761904D02*
X125084342Y-70761904D01*
X125084342Y-70761904D02*
X125179580Y-70714285D01*
X125179580Y-70714285D02*
X125227200Y-70666666D01*
X125227200Y-70666666D02*
X125274819Y-70571428D01*
X125274819Y-70571428D02*
X125274819Y-70380952D01*
X125274819Y-70380952D02*
X125227200Y-70285714D01*
X125227200Y-70285714D02*
X125179580Y-70238095D01*
X125179580Y-70238095D02*
X125084342Y-70190476D01*
X125084342Y-70190476D02*
X124274819Y-70190476D01*
X125274819Y-69190476D02*
X125274819Y-69761904D01*
X125274819Y-69476190D02*
X124274819Y-69476190D01*
X124274819Y-69476190D02*
X124417676Y-69571428D01*
X124417676Y-69571428D02*
X124512914Y-69666666D01*
X124512914Y-69666666D02*
X124560533Y-69761904D01*
X163736905Y-67024819D02*
X163736905Y-66024819D01*
X163736905Y-66024819D02*
X163975000Y-66024819D01*
X163975000Y-66024819D02*
X164117857Y-66072438D01*
X164117857Y-66072438D02*
X164213095Y-66167676D01*
X164213095Y-66167676D02*
X164260714Y-66262914D01*
X164260714Y-66262914D02*
X164308333Y-66453390D01*
X164308333Y-66453390D02*
X164308333Y-66596247D01*
X164308333Y-66596247D02*
X164260714Y-66786723D01*
X164260714Y-66786723D02*
X164213095Y-66881961D01*
X164213095Y-66881961D02*
X164117857Y-66977200D01*
X164117857Y-66977200D02*
X163975000Y-67024819D01*
X163975000Y-67024819D02*
X163736905Y-67024819D01*
X165260714Y-67024819D02*
X164689286Y-67024819D01*
X164975000Y-67024819D02*
X164975000Y-66024819D01*
X164975000Y-66024819D02*
X164879762Y-66167676D01*
X164879762Y-66167676D02*
X164784524Y-66262914D01*
X164784524Y-66262914D02*
X164689286Y-66310533D01*
X163736905Y-74644819D02*
X163736905Y-73644819D01*
X163736905Y-73644819D02*
X163975000Y-73644819D01*
X163975000Y-73644819D02*
X164117857Y-73692438D01*
X164117857Y-73692438D02*
X164213095Y-73787676D01*
X164213095Y-73787676D02*
X164260714Y-73882914D01*
X164260714Y-73882914D02*
X164308333Y-74073390D01*
X164308333Y-74073390D02*
X164308333Y-74216247D01*
X164308333Y-74216247D02*
X164260714Y-74406723D01*
X164260714Y-74406723D02*
X164213095Y-74501961D01*
X164213095Y-74501961D02*
X164117857Y-74597200D01*
X164117857Y-74597200D02*
X163975000Y-74644819D01*
X163975000Y-74644819D02*
X163736905Y-74644819D01*
X165165476Y-73978152D02*
X165165476Y-74644819D01*
X164927381Y-73597200D02*
X164689286Y-74311485D01*
X164689286Y-74311485D02*
X165308333Y-74311485D01*
X163736905Y-77184819D02*
X163736905Y-76184819D01*
X163736905Y-76184819D02*
X163975000Y-76184819D01*
X163975000Y-76184819D02*
X164117857Y-76232438D01*
X164117857Y-76232438D02*
X164213095Y-76327676D01*
X164213095Y-76327676D02*
X164260714Y-76422914D01*
X164260714Y-76422914D02*
X164308333Y-76613390D01*
X164308333Y-76613390D02*
X164308333Y-76756247D01*
X164308333Y-76756247D02*
X164260714Y-76946723D01*
X164260714Y-76946723D02*
X164213095Y-77041961D01*
X164213095Y-77041961D02*
X164117857Y-77137200D01*
X164117857Y-77137200D02*
X163975000Y-77184819D01*
X163975000Y-77184819D02*
X163736905Y-77184819D01*
X165213095Y-76184819D02*
X164736905Y-76184819D01*
X164736905Y-76184819D02*
X164689286Y-76661009D01*
X164689286Y-76661009D02*
X164736905Y-76613390D01*
X164736905Y-76613390D02*
X164832143Y-76565771D01*
X164832143Y-76565771D02*
X165070238Y-76565771D01*
X165070238Y-76565771D02*
X165165476Y-76613390D01*
X165165476Y-76613390D02*
X165213095Y-76661009D01*
X165213095Y-76661009D02*
X165260714Y-76756247D01*
X165260714Y-76756247D02*
X165260714Y-76994342D01*
X165260714Y-76994342D02*
X165213095Y-77089580D01*
X165213095Y-77089580D02*
X165165476Y-77137200D01*
X165165476Y-77137200D02*
X165070238Y-77184819D01*
X165070238Y-77184819D02*
X164832143Y-77184819D01*
X164832143Y-77184819D02*
X164736905Y-77137200D01*
X164736905Y-77137200D02*
X164689286Y-77089580D01*
X163736905Y-72104819D02*
X163736905Y-71104819D01*
X163736905Y-71104819D02*
X163975000Y-71104819D01*
X163975000Y-71104819D02*
X164117857Y-71152438D01*
X164117857Y-71152438D02*
X164213095Y-71247676D01*
X164213095Y-71247676D02*
X164260714Y-71342914D01*
X164260714Y-71342914D02*
X164308333Y-71533390D01*
X164308333Y-71533390D02*
X164308333Y-71676247D01*
X164308333Y-71676247D02*
X164260714Y-71866723D01*
X164260714Y-71866723D02*
X164213095Y-71961961D01*
X164213095Y-71961961D02*
X164117857Y-72057200D01*
X164117857Y-72057200D02*
X163975000Y-72104819D01*
X163975000Y-72104819D02*
X163736905Y-72104819D01*
X164641667Y-71104819D02*
X165260714Y-71104819D01*
X165260714Y-71104819D02*
X164927381Y-71485771D01*
X164927381Y-71485771D02*
X165070238Y-71485771D01*
X165070238Y-71485771D02*
X165165476Y-71533390D01*
X165165476Y-71533390D02*
X165213095Y-71581009D01*
X165213095Y-71581009D02*
X165260714Y-71676247D01*
X165260714Y-71676247D02*
X165260714Y-71914342D01*
X165260714Y-71914342D02*
X165213095Y-72009580D01*
X165213095Y-72009580D02*
X165165476Y-72057200D01*
X165165476Y-72057200D02*
X165070238Y-72104819D01*
X165070238Y-72104819D02*
X164784524Y-72104819D01*
X164784524Y-72104819D02*
X164689286Y-72057200D01*
X164689286Y-72057200D02*
X164641667Y-72009580D01*
D11*
%TO.C,D2*%
X163475000Y-68420000D02*
X166335000Y-68420000D01*
X166335000Y-66500000D02*
X163475000Y-66500000D01*
X166335000Y-68420000D02*
X166335000Y-66500000D01*
%TO.C,U2*%
D12*
X192750000Y-60250000D02*
X177250000Y-60250000D01*
X177250000Y-79750000D01*
X192750000Y-79750000D01*
X192750000Y-60250000D01*
%TO.C,U1*%
X128820000Y-67500000D02*
X128820000Y-72500000D01*
X128820000Y-72500000D02*
X130320000Y-72500000D01*
X130320000Y-67500000D02*
X128820000Y-67500000D01*
X130320000Y-61000000D02*
X152820000Y-61000000D01*
X152820000Y-79000000D01*
X130320000Y-79000000D01*
X130320000Y-61000000D01*
D11*
%TO.C,D1*%
X163475000Y-65880000D02*
X166335000Y-65880000D01*
X166335000Y-63960000D02*
X163475000Y-63960000D01*
X166335000Y-65880000D02*
X166335000Y-63960000D01*
%TO.C,D4*%
X163475000Y-73500000D02*
X166335000Y-73500000D01*
X166335000Y-71580000D02*
X163475000Y-71580000D01*
X166335000Y-73500000D02*
X166335000Y-71580000D01*
%TO.C,D5*%
X163475000Y-76040000D02*
X166335000Y-76040000D01*
X166335000Y-74120000D02*
X163475000Y-74120000D01*
X166335000Y-76040000D02*
X166335000Y-74120000D01*
%TO.C,D3*%
X163475000Y-70960000D02*
X166335000Y-70960000D01*
X166335000Y-69040000D02*
X163475000Y-69040000D01*
X166335000Y-70960000D02*
X166335000Y-69040000D01*
%TD*%
M02*
