%TF.GenerationSoftware,KiCad,Pcbnew,8.0.2*%
%TF.CreationDate,2024-11-06T11:30:06+00:00*%
%TF.ProjectId,session_1_pcb,73657373-696f-46e5-9f31-5f7063622e6b,rev?*%
%TF.SameCoordinates,Original*%
%TF.FileFunction,Legend,Bot*%
%TF.FilePolarity,Positive*%
%FSLAX46Y46*%
G04 Gerber Fmt 4.6, Leading zero omitted, Abs format (unit mm)*
G04 Created by KiCad (PCBNEW 8.0.2) date 2024-11-06 11:30:06*
%MOMM*%
%LPD*%
G01*
G04 APERTURE LIST*
%ADD10C,0.150000*%
%ADD11C,0.120000*%
G04 APERTURE END LIST*
D10*
X152231009Y-83339285D02*
X152278628Y-83482142D01*
X152278628Y-83482142D02*
X152326247Y-83529761D01*
X152326247Y-83529761D02*
X152421485Y-83577380D01*
X152421485Y-83577380D02*
X152564342Y-83577380D01*
X152564342Y-83577380D02*
X152659580Y-83529761D01*
X152659580Y-83529761D02*
X152707200Y-83482142D01*
X152707200Y-83482142D02*
X152754819Y-83386904D01*
X152754819Y-83386904D02*
X152754819Y-83005952D01*
X152754819Y-83005952D02*
X151754819Y-83005952D01*
X151754819Y-83005952D02*
X151754819Y-83339285D01*
X151754819Y-83339285D02*
X151802438Y-83434523D01*
X151802438Y-83434523D02*
X151850057Y-83482142D01*
X151850057Y-83482142D02*
X151945295Y-83529761D01*
X151945295Y-83529761D02*
X152040533Y-83529761D01*
X152040533Y-83529761D02*
X152135771Y-83482142D01*
X152135771Y-83482142D02*
X152183390Y-83434523D01*
X152183390Y-83434523D02*
X152231009Y-83339285D01*
X152231009Y-83339285D02*
X152231009Y-83005952D01*
X151754819Y-83863095D02*
X151754819Y-84434523D01*
X152754819Y-84148809D02*
X151754819Y-84148809D01*
X152754819Y-85291666D02*
X152754819Y-84720238D01*
X152754819Y-85005952D02*
X151754819Y-85005952D01*
X151754819Y-85005952D02*
X151897676Y-84910714D01*
X151897676Y-84910714D02*
X151992914Y-84815476D01*
X151992914Y-84815476D02*
X152040533Y-84720238D01*
X177631009Y-55089285D02*
X177678628Y-55232142D01*
X177678628Y-55232142D02*
X177726247Y-55279761D01*
X177726247Y-55279761D02*
X177821485Y-55327380D01*
X177821485Y-55327380D02*
X177964342Y-55327380D01*
X177964342Y-55327380D02*
X178059580Y-55279761D01*
X178059580Y-55279761D02*
X178107200Y-55232142D01*
X178107200Y-55232142D02*
X178154819Y-55136904D01*
X178154819Y-55136904D02*
X178154819Y-54755952D01*
X178154819Y-54755952D02*
X177154819Y-54755952D01*
X177154819Y-54755952D02*
X177154819Y-55089285D01*
X177154819Y-55089285D02*
X177202438Y-55184523D01*
X177202438Y-55184523D02*
X177250057Y-55232142D01*
X177250057Y-55232142D02*
X177345295Y-55279761D01*
X177345295Y-55279761D02*
X177440533Y-55279761D01*
X177440533Y-55279761D02*
X177535771Y-55232142D01*
X177535771Y-55232142D02*
X177583390Y-55184523D01*
X177583390Y-55184523D02*
X177631009Y-55089285D01*
X177631009Y-55089285D02*
X177631009Y-54755952D01*
X177154819Y-55613095D02*
X177154819Y-56184523D01*
X178154819Y-55898809D02*
X177154819Y-55898809D01*
X177250057Y-56470238D02*
X177202438Y-56517857D01*
X177202438Y-56517857D02*
X177154819Y-56613095D01*
X177154819Y-56613095D02*
X177154819Y-56851190D01*
X177154819Y-56851190D02*
X177202438Y-56946428D01*
X177202438Y-56946428D02*
X177250057Y-56994047D01*
X177250057Y-56994047D02*
X177345295Y-57041666D01*
X177345295Y-57041666D02*
X177440533Y-57041666D01*
X177440533Y-57041666D02*
X177583390Y-56994047D01*
X177583390Y-56994047D02*
X178154819Y-56422619D01*
X178154819Y-56422619D02*
X178154819Y-57041666D01*
X163333332Y-57707200D02*
X163190475Y-57754819D01*
X163190475Y-57754819D02*
X162952380Y-57754819D01*
X162952380Y-57754819D02*
X162857142Y-57707200D01*
X162857142Y-57707200D02*
X162809523Y-57659580D01*
X162809523Y-57659580D02*
X162761904Y-57564342D01*
X162761904Y-57564342D02*
X162761904Y-57469104D01*
X162761904Y-57469104D02*
X162809523Y-57373866D01*
X162809523Y-57373866D02*
X162857142Y-57326247D01*
X162857142Y-57326247D02*
X162952380Y-57278628D01*
X162952380Y-57278628D02*
X163142856Y-57231009D01*
X163142856Y-57231009D02*
X163238094Y-57183390D01*
X163238094Y-57183390D02*
X163285713Y-57135771D01*
X163285713Y-57135771D02*
X163333332Y-57040533D01*
X163333332Y-57040533D02*
X163333332Y-56945295D01*
X163333332Y-56945295D02*
X163285713Y-56850057D01*
X163285713Y-56850057D02*
X163238094Y-56802438D01*
X163238094Y-56802438D02*
X163142856Y-56754819D01*
X163142856Y-56754819D02*
X162904761Y-56754819D01*
X162904761Y-56754819D02*
X162761904Y-56802438D01*
X162428570Y-56754819D02*
X162190475Y-57754819D01*
X162190475Y-57754819D02*
X161999999Y-57040533D01*
X161999999Y-57040533D02*
X161809523Y-57754819D01*
X161809523Y-57754819D02*
X161571428Y-56754819D01*
X160666666Y-57754819D02*
X161238094Y-57754819D01*
X160952380Y-57754819D02*
X160952380Y-56754819D01*
X160952380Y-56754819D02*
X161047618Y-56897676D01*
X161047618Y-56897676D02*
X161142856Y-56992914D01*
X161142856Y-56992914D02*
X161238094Y-57040533D01*
D11*
%TO.C,BT1*%
X138650000Y-58650000D02*
X138650000Y-79550000D01*
X138650000Y-58650000D02*
X143150000Y-58650000D01*
X138650000Y-79550000D02*
X140450000Y-81350000D01*
X140450000Y-81350000D02*
X143150000Y-81350000D01*
X141000000Y-82000000D02*
X141000000Y-84000000D01*
X142000000Y-83000000D02*
X140000000Y-83000000D01*
X143150000Y-55450000D02*
X144700000Y-55450000D01*
X143150000Y-58650000D02*
X143150000Y-55450000D01*
X143150000Y-81350000D02*
X143150000Y-84550000D01*
X143150000Y-84550000D02*
X144700000Y-84550000D01*
X150850000Y-55450000D02*
X149300000Y-55450000D01*
X150850000Y-58650000D02*
X150850000Y-55450000D01*
X150850000Y-81350000D02*
X150850000Y-84550000D01*
X150850000Y-84550000D02*
X149300000Y-84550000D01*
X155350000Y-58650000D02*
X150850000Y-58650000D01*
X155350000Y-81350000D02*
X150850000Y-81350000D01*
X155350000Y-81350000D02*
X155350000Y-58650000D01*
%TO.C,BT2*%
X174650000Y-58650000D02*
X174650000Y-81350000D01*
X174650000Y-58650000D02*
X179150000Y-58650000D01*
X174650000Y-81350000D02*
X179150000Y-81350000D01*
X179150000Y-55450000D02*
X180700000Y-55450000D01*
X179150000Y-58650000D02*
X179150000Y-55450000D01*
X179150000Y-81350000D02*
X179150000Y-84550000D01*
X179150000Y-84550000D02*
X180700000Y-84550000D01*
X186850000Y-55450000D02*
X185300000Y-55450000D01*
X186850000Y-58650000D02*
X186850000Y-55450000D01*
X186850000Y-81350000D02*
X186850000Y-84550000D01*
X186850000Y-84550000D02*
X185300000Y-84550000D01*
X188000000Y-57000000D02*
X190000000Y-57000000D01*
X189000000Y-58000000D02*
X189000000Y-56000000D01*
X189550000Y-58650000D02*
X186850000Y-58650000D01*
X191350000Y-60450000D02*
X189550000Y-58650000D01*
X191350000Y-81350000D02*
X186850000Y-81350000D01*
X191350000Y-81350000D02*
X191350000Y-60450000D01*
%TO.C,SW1*%
X157400000Y-50600000D02*
X157400000Y-50600000D01*
X157400000Y-50600000D02*
X157400000Y-54400000D01*
X157400000Y-54400000D02*
X158800000Y-54400000D01*
X159100000Y-50300000D02*
X159100000Y-50600000D01*
X159100000Y-50600000D02*
X157400000Y-50600000D01*
X159900000Y-50300000D02*
X159100000Y-50300000D01*
X159900000Y-50600000D02*
X159900000Y-50300000D01*
X160000000Y-48700000D02*
X160000000Y-49200000D01*
X160000000Y-48700000D02*
X160500000Y-48700000D01*
X160000000Y-49200000D02*
X160000000Y-49200000D01*
X160000000Y-49500000D02*
X160000000Y-50000000D01*
X160000000Y-50000000D02*
X160000000Y-50000000D01*
X160200000Y-54400000D02*
X160200000Y-54400000D01*
X160500000Y-48700000D02*
X160500000Y-48700000D01*
X160800000Y-48700000D02*
X161300000Y-48700000D01*
X161300000Y-48700000D02*
X161300000Y-48700000D01*
X161300000Y-54400000D02*
X160200000Y-54400000D01*
X161600000Y-48700000D02*
X161600000Y-48700000D01*
X161600000Y-50300000D02*
X161600000Y-50600000D01*
X161600000Y-50600000D02*
X159900000Y-50600000D01*
X162400000Y-48700000D02*
X161600000Y-48700000D01*
X162400000Y-50300000D02*
X161600000Y-50300000D01*
X162400000Y-50600000D02*
X162400000Y-50300000D01*
X162700000Y-48700000D02*
X162700000Y-48700000D01*
X162700000Y-54400000D02*
X162700000Y-54400000D01*
X163200000Y-48700000D02*
X162700000Y-48700000D01*
X163500000Y-48700000D02*
X163500000Y-48700000D01*
X163800000Y-54400000D02*
X162700000Y-54400000D01*
X164000000Y-48700000D02*
X163500000Y-48700000D01*
X164000000Y-48700000D02*
X164000000Y-49200000D01*
X164000000Y-49200000D02*
X164000000Y-49200000D01*
X164000000Y-49500000D02*
X164000000Y-50000000D01*
X164000000Y-50000000D02*
X164000000Y-50000000D01*
X164100000Y-50300000D02*
X164100000Y-50600000D01*
X164100000Y-50600000D02*
X162400000Y-50600000D01*
X164900000Y-50300000D02*
X164100000Y-50300000D01*
X164900000Y-50600000D02*
X164900000Y-50300000D01*
X165200000Y-54400000D02*
X166600000Y-54400000D01*
X166600000Y-50600000D02*
X164900000Y-50600000D01*
X166600000Y-54400000D02*
X166600000Y-50600000D01*
%TD*%
M02*
