%TF.GenerationSoftware,KiCad,Pcbnew,7.0.10*%
%TF.CreationDate,2024-11-14T13:46:34+00:00*%
%TF.ProjectId,session_1_pcb,73657373-696f-46e5-9f31-5f7063622e6b,rev?*%
%TF.SameCoordinates,Original*%
%TF.FileFunction,Soldermask,Top*%
%TF.FilePolarity,Negative*%
%FSLAX46Y46*%
G04 Gerber Fmt 4.6, Leading zero omitted, Abs format (unit mm)*
G04 Created by KiCad (PCBNEW 7.0.10) date 2024-11-14 13:46:34*
%MOMM*%
%LPD*%
G01*
G04 APERTURE LIST*
G04 Aperture macros list*
%AMRoundRect*
0 Rectangle with rounded corners*
0 $1 Rounding radius*
0 $2 $3 $4 $5 $6 $7 $8 $9 X,Y pos of 4 corners*
0 Add a 4 corners polygon primitive as box body*
4,1,4,$2,$3,$4,$5,$6,$7,$8,$9,$2,$3,0*
0 Add four circle primitives for the rounded corners*
1,1,$1+$1,$2,$3*
1,1,$1+$1,$4,$5*
1,1,$1+$1,$6,$7*
1,1,$1+$1,$8,$9*
0 Add four rect primitives between the rounded corners*
20,1,$1+$1,$2,$3,$4,$5,0*
20,1,$1+$1,$4,$5,$6,$7,0*
20,1,$1+$1,$6,$7,$8,$9,0*
20,1,$1+$1,$8,$9,$2,$3,0*%
G04 Aperture macros list end*
%ADD10RoundRect,0.250000X0.325000X0.450000X-0.325000X0.450000X-0.325000X-0.450000X0.325000X-0.450000X0*%
%ADD11R,2.200000X1.800000*%
%ADD12RoundRect,0.250000X-0.350000X-0.450000X0.350000X-0.450000X0.350000X0.450000X-0.350000X0.450000X0*%
%ADD13R,1.700000X1.700000*%
%ADD14O,1.700000X1.700000*%
%ADD15R,1.800000X2.200000*%
G04 APERTURE END LIST*
D10*
%TO.C,D4*%
X141410000Y-68000000D03*
X139360000Y-68000000D03*
%TD*%
%TO.C,D1*%
X141385000Y-59000000D03*
X139335000Y-59000000D03*
%TD*%
D11*
%TO.C,U2*%
X163050000Y-61190000D03*
X163050000Y-63730000D03*
X163050000Y-66270000D03*
X163050000Y-68810000D03*
X178550000Y-68810000D03*
X178550000Y-66270000D03*
X178550000Y-63730000D03*
X178550000Y-61190000D03*
%TD*%
D12*
%TO.C,R2*%
X134640000Y-62000000D03*
X136640000Y-62000000D03*
%TD*%
D13*
%TO.C,J1*%
X102000000Y-42000000D03*
D14*
X102000000Y-44540000D03*
%TD*%
D12*
%TO.C,R4*%
X134640000Y-68000000D03*
X136640000Y-68000000D03*
%TD*%
D15*
%TO.C,U1*%
X102110000Y-74000000D03*
X104650000Y-74000000D03*
X107190000Y-74000000D03*
X109730000Y-74000000D03*
X112270000Y-74000000D03*
X114810000Y-74000000D03*
X117350000Y-74000000D03*
X119890000Y-74000000D03*
X119890000Y-56000000D03*
X117350000Y-56000000D03*
X114810000Y-56000000D03*
X112270000Y-56000000D03*
X109730000Y-56000000D03*
X107190000Y-56000000D03*
X104650000Y-56000000D03*
X102110000Y-56000000D03*
%TD*%
D12*
%TO.C,R3*%
X134640000Y-65000000D03*
X136640000Y-65000000D03*
%TD*%
%TO.C,R5*%
X134640000Y-71100000D03*
X136640000Y-71100000D03*
%TD*%
%TO.C,R1*%
X134615000Y-59000000D03*
X136615000Y-59000000D03*
%TD*%
D10*
%TO.C,D5*%
X141410000Y-71100000D03*
X139360000Y-71100000D03*
%TD*%
%TO.C,D3*%
X141410000Y-65000000D03*
X139360000Y-65000000D03*
%TD*%
%TO.C,D2*%
X141410000Y-62000000D03*
X139360000Y-62000000D03*
%TD*%
M02*
