%TF.GenerationSoftware,KiCad,Pcbnew,7.0.10*%
%TF.CreationDate,2024-11-14T13:46:34+00:00*%
%TF.ProjectId,session_1_pcb,73657373-696f-46e5-9f31-5f7063622e6b,rev?*%
%TF.SameCoordinates,Original*%
%TF.FileFunction,Copper,L2,Bot*%
%TF.FilePolarity,Positive*%
%FSLAX46Y46*%
G04 Gerber Fmt 4.6, Leading zero omitted, Abs format (unit mm)*
G04 Created by KiCad (PCBNEW 7.0.10) date 2024-11-14 13:46:34*
%MOMM*%
%LPD*%
G01*
G04 APERTURE LIST*
%TA.AperFunction,ComponentPad*%
%ADD10R,1.700000X1.700000*%
%TD*%
%TA.AperFunction,ComponentPad*%
%ADD11O,1.700000X1.700000*%
%TD*%
%TA.AperFunction,SMDPad,CuDef*%
%ADD12R,2.600000X3.600000*%
%TD*%
%TA.AperFunction,SMDPad,CuDef*%
%ADD13R,1.120000X2.160000*%
%TD*%
%TA.AperFunction,ViaPad*%
%ADD14C,1.200000*%
%TD*%
%TA.AperFunction,Conductor*%
%ADD15C,0.800000*%
%TD*%
%TA.AperFunction,Conductor*%
%ADD16C,0.400000*%
%TD*%
G04 APERTURE END LIST*
D10*
%TO.P,J1,1,Pin_1*%
%TO.N,VDD*%
X102000000Y-42000000D03*
D11*
%TO.P,J1,2,Pin_2*%
%TO.N,GND*%
X102000000Y-44540000D03*
%TD*%
D12*
%TO.P,BT1,1,+*%
%TO.N,/vsw*%
X108300000Y-79800000D03*
%TO.P,BT1,2,-*%
%TO.N,Net-(BT1--)*%
X137600000Y-79800000D03*
%TD*%
%TO.P,BT2,1,+*%
%TO.N,Net-(BT1--)*%
X142300000Y-79800000D03*
%TO.P,BT2,2,-*%
%TO.N,GND*%
X171600000Y-79800000D03*
%TD*%
D13*
%TO.P,SW1,1,A*%
%TO.N,unconnected-(SW1A-A-Pad1)*%
X142540000Y-49000000D03*
%TO.P,SW1,2,B*%
%TO.N,/vsw*%
X140000000Y-49000000D03*
%TO.P,SW1,3,C*%
%TO.N,VDD*%
X137460000Y-49000000D03*
%TO.P,SW1,4,A*%
%TO.N,unconnected-(SW1B-A-Pad4)*%
X137460000Y-42270000D03*
%TO.P,SW1,5,B*%
%TO.N,unconnected-(SW1B-B-Pad5)*%
X140000000Y-42270000D03*
%TO.P,SW1,6,C*%
%TO.N,unconnected-(SW1B-C-Pad6)*%
X142540000Y-42270000D03*
%TD*%
D14*
%TO.N,GND*%
X175000000Y-50000000D03*
X165000000Y-50000000D03*
X125000000Y-45000000D03*
X155000000Y-80000000D03*
X165000000Y-80000000D03*
X155000000Y-85000000D03*
X145000000Y-70000000D03*
X165000000Y-85000000D03*
X105000000Y-85000000D03*
X145000000Y-60000000D03*
X145000000Y-80000000D03*
X155000000Y-65000000D03*
X155000000Y-55000000D03*
X155000000Y-45000000D03*
X145000000Y-85000000D03*
X115000000Y-80000000D03*
X175000000Y-80000000D03*
X175000000Y-45000000D03*
X125000000Y-85000000D03*
X155000000Y-75000000D03*
X145000000Y-45000000D03*
X135000000Y-80000000D03*
X105000000Y-80000000D03*
X115000000Y-45000000D03*
X175000000Y-85000000D03*
X155000000Y-60000000D03*
X145000000Y-55000000D03*
X145000000Y-65000000D03*
X135000000Y-45000000D03*
X115000000Y-85000000D03*
X135000000Y-85000000D03*
X125000000Y-80000000D03*
X165000000Y-45000000D03*
X135000000Y-55000000D03*
%TO.N,VDD*%
X102000000Y-51200000D03*
%TO.N,/3.3V*%
X160400000Y-68800000D03*
X160400000Y-52200000D03*
%TD*%
D15*
%TO.N,Net-(BT1--)*%
X142300000Y-79800000D02*
X137600000Y-79800000D01*
%TO.N,VDD*%
X102000000Y-42000000D02*
X104000000Y-42000000D01*
X104000000Y-42000000D02*
X105000000Y-43000000D01*
X105000000Y-43000000D02*
X105000000Y-49000000D01*
X105000000Y-49000000D02*
X104200000Y-49000000D01*
X104200000Y-49000000D02*
X102000000Y-51200000D01*
X137460000Y-49000000D02*
X105000000Y-49000000D01*
D16*
%TO.N,/3.3V*%
X160400000Y-68800000D02*
X160400000Y-52200000D01*
D15*
%TO.N,/vsw*%
X108300000Y-53500000D02*
X109600000Y-52200000D01*
X139200000Y-52200000D02*
X140000000Y-51400000D01*
X140000000Y-51400000D02*
X140000000Y-49000000D01*
X109600000Y-52200000D02*
X139200000Y-52200000D01*
X108300000Y-79800000D02*
X108300000Y-53500000D01*
%TD*%
%TA.AperFunction,Conductor*%
%TO.N,GND*%
G36*
X179942539Y-40020185D02*
G01*
X179988294Y-40072989D01*
X179999500Y-40124500D01*
X179999500Y-89875500D01*
X179979815Y-89942539D01*
X179927011Y-89988294D01*
X179875500Y-89999500D01*
X100124500Y-89999500D01*
X100057461Y-89979815D01*
X100011706Y-89927011D01*
X100000500Y-89875500D01*
X100000500Y-81647870D01*
X106499500Y-81647870D01*
X106499501Y-81647876D01*
X106505908Y-81707483D01*
X106556202Y-81842328D01*
X106556206Y-81842335D01*
X106642452Y-81957544D01*
X106642455Y-81957547D01*
X106757664Y-82043793D01*
X106757671Y-82043797D01*
X106892517Y-82094091D01*
X106892516Y-82094091D01*
X106899444Y-82094835D01*
X106952127Y-82100500D01*
X109647872Y-82100499D01*
X109707483Y-82094091D01*
X109842331Y-82043796D01*
X109957546Y-81957546D01*
X110043796Y-81842331D01*
X110094091Y-81707483D01*
X110100500Y-81647873D01*
X110100500Y-81647870D01*
X135799500Y-81647870D01*
X135799501Y-81647876D01*
X135805908Y-81707483D01*
X135856202Y-81842328D01*
X135856206Y-81842335D01*
X135942452Y-81957544D01*
X135942455Y-81957547D01*
X136057664Y-82043793D01*
X136057671Y-82043797D01*
X136192517Y-82094091D01*
X136192516Y-82094091D01*
X136199444Y-82094835D01*
X136252127Y-82100500D01*
X138947872Y-82100499D01*
X139007483Y-82094091D01*
X139142331Y-82043796D01*
X139257546Y-81957546D01*
X139343796Y-81842331D01*
X139394091Y-81707483D01*
X139400500Y-81647873D01*
X139400499Y-81159414D01*
X139420183Y-81092376D01*
X139460701Y-81053086D01*
X139886203Y-80797786D01*
X139953814Y-80780175D01*
X140013795Y-80797787D01*
X140308929Y-80974867D01*
X140439293Y-81053086D01*
X140439297Y-81053088D01*
X140486656Y-81104459D01*
X140499500Y-81159417D01*
X140499500Y-81647870D01*
X140499501Y-81647876D01*
X140505908Y-81707483D01*
X140556202Y-81842328D01*
X140556206Y-81842335D01*
X140642452Y-81957544D01*
X140642455Y-81957547D01*
X140757664Y-82043793D01*
X140757671Y-82043797D01*
X140892517Y-82094091D01*
X140892516Y-82094091D01*
X140899444Y-82094835D01*
X140952127Y-82100500D01*
X143647872Y-82100499D01*
X143707483Y-82094091D01*
X143842331Y-82043796D01*
X143957546Y-81957546D01*
X144043796Y-81842331D01*
X144094091Y-81707483D01*
X144100500Y-81647873D01*
X144100499Y-80050000D01*
X169800000Y-80050000D01*
X169800000Y-81647844D01*
X169806401Y-81707372D01*
X169806403Y-81707379D01*
X169856645Y-81842086D01*
X169856649Y-81842093D01*
X169942809Y-81957187D01*
X169942812Y-81957190D01*
X170057906Y-82043350D01*
X170057913Y-82043354D01*
X170192620Y-82093596D01*
X170192627Y-82093598D01*
X170252155Y-82099999D01*
X170252172Y-82100000D01*
X171350000Y-82100000D01*
X171350000Y-80050000D01*
X171850000Y-80050000D01*
X171850000Y-82100000D01*
X172947828Y-82100000D01*
X172947844Y-82099999D01*
X173007372Y-82093598D01*
X173007379Y-82093596D01*
X173142086Y-82043354D01*
X173142093Y-82043350D01*
X173257187Y-81957190D01*
X173257190Y-81957187D01*
X173343350Y-81842093D01*
X173343354Y-81842086D01*
X173393596Y-81707379D01*
X173393598Y-81707372D01*
X173399999Y-81647844D01*
X173400000Y-81647827D01*
X173400000Y-80050000D01*
X171850000Y-80050000D01*
X171350000Y-80050000D01*
X169800000Y-80050000D01*
X144100499Y-80050000D01*
X144100499Y-79550000D01*
X169800000Y-79550000D01*
X171350000Y-79550000D01*
X171350000Y-77500000D01*
X171850000Y-77500000D01*
X171850000Y-79550000D01*
X173400000Y-79550000D01*
X173400000Y-77952172D01*
X173399999Y-77952155D01*
X173393598Y-77892627D01*
X173393596Y-77892620D01*
X173343354Y-77757913D01*
X173343350Y-77757906D01*
X173257190Y-77642812D01*
X173257187Y-77642809D01*
X173142093Y-77556649D01*
X173142086Y-77556645D01*
X173007379Y-77506403D01*
X173007372Y-77506401D01*
X172947844Y-77500000D01*
X171850000Y-77500000D01*
X171350000Y-77500000D01*
X170252155Y-77500000D01*
X170192627Y-77506401D01*
X170192620Y-77506403D01*
X170057913Y-77556645D01*
X170057906Y-77556649D01*
X169942812Y-77642809D01*
X169942809Y-77642812D01*
X169856649Y-77757906D01*
X169856645Y-77757913D01*
X169806403Y-77892620D01*
X169806401Y-77892627D01*
X169800000Y-77952155D01*
X169800000Y-79550000D01*
X144100499Y-79550000D01*
X144100499Y-77952128D01*
X144094091Y-77892517D01*
X144043884Y-77757906D01*
X144043797Y-77757671D01*
X144043793Y-77757664D01*
X143957547Y-77642455D01*
X143957544Y-77642452D01*
X143842335Y-77556206D01*
X143842328Y-77556202D01*
X143707482Y-77505908D01*
X143707483Y-77505908D01*
X143647883Y-77499501D01*
X143647881Y-77499500D01*
X143647873Y-77499500D01*
X143647864Y-77499500D01*
X140952129Y-77499500D01*
X140952123Y-77499501D01*
X140892516Y-77505908D01*
X140757671Y-77556202D01*
X140757664Y-77556206D01*
X140642455Y-77642452D01*
X140642452Y-77642455D01*
X140556206Y-77757664D01*
X140556202Y-77757671D01*
X140505908Y-77892517D01*
X140499501Y-77952116D01*
X140499501Y-77952123D01*
X140499500Y-77952135D01*
X140499500Y-78440582D01*
X140479815Y-78507621D01*
X140439297Y-78546911D01*
X140013797Y-78802211D01*
X139946184Y-78819823D01*
X139886202Y-78802211D01*
X139460701Y-78546910D01*
X139413343Y-78495539D01*
X139400499Y-78440581D01*
X139400499Y-77952129D01*
X139400498Y-77952123D01*
X139400497Y-77952116D01*
X139394091Y-77892517D01*
X139343884Y-77757906D01*
X139343797Y-77757671D01*
X139343793Y-77757664D01*
X139257547Y-77642455D01*
X139257544Y-77642452D01*
X139142335Y-77556206D01*
X139142328Y-77556202D01*
X139007482Y-77505908D01*
X139007483Y-77505908D01*
X138947883Y-77499501D01*
X138947881Y-77499500D01*
X138947873Y-77499500D01*
X138947864Y-77499500D01*
X136252129Y-77499500D01*
X136252123Y-77499501D01*
X136192516Y-77505908D01*
X136057671Y-77556202D01*
X136057664Y-77556206D01*
X135942455Y-77642452D01*
X135942452Y-77642455D01*
X135856206Y-77757664D01*
X135856202Y-77757671D01*
X135805908Y-77892517D01*
X135799501Y-77952116D01*
X135799501Y-77952123D01*
X135799500Y-77952135D01*
X135799500Y-81647870D01*
X110100500Y-81647870D01*
X110100499Y-77952128D01*
X110094091Y-77892517D01*
X110043884Y-77757906D01*
X110043797Y-77757671D01*
X110043793Y-77757664D01*
X109957547Y-77642455D01*
X109957544Y-77642452D01*
X109842335Y-77556206D01*
X109842328Y-77556202D01*
X109707482Y-77505908D01*
X109707484Y-77505908D01*
X109646499Y-77499352D01*
X109581948Y-77472614D01*
X109553426Y-77439860D01*
X109218171Y-76881101D01*
X109200500Y-76817304D01*
X109200500Y-68800000D01*
X159294785Y-68800000D01*
X159313602Y-69003082D01*
X159369417Y-69199247D01*
X159369422Y-69199260D01*
X159460327Y-69381821D01*
X159583237Y-69544581D01*
X159733958Y-69681980D01*
X159733960Y-69681982D01*
X159833141Y-69743392D01*
X159907363Y-69789348D01*
X160097544Y-69863024D01*
X160298024Y-69900500D01*
X160298026Y-69900500D01*
X160501974Y-69900500D01*
X160501976Y-69900500D01*
X160702456Y-69863024D01*
X160892637Y-69789348D01*
X161066041Y-69681981D01*
X161216764Y-69544579D01*
X161339673Y-69381821D01*
X161430582Y-69199250D01*
X161486397Y-69003083D01*
X161505215Y-68800000D01*
X161486397Y-68596917D01*
X161430582Y-68400750D01*
X161430580Y-68400746D01*
X161428510Y-68395402D01*
X161428948Y-68395232D01*
X161427130Y-68390549D01*
X161426843Y-68390654D01*
X161108022Y-67517504D01*
X161100500Y-67474973D01*
X161100500Y-53525025D01*
X161108022Y-53482494D01*
X161118861Y-53452811D01*
X161425324Y-52613506D01*
X161425656Y-52612457D01*
X161426162Y-52611210D01*
X161426230Y-52611026D01*
X161426236Y-52611028D01*
X161428796Y-52604714D01*
X161428508Y-52604603D01*
X161430580Y-52599254D01*
X161430579Y-52599254D01*
X161430582Y-52599250D01*
X161436330Y-52579044D01*
X161437419Y-52575429D01*
X161438333Y-52572554D01*
X161438333Y-52572550D01*
X161438554Y-52571856D01*
X161439896Y-52566511D01*
X161486397Y-52403083D01*
X161505215Y-52200000D01*
X161486397Y-51996917D01*
X161430582Y-51800750D01*
X161407779Y-51754956D01*
X161340709Y-51620260D01*
X161339673Y-51618179D01*
X161225861Y-51467467D01*
X161216762Y-51455418D01*
X161066041Y-51318019D01*
X161066039Y-51318017D01*
X160892642Y-51210655D01*
X160892635Y-51210651D01*
X160797546Y-51173814D01*
X160702456Y-51136976D01*
X160501976Y-51099500D01*
X160298024Y-51099500D01*
X160097544Y-51136976D01*
X160097541Y-51136976D01*
X160097541Y-51136977D01*
X159907364Y-51210651D01*
X159907357Y-51210655D01*
X159733960Y-51318017D01*
X159733958Y-51318019D01*
X159583237Y-51455418D01*
X159460327Y-51618178D01*
X159369422Y-51800739D01*
X159369417Y-51800752D01*
X159313602Y-51996917D01*
X159294785Y-52199999D01*
X159294785Y-52200000D01*
X159313602Y-52403082D01*
X159313603Y-52403084D01*
X159369416Y-52599247D01*
X159371490Y-52604600D01*
X159371056Y-52604767D01*
X159372874Y-52609454D01*
X159373157Y-52609351D01*
X159551718Y-53098371D01*
X159690943Y-53479663D01*
X159691978Y-53482496D01*
X159699500Y-53525027D01*
X159699500Y-67474972D01*
X159691978Y-67517503D01*
X159374670Y-68386508D01*
X159374320Y-68387610D01*
X159373783Y-68388937D01*
X159373773Y-68388966D01*
X159373772Y-68388965D01*
X159371209Y-68395305D01*
X159371485Y-68395412D01*
X159369418Y-68400747D01*
X159363668Y-68420955D01*
X159362590Y-68424537D01*
X159361444Y-68428144D01*
X159360095Y-68433513D01*
X159313603Y-68596914D01*
X159313602Y-68596917D01*
X159294785Y-68799999D01*
X159294785Y-68800000D01*
X109200500Y-68800000D01*
X109200500Y-53924361D01*
X109220185Y-53857322D01*
X109236819Y-53836680D01*
X109936681Y-53136819D01*
X109998004Y-53103334D01*
X110024362Y-53100500D01*
X139119373Y-53100500D01*
X139138772Y-53102027D01*
X139152612Y-53104219D01*
X139220337Y-53100670D01*
X139226826Y-53100500D01*
X139247191Y-53100500D01*
X139247192Y-53100500D01*
X139258393Y-53099322D01*
X139267448Y-53098371D01*
X139273906Y-53097862D01*
X139341646Y-53094313D01*
X139355187Y-53090683D01*
X139374313Y-53087138D01*
X139388256Y-53085674D01*
X139452786Y-53064706D01*
X139458951Y-53062880D01*
X139524488Y-53045320D01*
X139536976Y-53038956D01*
X139554950Y-53031510D01*
X139568284Y-53027179D01*
X139627051Y-52993248D01*
X139632693Y-52990185D01*
X139693149Y-52959383D01*
X139704031Y-52950569D01*
X139720083Y-52939537D01*
X139732216Y-52932533D01*
X139782654Y-52887117D01*
X139787540Y-52882945D01*
X139803380Y-52870119D01*
X139817801Y-52855696D01*
X139822472Y-52851264D01*
X139872888Y-52805871D01*
X139881130Y-52794525D01*
X139893760Y-52779737D01*
X140579742Y-52093756D01*
X140594525Y-52081130D01*
X140605871Y-52072888D01*
X140651256Y-52022481D01*
X140655687Y-52017811D01*
X140670120Y-52003380D01*
X140682958Y-51987523D01*
X140687128Y-51982641D01*
X140732533Y-51932216D01*
X140739537Y-51920083D01*
X140750563Y-51904041D01*
X140759382Y-51893150D01*
X140759383Y-51893149D01*
X140790185Y-51832693D01*
X140793248Y-51827051D01*
X140827179Y-51768284D01*
X140831509Y-51754956D01*
X140838960Y-51736969D01*
X140845319Y-51724489D01*
X140845320Y-51724488D01*
X140862872Y-51658980D01*
X140864704Y-51652792D01*
X140885674Y-51588256D01*
X140887139Y-51574317D01*
X140890687Y-51555175D01*
X140892406Y-51548761D01*
X140894313Y-51541645D01*
X140897862Y-51473903D01*
X140898371Y-51467448D01*
X140900499Y-51447199D01*
X140900500Y-51447191D01*
X140900500Y-51426824D01*
X140900670Y-51420335D01*
X140901574Y-51403082D01*
X140904219Y-51352612D01*
X140902027Y-51338772D01*
X140900500Y-51319373D01*
X140900500Y-50745663D01*
X140905271Y-50711598D01*
X140931962Y-50618178D01*
X141044773Y-50223340D01*
X141050002Y-50201206D01*
X141053824Y-50188611D01*
X141054089Y-50187486D01*
X141054091Y-50187483D01*
X141054091Y-50187479D01*
X141054357Y-50186355D01*
X141054819Y-50183656D01*
X141054722Y-50183643D01*
X141055523Y-50177844D01*
X141055526Y-50177836D01*
X141055620Y-50175637D01*
X141056214Y-50167730D01*
X141060500Y-50127873D01*
X141060500Y-50127870D01*
X141479500Y-50127870D01*
X141479501Y-50127876D01*
X141485908Y-50187483D01*
X141536202Y-50322328D01*
X141536206Y-50322335D01*
X141622452Y-50437544D01*
X141622455Y-50437547D01*
X141737664Y-50523793D01*
X141737671Y-50523797D01*
X141872517Y-50574091D01*
X141872516Y-50574091D01*
X141879444Y-50574835D01*
X141932127Y-50580500D01*
X143147872Y-50580499D01*
X143207483Y-50574091D01*
X143342331Y-50523796D01*
X143457546Y-50437546D01*
X143543796Y-50322331D01*
X143594091Y-50187483D01*
X143600500Y-50127873D01*
X143600499Y-47872128D01*
X143594091Y-47812517D01*
X143543796Y-47677669D01*
X143543795Y-47677668D01*
X143543793Y-47677664D01*
X143457547Y-47562455D01*
X143457544Y-47562452D01*
X143342335Y-47476206D01*
X143342328Y-47476202D01*
X143207482Y-47425908D01*
X143207483Y-47425908D01*
X143147883Y-47419501D01*
X143147881Y-47419500D01*
X143147873Y-47419500D01*
X143147864Y-47419500D01*
X141932129Y-47419500D01*
X141932123Y-47419501D01*
X141872516Y-47425908D01*
X141737671Y-47476202D01*
X141737664Y-47476206D01*
X141622455Y-47562452D01*
X141622452Y-47562455D01*
X141536206Y-47677664D01*
X141536202Y-47677671D01*
X141485908Y-47812517D01*
X141479501Y-47872116D01*
X141479501Y-47872123D01*
X141479500Y-47872135D01*
X141479500Y-50127870D01*
X141060500Y-50127870D01*
X141060499Y-50064798D01*
X141060614Y-50059465D01*
X141061706Y-50034095D01*
X141061705Y-50034093D01*
X141061706Y-50034089D01*
X141061117Y-50028208D01*
X141060499Y-50015847D01*
X141060499Y-47872129D01*
X141060498Y-47872123D01*
X141060497Y-47872116D01*
X141054091Y-47812517D01*
X141003796Y-47677669D01*
X141003795Y-47677668D01*
X141003793Y-47677664D01*
X140917547Y-47562455D01*
X140917544Y-47562452D01*
X140802335Y-47476206D01*
X140802328Y-47476202D01*
X140667482Y-47425908D01*
X140667483Y-47425908D01*
X140607883Y-47419501D01*
X140607881Y-47419500D01*
X140607873Y-47419500D01*
X140607864Y-47419500D01*
X139392129Y-47419500D01*
X139392123Y-47419501D01*
X139332516Y-47425908D01*
X139197671Y-47476202D01*
X139197664Y-47476206D01*
X139082455Y-47562452D01*
X139082452Y-47562455D01*
X138996206Y-47677664D01*
X138996202Y-47677671D01*
X138945908Y-47812517D01*
X138939501Y-47872116D01*
X138939501Y-47872123D01*
X138939500Y-47872135D01*
X138939500Y-50015834D01*
X138938884Y-50028179D01*
X138938288Y-50034126D01*
X138938287Y-50034140D01*
X138935788Y-50080774D01*
X138935788Y-50080777D01*
X138938364Y-50099670D01*
X138939500Y-50116408D01*
X138939500Y-50127855D01*
X138939501Y-50127872D01*
X138945908Y-50187483D01*
X138948070Y-50193278D01*
X138954751Y-50219855D01*
X138955225Y-50223334D01*
X138982277Y-50318015D01*
X139068037Y-50618178D01*
X139094729Y-50711598D01*
X139099500Y-50745663D01*
X139099500Y-50975638D01*
X139079815Y-51042677D01*
X139063181Y-51063319D01*
X138863320Y-51263181D01*
X138801997Y-51296666D01*
X138775639Y-51299500D01*
X109680627Y-51299500D01*
X109661228Y-51297973D01*
X109647388Y-51295781D01*
X109579664Y-51299330D01*
X109573175Y-51299500D01*
X109552808Y-51299500D01*
X109541715Y-51300665D01*
X109532552Y-51301628D01*
X109526091Y-51302136D01*
X109458358Y-51305686D01*
X109458353Y-51305687D01*
X109444803Y-51309317D01*
X109425691Y-51312859D01*
X109411749Y-51314325D01*
X109411736Y-51314327D01*
X109347242Y-51335283D01*
X109341033Y-51337122D01*
X109296976Y-51348928D01*
X109275515Y-51354679D01*
X109275514Y-51354679D01*
X109275512Y-51354680D01*
X109263020Y-51361045D01*
X109245053Y-51368487D01*
X109231714Y-51372821D01*
X109172996Y-51406722D01*
X109167295Y-51409817D01*
X109106850Y-51440617D01*
X109095951Y-51449442D01*
X109079931Y-51460452D01*
X109067787Y-51467464D01*
X109067783Y-51467467D01*
X109017395Y-51512836D01*
X109012466Y-51517046D01*
X108996621Y-51529878D01*
X108982203Y-51544296D01*
X108977497Y-51548761D01*
X108927113Y-51594127D01*
X108927105Y-51594136D01*
X108918872Y-51605468D01*
X108906238Y-51620260D01*
X107720263Y-52806236D01*
X107705474Y-52818869D01*
X107694126Y-52827114D01*
X107648751Y-52877508D01*
X107644288Y-52882211D01*
X107629891Y-52896609D01*
X107629875Y-52896627D01*
X107617058Y-52912452D01*
X107612852Y-52917376D01*
X107567469Y-52967781D01*
X107567466Y-52967785D01*
X107560458Y-52979923D01*
X107549444Y-52995948D01*
X107540626Y-53006837D01*
X107540616Y-53006853D01*
X107509819Y-53067294D01*
X107506722Y-53072997D01*
X107472821Y-53131713D01*
X107468487Y-53145053D01*
X107461045Y-53163020D01*
X107454680Y-53175512D01*
X107437126Y-53241018D01*
X107435284Y-53247234D01*
X107414326Y-53311742D01*
X107414325Y-53311745D01*
X107412860Y-53325686D01*
X107409315Y-53344812D01*
X107405686Y-53358352D01*
X107402136Y-53426091D01*
X107401628Y-53432552D01*
X107399500Y-53452811D01*
X107399500Y-53473174D01*
X107399330Y-53479663D01*
X107395781Y-53547387D01*
X107397973Y-53561225D01*
X107399500Y-53580626D01*
X107399500Y-76817303D01*
X107381829Y-76881101D01*
X107046572Y-77439861D01*
X106995201Y-77487219D01*
X106953498Y-77499353D01*
X106892516Y-77505909D01*
X106757671Y-77556202D01*
X106757664Y-77556206D01*
X106642455Y-77642452D01*
X106642452Y-77642455D01*
X106556206Y-77757664D01*
X106556202Y-77757671D01*
X106505908Y-77892517D01*
X106499501Y-77952116D01*
X106499501Y-77952123D01*
X106499500Y-77952135D01*
X106499500Y-81647870D01*
X100000500Y-81647870D01*
X100000500Y-42897870D01*
X100649500Y-42897870D01*
X100649501Y-42897876D01*
X100655908Y-42957483D01*
X100706202Y-43092328D01*
X100706206Y-43092335D01*
X100792452Y-43207544D01*
X100792455Y-43207547D01*
X100907664Y-43293793D01*
X100907671Y-43293797D01*
X100969902Y-43317007D01*
X101039598Y-43343002D01*
X101095531Y-43384873D01*
X101119949Y-43450337D01*
X101105098Y-43518610D01*
X101083947Y-43546865D01*
X100961886Y-43668926D01*
X100826400Y-43862420D01*
X100826399Y-43862422D01*
X100726570Y-44076507D01*
X100726567Y-44076513D01*
X100669364Y-44289999D01*
X100669364Y-44290000D01*
X101566314Y-44290000D01*
X101540507Y-44330156D01*
X101500000Y-44468111D01*
X101500000Y-44611889D01*
X101540507Y-44749844D01*
X101566314Y-44790000D01*
X100669364Y-44790000D01*
X100726567Y-45003486D01*
X100726570Y-45003492D01*
X100826399Y-45217578D01*
X100961894Y-45411082D01*
X101128917Y-45578105D01*
X101322421Y-45713600D01*
X101536507Y-45813429D01*
X101536516Y-45813433D01*
X101750000Y-45870634D01*
X101750000Y-44975501D01*
X101857685Y-45024680D01*
X101964237Y-45040000D01*
X102035763Y-45040000D01*
X102142315Y-45024680D01*
X102250000Y-44975501D01*
X102250000Y-45870633D01*
X102463483Y-45813433D01*
X102463492Y-45813429D01*
X102677578Y-45713600D01*
X102871082Y-45578105D01*
X103038105Y-45411082D01*
X103173600Y-45217578D01*
X103273429Y-45003492D01*
X103273432Y-45003486D01*
X103330636Y-44790000D01*
X102433686Y-44790000D01*
X102459493Y-44749844D01*
X102500000Y-44611889D01*
X102500000Y-44468111D01*
X102459493Y-44330156D01*
X102433686Y-44290000D01*
X103330636Y-44290000D01*
X103330635Y-44289999D01*
X103273432Y-44076513D01*
X103273429Y-44076507D01*
X103173600Y-43862422D01*
X103173599Y-43862420D01*
X103038113Y-43668926D01*
X103038108Y-43668920D01*
X102916053Y-43546865D01*
X102882568Y-43485542D01*
X102887552Y-43415850D01*
X102929424Y-43359917D01*
X102960400Y-43343002D01*
X103030097Y-43317007D01*
X103092329Y-43293797D01*
X103098754Y-43290288D01*
X103100097Y-43289564D01*
X103618060Y-43015348D01*
X103686518Y-43001379D01*
X103751662Y-43026639D01*
X103763758Y-43037258D01*
X104063181Y-43336680D01*
X104096666Y-43398003D01*
X104099500Y-43424361D01*
X104099500Y-47995721D01*
X104079815Y-48062760D01*
X104027011Y-48108515D01*
X104013817Y-48113652D01*
X103947242Y-48135283D01*
X103941033Y-48137122D01*
X103896976Y-48148928D01*
X103875515Y-48154679D01*
X103875514Y-48154679D01*
X103875512Y-48154680D01*
X103863020Y-48161045D01*
X103845053Y-48168487D01*
X103831714Y-48172821D01*
X103772996Y-48206722D01*
X103767295Y-48209817D01*
X103706850Y-48240617D01*
X103695951Y-48249442D01*
X103679931Y-48260452D01*
X103667787Y-48267464D01*
X103667783Y-48267467D01*
X103617395Y-48312836D01*
X103612466Y-48317046D01*
X103596621Y-48329878D01*
X103582203Y-48344296D01*
X103577497Y-48348761D01*
X103527113Y-48394127D01*
X103527105Y-48394136D01*
X103518872Y-48405468D01*
X103506238Y-48420260D01*
X102269834Y-49656665D01*
X102254227Y-49669887D01*
X101434044Y-50255732D01*
X101427248Y-50260255D01*
X101333964Y-50318014D01*
X101333962Y-50318015D01*
X101288088Y-50359835D01*
X101280713Y-50366050D01*
X101260335Y-50381910D01*
X101258890Y-50383133D01*
X101258881Y-50383141D01*
X101231506Y-50411138D01*
X101226388Y-50416080D01*
X101183243Y-50455412D01*
X101183238Y-50455418D01*
X101060327Y-50618178D01*
X100969422Y-50800739D01*
X100969417Y-50800752D01*
X100913602Y-50996917D01*
X100894785Y-51199999D01*
X100894785Y-51200000D01*
X100913602Y-51403082D01*
X100969417Y-51599247D01*
X100969422Y-51599260D01*
X101060327Y-51781821D01*
X101183237Y-51944581D01*
X101322638Y-52071660D01*
X101333013Y-52081119D01*
X101333958Y-52081980D01*
X101333960Y-52081982D01*
X101352986Y-52093762D01*
X101507363Y-52189348D01*
X101697544Y-52263024D01*
X101898024Y-52300500D01*
X101898026Y-52300500D01*
X102101974Y-52300500D01*
X102101976Y-52300500D01*
X102302456Y-52263024D01*
X102492637Y-52189348D01*
X102666041Y-52081981D01*
X102740967Y-52013676D01*
X102743718Y-52011242D01*
X102744170Y-52010853D01*
X102744181Y-52010846D01*
X102744190Y-52010836D01*
X102745512Y-52009701D01*
X102748078Y-52007192D01*
X102816764Y-51944579D01*
X102939673Y-51781821D01*
X102950810Y-51759454D01*
X102960892Y-51742677D01*
X103530106Y-50945775D01*
X103543324Y-50930174D01*
X104536681Y-49936819D01*
X104598004Y-49903334D01*
X104624362Y-49900500D01*
X104905354Y-49900500D01*
X104952808Y-49900500D01*
X136234339Y-49900500D01*
X136268403Y-49905270D01*
X136309566Y-49917031D01*
X136368617Y-49954375D01*
X136398106Y-50017717D01*
X136399500Y-50036259D01*
X136399500Y-50127869D01*
X136399501Y-50127876D01*
X136405908Y-50187483D01*
X136456202Y-50322328D01*
X136456206Y-50322335D01*
X136542452Y-50437544D01*
X136542455Y-50437547D01*
X136657664Y-50523793D01*
X136657671Y-50523797D01*
X136792517Y-50574091D01*
X136792516Y-50574091D01*
X136799444Y-50574835D01*
X136852127Y-50580500D01*
X138067872Y-50580499D01*
X138127483Y-50574091D01*
X138262331Y-50523796D01*
X138377546Y-50437546D01*
X138463796Y-50322331D01*
X138514091Y-50187483D01*
X138520500Y-50127873D01*
X138520499Y-47872128D01*
X138514091Y-47812517D01*
X138463796Y-47677669D01*
X138463795Y-47677668D01*
X138463793Y-47677664D01*
X138377547Y-47562455D01*
X138377544Y-47562452D01*
X138262335Y-47476206D01*
X138262328Y-47476202D01*
X138127482Y-47425908D01*
X138127483Y-47425908D01*
X138067883Y-47419501D01*
X138067881Y-47419500D01*
X138067873Y-47419500D01*
X138067864Y-47419500D01*
X136852129Y-47419500D01*
X136852123Y-47419501D01*
X136792516Y-47425908D01*
X136657671Y-47476202D01*
X136657664Y-47476206D01*
X136542455Y-47562452D01*
X136542452Y-47562455D01*
X136456206Y-47677664D01*
X136456202Y-47677671D01*
X136405908Y-47812517D01*
X136399501Y-47872116D01*
X136399501Y-47872123D01*
X136399500Y-47872135D01*
X136399500Y-47963736D01*
X136379815Y-48030775D01*
X136327011Y-48076530D01*
X136309568Y-48082964D01*
X136268397Y-48094728D01*
X136234329Y-48099500D01*
X106024500Y-48099500D01*
X105957461Y-48079815D01*
X105911706Y-48027011D01*
X105900500Y-47975500D01*
X105900500Y-43397870D01*
X136399500Y-43397870D01*
X136399501Y-43397876D01*
X136405908Y-43457483D01*
X136456202Y-43592328D01*
X136456206Y-43592335D01*
X136542452Y-43707544D01*
X136542455Y-43707547D01*
X136657664Y-43793793D01*
X136657671Y-43793797D01*
X136792517Y-43844091D01*
X136792516Y-43844091D01*
X136799444Y-43844835D01*
X136852127Y-43850500D01*
X138067872Y-43850499D01*
X138127483Y-43844091D01*
X138262331Y-43793796D01*
X138377546Y-43707546D01*
X138463796Y-43592331D01*
X138514091Y-43457483D01*
X138520500Y-43397873D01*
X138520500Y-43397870D01*
X138939500Y-43397870D01*
X138939501Y-43397876D01*
X138945908Y-43457483D01*
X138996202Y-43592328D01*
X138996206Y-43592335D01*
X139082452Y-43707544D01*
X139082455Y-43707547D01*
X139197664Y-43793793D01*
X139197671Y-43793797D01*
X139332517Y-43844091D01*
X139332516Y-43844091D01*
X139339444Y-43844835D01*
X139392127Y-43850500D01*
X140607872Y-43850499D01*
X140667483Y-43844091D01*
X140802331Y-43793796D01*
X140917546Y-43707546D01*
X141003796Y-43592331D01*
X141054091Y-43457483D01*
X141060500Y-43397873D01*
X141060500Y-43397870D01*
X141479500Y-43397870D01*
X141479501Y-43397876D01*
X141485908Y-43457483D01*
X141536202Y-43592328D01*
X141536206Y-43592335D01*
X141622452Y-43707544D01*
X141622455Y-43707547D01*
X141737664Y-43793793D01*
X141737671Y-43793797D01*
X141872517Y-43844091D01*
X141872516Y-43844091D01*
X141879444Y-43844835D01*
X141932127Y-43850500D01*
X143147872Y-43850499D01*
X143207483Y-43844091D01*
X143342331Y-43793796D01*
X143457546Y-43707546D01*
X143543796Y-43592331D01*
X143594091Y-43457483D01*
X143600500Y-43397873D01*
X143600499Y-41142128D01*
X143594091Y-41082517D01*
X143543796Y-40947669D01*
X143543795Y-40947668D01*
X143543793Y-40947664D01*
X143457547Y-40832455D01*
X143457544Y-40832452D01*
X143342335Y-40746206D01*
X143342328Y-40746202D01*
X143207482Y-40695908D01*
X143207483Y-40695908D01*
X143147883Y-40689501D01*
X143147881Y-40689500D01*
X143147873Y-40689500D01*
X143147864Y-40689500D01*
X141932129Y-40689500D01*
X141932123Y-40689501D01*
X141872516Y-40695908D01*
X141737671Y-40746202D01*
X141737664Y-40746206D01*
X141622455Y-40832452D01*
X141622452Y-40832455D01*
X141536206Y-40947664D01*
X141536202Y-40947671D01*
X141485908Y-41082517D01*
X141480236Y-41135282D01*
X141479501Y-41142123D01*
X141479500Y-41142135D01*
X141479500Y-43397870D01*
X141060500Y-43397870D01*
X141060499Y-41142128D01*
X141054091Y-41082517D01*
X141003796Y-40947669D01*
X141003795Y-40947668D01*
X141003793Y-40947664D01*
X140917547Y-40832455D01*
X140917544Y-40832452D01*
X140802335Y-40746206D01*
X140802328Y-40746202D01*
X140667482Y-40695908D01*
X140667483Y-40695908D01*
X140607883Y-40689501D01*
X140607881Y-40689500D01*
X140607873Y-40689500D01*
X140607864Y-40689500D01*
X139392129Y-40689500D01*
X139392123Y-40689501D01*
X139332516Y-40695908D01*
X139197671Y-40746202D01*
X139197664Y-40746206D01*
X139082455Y-40832452D01*
X139082452Y-40832455D01*
X138996206Y-40947664D01*
X138996202Y-40947671D01*
X138945908Y-41082517D01*
X138940236Y-41135282D01*
X138939501Y-41142123D01*
X138939500Y-41142135D01*
X138939500Y-43397870D01*
X138520500Y-43397870D01*
X138520499Y-41142128D01*
X138514091Y-41082517D01*
X138463796Y-40947669D01*
X138463795Y-40947668D01*
X138463793Y-40947664D01*
X138377547Y-40832455D01*
X138377544Y-40832452D01*
X138262335Y-40746206D01*
X138262328Y-40746202D01*
X138127482Y-40695908D01*
X138127483Y-40695908D01*
X138067883Y-40689501D01*
X138067881Y-40689500D01*
X138067873Y-40689500D01*
X138067864Y-40689500D01*
X136852129Y-40689500D01*
X136852123Y-40689501D01*
X136792516Y-40695908D01*
X136657671Y-40746202D01*
X136657664Y-40746206D01*
X136542455Y-40832452D01*
X136542452Y-40832455D01*
X136456206Y-40947664D01*
X136456202Y-40947671D01*
X136405908Y-41082517D01*
X136400236Y-41135282D01*
X136399501Y-41142123D01*
X136399500Y-41142135D01*
X136399500Y-43397870D01*
X105900500Y-43397870D01*
X105900500Y-43080626D01*
X105902027Y-43061225D01*
X105904219Y-43047388D01*
X105900670Y-42979663D01*
X105900500Y-42973174D01*
X105900500Y-42952809D01*
X105900499Y-42952800D01*
X105898371Y-42932552D01*
X105897862Y-42926098D01*
X105894313Y-42858355D01*
X105890685Y-42844814D01*
X105887139Y-42825688D01*
X105885674Y-42811744D01*
X105864707Y-42747217D01*
X105862871Y-42741016D01*
X105845320Y-42675513D01*
X105838953Y-42663018D01*
X105831511Y-42645051D01*
X105827179Y-42631716D01*
X105793272Y-42572987D01*
X105790174Y-42567281D01*
X105759385Y-42506854D01*
X105750558Y-42495953D01*
X105739540Y-42479920D01*
X105732533Y-42467784D01*
X105687145Y-42417375D01*
X105682943Y-42412456D01*
X105670120Y-42396620D01*
X105655697Y-42382197D01*
X105651244Y-42377504D01*
X105605875Y-42327115D01*
X105605869Y-42327110D01*
X105594529Y-42318871D01*
X105579736Y-42306236D01*
X104693764Y-41420265D01*
X104681126Y-41405468D01*
X104672887Y-41394128D01*
X104622483Y-41348743D01*
X104617775Y-41344275D01*
X104603383Y-41329883D01*
X104587554Y-41317063D01*
X104582627Y-41312855D01*
X104532220Y-41267470D01*
X104532213Y-41267465D01*
X104520070Y-41260454D01*
X104504043Y-41249438D01*
X104493153Y-41240620D01*
X104493147Y-41240616D01*
X104432712Y-41209822D01*
X104427009Y-41206726D01*
X104368282Y-41172820D01*
X104354949Y-41168488D01*
X104336978Y-41161043D01*
X104324498Y-41154684D01*
X104324486Y-41154679D01*
X104258976Y-41137125D01*
X104252755Y-41135282D01*
X104188262Y-41114328D01*
X104188256Y-41114326D01*
X104188251Y-41114325D01*
X104188249Y-41114325D01*
X104174314Y-41112860D01*
X104155189Y-41109315D01*
X104141653Y-41105688D01*
X104141643Y-41105686D01*
X104073909Y-41102136D01*
X104067448Y-41101628D01*
X104058228Y-41100659D01*
X104047192Y-41099500D01*
X104047188Y-41099500D01*
X104026826Y-41099500D01*
X104020337Y-41099330D01*
X103952610Y-41095780D01*
X103938772Y-41097973D01*
X103919373Y-41099500D01*
X103865798Y-41099500D01*
X103807780Y-41085090D01*
X103802918Y-41082516D01*
X103100061Y-40710415D01*
X103098716Y-40709691D01*
X103092332Y-40706204D01*
X103052222Y-40691244D01*
X103051257Y-40690879D01*
X102979625Y-40663481D01*
X102976023Y-40662349D01*
X102976040Y-40662292D01*
X102967519Y-40659652D01*
X102957483Y-40655909D01*
X102957481Y-40655908D01*
X102957479Y-40655908D01*
X102897883Y-40649501D01*
X102897881Y-40649500D01*
X102897873Y-40649500D01*
X102897864Y-40649500D01*
X101102129Y-40649500D01*
X101102123Y-40649501D01*
X101042516Y-40655908D01*
X100907671Y-40706202D01*
X100907664Y-40706206D01*
X100792455Y-40792452D01*
X100792452Y-40792455D01*
X100706206Y-40907664D01*
X100706202Y-40907671D01*
X100655908Y-41042517D01*
X100649501Y-41102116D01*
X100649500Y-41102135D01*
X100649500Y-42897870D01*
X100000500Y-42897870D01*
X100000500Y-40124500D01*
X100020185Y-40057461D01*
X100072989Y-40011706D01*
X100124500Y-40000500D01*
X179875500Y-40000500D01*
X179942539Y-40020185D01*
G37*
%TD.AperFunction*%
%TD*%
%TA.AperFunction,Conductor*%
%TO.N,VDD*%
G36*
X102857630Y-41154039D02*
G01*
X103693775Y-41596704D01*
X103699483Y-41603602D01*
X103700000Y-41607043D01*
X103700000Y-42392956D01*
X103696573Y-42401229D01*
X103693774Y-42403296D01*
X102857632Y-42845959D01*
X102848717Y-42846802D01*
X102843890Y-42843897D01*
X102400701Y-42401229D01*
X102007286Y-42008276D01*
X102003855Y-42000007D01*
X102007276Y-41991733D01*
X102843891Y-41156101D01*
X102852165Y-41152680D01*
X102857630Y-41154039D01*
G37*
%TD.AperFunction*%
%TD*%
%TA.AperFunction,Conductor*%
%TO.N,VDD*%
G36*
X136902283Y-48442911D02*
G01*
X136904865Y-48444857D01*
X137236117Y-48775518D01*
X137452704Y-48991719D01*
X137456138Y-48999990D01*
X137452719Y-49008266D01*
X137452704Y-49008281D01*
X136904867Y-49555141D01*
X136896591Y-49558560D01*
X136893387Y-49558110D01*
X136348486Y-49402424D01*
X136341472Y-49396856D01*
X136340000Y-49391174D01*
X136340000Y-48608825D01*
X136343427Y-48600552D01*
X136348484Y-48597575D01*
X136893388Y-48441889D01*
X136902283Y-48442911D01*
G37*
%TD.AperFunction*%
%TD*%
%TA.AperFunction,Conductor*%
%TO.N,/vsw*%
G36*
X108701648Y-77003427D02*
G01*
X108703408Y-77005680D01*
X109296524Y-77994206D01*
X109297842Y-78003064D01*
X109296720Y-78005906D01*
X108310229Y-79782577D01*
X108303217Y-79788146D01*
X108294320Y-79787126D01*
X108289771Y-79782577D01*
X107303279Y-78005906D01*
X107302259Y-77997009D01*
X107303471Y-77994214D01*
X107896592Y-77005680D01*
X107903787Y-77000349D01*
X107906625Y-77000000D01*
X108693375Y-77000000D01*
X108701648Y-77003427D01*
G37*
%TD.AperFunction*%
%TD*%
%TA.AperFunction,Conductor*%
%TO.N,/vsw*%
G36*
X140005382Y-49014047D02*
G01*
X140010389Y-49019054D01*
X140557862Y-50075873D01*
X140558723Y-50084469D01*
X140402425Y-50631514D01*
X140396857Y-50638528D01*
X140391175Y-50640000D01*
X139608825Y-50640000D01*
X139600552Y-50636573D01*
X139597575Y-50631514D01*
X139441276Y-50084466D01*
X139442136Y-50075875D01*
X139989611Y-49019053D01*
X139996460Y-49013285D01*
X140005382Y-49014047D01*
G37*
%TD.AperFunction*%
%TD*%
%TA.AperFunction,Conductor*%
%TO.N,Net-(BT1--)*%
G36*
X138906831Y-78804098D02*
G01*
X139894320Y-79396592D01*
X139899651Y-79403787D01*
X139900000Y-79406625D01*
X139900000Y-80193375D01*
X139896573Y-80201648D01*
X139894320Y-80203408D01*
X138906832Y-80795900D01*
X138897974Y-80797218D01*
X138893682Y-80795143D01*
X137611068Y-79809276D01*
X137606597Y-79801518D01*
X137608922Y-79792870D01*
X137611068Y-79790724D01*
X138893682Y-78804856D01*
X138902330Y-78802531D01*
X138906831Y-78804098D01*
G37*
%TD.AperFunction*%
%TD*%
%TA.AperFunction,Conductor*%
%TO.N,VDD*%
G36*
X102572693Y-50075638D02*
G01*
X103124361Y-50627306D01*
X103127788Y-50635579D01*
X103125609Y-50642379D01*
X102432278Y-51613043D01*
X102424680Y-51617784D01*
X102415957Y-51615764D01*
X102414498Y-51614530D01*
X101999293Y-51200707D01*
X101999265Y-51200679D01*
X101585469Y-50785501D01*
X101582056Y-50777222D01*
X101585497Y-50768955D01*
X101586950Y-50767725D01*
X102557621Y-50074389D01*
X102566343Y-50072370D01*
X102572693Y-50075638D01*
G37*
%TD.AperFunction*%
%TD*%
%TA.AperFunction,Conductor*%
%TO.N,Net-(BT1--)*%
G36*
X141006317Y-78804856D02*
G01*
X142288931Y-79790724D01*
X142293402Y-79798482D01*
X142291077Y-79807130D01*
X142288931Y-79809276D01*
X141006317Y-80795143D01*
X140997669Y-80797468D01*
X140993167Y-80795900D01*
X140005680Y-80203408D01*
X140000349Y-80196213D01*
X140000000Y-80193375D01*
X140000000Y-79406625D01*
X140003427Y-79398352D01*
X140005680Y-79396592D01*
X140993168Y-78804098D01*
X141002025Y-78802781D01*
X141006317Y-78804856D01*
G37*
%TD.AperFunction*%
%TD*%
%TA.AperFunction,Conductor*%
%TO.N,/3.3V*%
G36*
X160943992Y-52425310D02*
G01*
X160950314Y-52431651D01*
X160950488Y-52440125D01*
X160602807Y-53392313D01*
X160596751Y-53398909D01*
X160591817Y-53400000D01*
X160208183Y-53400000D01*
X160199910Y-53396573D01*
X160197193Y-53392313D01*
X159849511Y-52440125D01*
X159849892Y-52431178D01*
X159856006Y-52425310D01*
X160395507Y-52200868D01*
X160404458Y-52200855D01*
X160943992Y-52425310D01*
G37*
%TD.AperFunction*%
%TD*%
%TA.AperFunction,Conductor*%
%TO.N,/3.3V*%
G36*
X160600090Y-67603427D02*
G01*
X160602807Y-67607687D01*
X160950488Y-68559874D01*
X160950107Y-68568821D01*
X160943992Y-68574689D01*
X160404494Y-68799130D01*
X160395539Y-68799144D01*
X160395506Y-68799130D01*
X159856007Y-68574689D01*
X159849685Y-68568348D01*
X159849511Y-68559876D01*
X160197193Y-67607686D01*
X160203249Y-67601091D01*
X160208183Y-67600000D01*
X160591817Y-67600000D01*
X160600090Y-67603427D01*
G37*
%TD.AperFunction*%
%TD*%
M02*
