M48
; DRILL file {KiCad 7.0.10} date Thu Nov 14 13:49:26 2024
; FORMAT={-:-/ absolute / inch / decimal}
; #@! TF.CreationDate,2024-11-14T13:49:26+00:00
; #@! TF.GenerationSoftware,Kicad,Pcbnew,7.0.10
; #@! TF.FileFunction,Plated,1,2,PTH
FMAT,2
INCH
; #@! TA.AperFunction,Plated,PTH,ViaDrill
T1C0.0157
; #@! TA.AperFunction,Plated,PTH,ComponentDrill
T2C0.0394
%
G90
G05
T1
X4.0157Y-2.0157
X4.1339Y-3.1496
X4.1339Y-3.3465
X4.5276Y-1.7717
X4.5276Y-3.1496
X4.5276Y-3.3465
X4.9213Y-1.7717
X4.9213Y-3.1496
X4.9213Y-3.3465
X5.315Y-1.7717
X5.315Y-2.1654
X5.315Y-3.1496
X5.315Y-3.3465
X5.7087Y-1.7717
X5.7087Y-2.1654
X5.7087Y-2.3622
X5.7087Y-2.5591
X5.7087Y-2.7559
X5.7087Y-3.1496
X5.7087Y-3.3465
X6.1024Y-1.7717
X6.1024Y-2.1654
X6.1024Y-2.3622
X6.1024Y-2.5591
X6.1024Y-2.9528
X6.1024Y-3.1496
X6.1024Y-3.3465
X6.315Y-2.0551
X6.315Y-2.7087
X6.4961Y-1.7717
X6.4961Y-1.9685
X6.4961Y-3.1496
X6.4961Y-3.3465
X6.8898Y-1.7717
X6.8898Y-1.9685
X6.8898Y-3.1496
X6.8898Y-3.3465
T2
X4.0157Y-1.6535
X4.0157Y-1.7535
M30
