%TF.GenerationSoftware,KiCad,Pcbnew,7.0.11*%
%TF.CreationDate,2024-11-27T22:18:04+00:00*%
%TF.ProjectId,project_x_pcb,70726f6a-6563-4745-9f78-5f7063622e6b,rev?*%
%TF.SameCoordinates,Original*%
%TF.FileFunction,Copper,L2,Bot*%
%TF.FilePolarity,Positive*%
%FSLAX46Y46*%
G04 Gerber Fmt 4.6, Leading zero omitted, Abs format (unit mm)*
G04 Created by KiCad (PCBNEW 7.0.11) date 2024-11-27 22:18:04*
%MOMM*%
%LPD*%
G01*
G04 APERTURE LIST*
%TA.AperFunction,ComponentPad*%
%ADD10R,1.700000X1.700000*%
%TD*%
%TA.AperFunction,ComponentPad*%
%ADD11O,1.700000X1.700000*%
%TD*%
%TA.AperFunction,ViaPad*%
%ADD12C,1.200000*%
%TD*%
%TA.AperFunction,Conductor*%
%ADD13C,1.500000*%
%TD*%
G04 APERTURE END LIST*
D10*
%TO.P,J1,1,Pin_1*%
%TO.N,VDD*%
X67100000Y-56200000D03*
D11*
%TO.P,J1,2,Pin_2*%
%TO.N,GND*%
X69640000Y-56200000D03*
%TD*%
D12*
%TO.N,GND*%
X90500000Y-80000000D03*
X126500000Y-88000000D03*
X104000000Y-61000000D03*
X126500000Y-54500000D03*
X66500000Y-88000000D03*
%TO.N,/3.3V*%
X72190000Y-59000000D03*
X110000000Y-83000000D03*
%TD*%
D13*
%TO.N,/3.3V*%
X72190000Y-80390000D02*
X72190000Y-59000000D01*
X110000000Y-83000000D02*
X74800000Y-83000000D01*
X74800000Y-83000000D02*
X72190000Y-80390000D01*
%TD*%
%TA.AperFunction,Conductor*%
%TO.N,GND*%
G36*
X126994341Y-52000536D02*
G01*
X126995456Y-52000556D01*
X127004399Y-52000874D01*
X127010126Y-52001181D01*
X127013042Y-52001354D01*
X127083425Y-52005967D01*
X127083894Y-52006000D01*
X127208855Y-52014937D01*
X127217673Y-52015726D01*
X127275445Y-52021936D01*
X127292992Y-52024459D01*
X127317315Y-52028848D01*
X127321402Y-52029623D01*
X127387311Y-52042733D01*
X127391529Y-52043611D01*
X127489262Y-52064872D01*
X127497865Y-52066905D01*
X127547226Y-52079503D01*
X127565662Y-52084977D01*
X127655941Y-52115622D01*
X127662872Y-52118090D01*
X127759652Y-52154188D01*
X127767920Y-52157441D01*
X127803273Y-52172085D01*
X127818106Y-52178805D01*
X127908361Y-52223314D01*
X127917452Y-52228034D01*
X128014644Y-52281106D01*
X128022300Y-52285466D01*
X128043530Y-52298062D01*
X128054766Y-52305142D01*
X128142475Y-52363748D01*
X128142487Y-52363756D01*
X128153360Y-52371450D01*
X128248909Y-52442977D01*
X128255902Y-52448409D01*
X128263044Y-52454165D01*
X128270958Y-52460819D01*
X128354888Y-52534423D01*
X128366782Y-52545562D01*
X128454436Y-52633216D01*
X128465575Y-52645110D01*
X128539172Y-52729032D01*
X128545839Y-52736962D01*
X128551569Y-52744072D01*
X128557028Y-52751098D01*
X128628544Y-52846632D01*
X128636244Y-52857514D01*
X128694852Y-52945226D01*
X128701942Y-52956477D01*
X128714525Y-52977685D01*
X128718905Y-52985377D01*
X128746859Y-53036570D01*
X128771922Y-53082469D01*
X128771928Y-53082479D01*
X128776709Y-53091685D01*
X128821192Y-53181889D01*
X128827916Y-53196730D01*
X128842551Y-53232062D01*
X128845806Y-53240334D01*
X128881906Y-53337123D01*
X128884390Y-53344100D01*
X128915015Y-53434317D01*
X128920495Y-53452773D01*
X128933089Y-53502113D01*
X128935133Y-53510767D01*
X128956370Y-53608391D01*
X128957277Y-53612744D01*
X128970360Y-53678519D01*
X128971188Y-53682884D01*
X128975534Y-53706972D01*
X128978063Y-53724565D01*
X128984269Y-53782287D01*
X128985062Y-53791143D01*
X128993970Y-53915702D01*
X128994071Y-53917179D01*
X128998644Y-53986953D01*
X128998820Y-53989915D01*
X128999125Y-53995607D01*
X128999439Y-54004310D01*
X128999457Y-54005280D01*
X128999500Y-54009900D01*
X128999500Y-87990098D01*
X128999457Y-87994723D01*
X128999439Y-87995692D01*
X128999124Y-88004422D01*
X128998818Y-88010119D01*
X128998643Y-88013046D01*
X128994071Y-88082816D01*
X128993970Y-88084296D01*
X128985062Y-88208856D01*
X128984270Y-88217709D01*
X128978065Y-88275428D01*
X128975533Y-88293034D01*
X128971184Y-88317133D01*
X128970358Y-88321487D01*
X128957277Y-88387253D01*
X128956371Y-88391606D01*
X128935130Y-88489251D01*
X128933084Y-88497909D01*
X128920497Y-88547219D01*
X128915018Y-88565672D01*
X128884386Y-88655910D01*
X128881902Y-88662885D01*
X128845809Y-88759657D01*
X128842551Y-88767938D01*
X128827914Y-88803272D01*
X128821194Y-88818104D01*
X128776714Y-88908303D01*
X128771933Y-88917510D01*
X128718917Y-89014601D01*
X128714514Y-89022331D01*
X128701944Y-89043515D01*
X128694841Y-89054789D01*
X128636238Y-89142494D01*
X128628537Y-89153376D01*
X128557038Y-89248888D01*
X128551588Y-89255904D01*
X128545853Y-89263021D01*
X128539176Y-89270962D01*
X128465574Y-89354889D01*
X128454436Y-89366782D01*
X128366782Y-89454436D01*
X128354889Y-89465574D01*
X128270962Y-89539176D01*
X128263021Y-89545853D01*
X128255904Y-89551588D01*
X128248888Y-89557038D01*
X128153376Y-89628537D01*
X128142494Y-89636238D01*
X128054789Y-89694841D01*
X128043515Y-89701944D01*
X128022331Y-89714514D01*
X128014601Y-89718917D01*
X127917510Y-89771933D01*
X127908303Y-89776714D01*
X127818104Y-89821194D01*
X127803272Y-89827914D01*
X127767938Y-89842551D01*
X127759657Y-89845809D01*
X127662885Y-89881902D01*
X127655910Y-89884386D01*
X127565672Y-89915018D01*
X127547219Y-89920497D01*
X127515017Y-89928716D01*
X127497886Y-89933089D01*
X127489251Y-89935130D01*
X127391606Y-89956371D01*
X127387253Y-89957277D01*
X127321487Y-89970358D01*
X127317133Y-89971184D01*
X127293034Y-89975533D01*
X127275428Y-89978065D01*
X127217709Y-89984270D01*
X127208856Y-89985062D01*
X127084296Y-89993970D01*
X127082816Y-89994071D01*
X127013046Y-89998643D01*
X127010119Y-89998818D01*
X127004422Y-89999124D01*
X126995696Y-89999439D01*
X126995156Y-89999449D01*
X126994690Y-89999457D01*
X126990099Y-89999500D01*
X66009901Y-89999500D01*
X66005294Y-89999457D01*
X66005183Y-89999455D01*
X66004315Y-89999439D01*
X65995607Y-89999125D01*
X65989915Y-89998820D01*
X65986953Y-89998644D01*
X65917179Y-89994071D01*
X65915702Y-89993970D01*
X65791143Y-89985062D01*
X65782287Y-89984269D01*
X65724565Y-89978063D01*
X65706972Y-89975534D01*
X65682884Y-89971188D01*
X65678519Y-89970360D01*
X65612744Y-89957277D01*
X65608391Y-89956370D01*
X65510767Y-89935133D01*
X65502113Y-89933089D01*
X65452773Y-89920495D01*
X65434317Y-89915015D01*
X65344100Y-89884390D01*
X65337123Y-89881906D01*
X65240334Y-89845806D01*
X65232062Y-89842551D01*
X65196730Y-89827916D01*
X65181889Y-89821192D01*
X65131038Y-89796115D01*
X65091674Y-89776703D01*
X65082489Y-89771933D01*
X65036570Y-89746859D01*
X64985377Y-89718905D01*
X64977685Y-89714525D01*
X64956477Y-89701942D01*
X64945226Y-89694852D01*
X64857514Y-89636244D01*
X64846632Y-89628544D01*
X64751098Y-89557028D01*
X64744072Y-89551569D01*
X64736962Y-89545839D01*
X64729032Y-89539172D01*
X64645110Y-89465575D01*
X64633216Y-89454436D01*
X64545562Y-89366782D01*
X64534423Y-89354888D01*
X64460819Y-89270958D01*
X64454165Y-89263044D01*
X64448409Y-89255902D01*
X64442977Y-89248909D01*
X64371450Y-89153360D01*
X64363756Y-89142487D01*
X64344590Y-89113803D01*
X64305142Y-89054766D01*
X64298053Y-89043515D01*
X64285466Y-89022300D01*
X64281106Y-89014644D01*
X64228034Y-88917452D01*
X64223314Y-88908361D01*
X64178804Y-88818104D01*
X64172085Y-88803273D01*
X64165975Y-88788523D01*
X64157438Y-88767914D01*
X64154186Y-88759647D01*
X64118099Y-88662895D01*
X64118095Y-88662885D01*
X64118090Y-88662872D01*
X64115614Y-88655917D01*
X64111711Y-88644419D01*
X64084977Y-88565662D01*
X64079501Y-88547216D01*
X64066909Y-88497881D01*
X64064872Y-88489262D01*
X64043611Y-88391529D01*
X64042728Y-88387286D01*
X64029623Y-88321402D01*
X64028848Y-88317315D01*
X64024459Y-88292992D01*
X64021935Y-88275433D01*
X64021934Y-88275428D01*
X64015726Y-88217673D01*
X64014936Y-88208835D01*
X64006000Y-88083894D01*
X64005967Y-88083425D01*
X64001354Y-88013042D01*
X64001182Y-88010156D01*
X64000873Y-88004392D01*
X64000556Y-87995440D01*
X64000536Y-87994350D01*
X64000500Y-87990098D01*
X64000500Y-80455641D01*
X70435818Y-80455641D01*
X70446317Y-80548817D01*
X70447186Y-80558084D01*
X70454197Y-80651629D01*
X70454200Y-80651645D01*
X70458403Y-80670061D01*
X70463078Y-80697574D01*
X70465193Y-80716345D01*
X70489464Y-80806927D01*
X70491704Y-80815961D01*
X70512577Y-80907409D01*
X70512578Y-80907413D01*
X70519484Y-80925009D01*
X70528207Y-80951520D01*
X70533096Y-80969766D01*
X70533100Y-80969775D01*
X70570618Y-81055768D01*
X70574159Y-81064317D01*
X70608432Y-81151643D01*
X70608438Y-81151653D01*
X70617882Y-81168012D01*
X70630460Y-81192927D01*
X70638017Y-81210248D01*
X70687919Y-81289666D01*
X70692724Y-81297642D01*
X70739608Y-81378848D01*
X70739611Y-81378852D01*
X70739614Y-81378857D01*
X70748678Y-81390223D01*
X70751394Y-81393629D01*
X70767546Y-81416394D01*
X70777600Y-81432395D01*
X70777605Y-81432401D01*
X70838796Y-81503506D01*
X70844716Y-81510650D01*
X70903195Y-81583981D01*
X70903196Y-81583982D01*
X70903198Y-81583984D01*
X70971923Y-81647751D01*
X70978631Y-81654212D01*
X73535775Y-84211355D01*
X73542234Y-84218061D01*
X73606019Y-84286805D01*
X73606023Y-84286808D01*
X73679356Y-84345290D01*
X73686515Y-84351221D01*
X73757603Y-84412397D01*
X73773603Y-84422450D01*
X73796371Y-84438606D01*
X73811143Y-84450386D01*
X73892393Y-84497295D01*
X73900317Y-84502070D01*
X73979753Y-84551983D01*
X73979757Y-84551984D01*
X73979759Y-84551986D01*
X73979762Y-84551987D01*
X73997061Y-84559535D01*
X74021992Y-84572120D01*
X74033530Y-84578781D01*
X74038348Y-84581563D01*
X74038354Y-84581566D01*
X74038361Y-84581570D01*
X74125656Y-84615830D01*
X74134239Y-84619384D01*
X74220225Y-84656900D01*
X74238465Y-84661787D01*
X74265000Y-84670519D01*
X74282576Y-84677417D01*
X74282584Y-84677420D01*
X74282593Y-84677422D01*
X74374029Y-84698292D01*
X74383063Y-84700532D01*
X74473649Y-84724805D01*
X74492426Y-84726920D01*
X74519937Y-84731594D01*
X74538370Y-84735802D01*
X74631939Y-84742813D01*
X74641154Y-84743677D01*
X74734363Y-84754180D01*
X74828064Y-84750673D01*
X74837373Y-84750500D01*
X110065495Y-84750500D01*
X110098183Y-84748050D01*
X110261630Y-84735802D01*
X110500489Y-84681283D01*
X110517412Y-84677421D01*
X110517412Y-84677420D01*
X110517416Y-84677420D01*
X110761643Y-84581568D01*
X110988857Y-84450386D01*
X111193981Y-84286805D01*
X111372433Y-84094479D01*
X111520228Y-83877704D01*
X111634063Y-83641323D01*
X111711396Y-83390615D01*
X111750500Y-83131182D01*
X111750500Y-82868818D01*
X111711396Y-82609385D01*
X111634063Y-82358677D01*
X111520228Y-82122296D01*
X111520227Y-82122294D01*
X111520226Y-82122292D01*
X111372432Y-81905520D01*
X111193991Y-81713205D01*
X111193980Y-81713194D01*
X110988855Y-81549612D01*
X110761651Y-81418436D01*
X110761635Y-81418428D01*
X110517412Y-81322578D01*
X110306016Y-81274329D01*
X110261630Y-81264198D01*
X110261628Y-81264197D01*
X110261625Y-81264197D01*
X110065495Y-81249500D01*
X110065494Y-81249500D01*
X75628220Y-81249500D01*
X75532932Y-81230546D01*
X75452150Y-81176570D01*
X74013430Y-79737849D01*
X73959454Y-79657067D01*
X73940500Y-79561779D01*
X73940500Y-58934505D01*
X73925802Y-58738374D01*
X73925802Y-58738370D01*
X73867420Y-58482584D01*
X73771568Y-58238357D01*
X73663109Y-58050500D01*
X73640387Y-58011144D01*
X73476805Y-57806019D01*
X73476794Y-57806008D01*
X73284479Y-57627567D01*
X73067707Y-57479773D01*
X73067702Y-57479771D01*
X72831331Y-57365940D01*
X72831326Y-57365938D01*
X72831323Y-57365937D01*
X72580615Y-57288604D01*
X72321182Y-57249500D01*
X72058818Y-57249500D01*
X71851271Y-57280783D01*
X71799384Y-57288604D01*
X71654107Y-57333416D01*
X71548677Y-57365937D01*
X71548675Y-57365937D01*
X71548668Y-57365940D01*
X71312297Y-57479771D01*
X71312292Y-57479773D01*
X71095520Y-57627567D01*
X70903205Y-57806008D01*
X70903194Y-57806019D01*
X70739612Y-58011144D01*
X70608436Y-58238348D01*
X70608428Y-58238364D01*
X70512578Y-58482587D01*
X70454198Y-58738370D01*
X70454197Y-58738374D01*
X70439500Y-58934505D01*
X70439500Y-80352607D01*
X70439326Y-80361917D01*
X70435819Y-80455635D01*
X70435818Y-80455641D01*
X64000500Y-80455641D01*
X64000500Y-57108031D01*
X65249500Y-57108031D01*
X65249501Y-57108043D01*
X65260113Y-57227414D01*
X65260113Y-57227417D01*
X65260114Y-57227418D01*
X65277622Y-57288604D01*
X65316090Y-57423045D01*
X65316093Y-57423053D01*
X65345720Y-57479772D01*
X65410302Y-57603407D01*
X65538891Y-57761109D01*
X65696593Y-57889698D01*
X65876951Y-57983909D01*
X66072582Y-58039886D01*
X66191963Y-58050500D01*
X68008036Y-58050499D01*
X68127418Y-58039886D01*
X68323049Y-57983909D01*
X68503407Y-57889698D01*
X68661109Y-57761109D01*
X68789698Y-57603407D01*
X68883909Y-57423049D01*
X68939886Y-57227418D01*
X68950500Y-57108037D01*
X68950499Y-55291964D01*
X68939886Y-55172582D01*
X68883909Y-54976951D01*
X68789698Y-54796593D01*
X68661109Y-54638891D01*
X68503407Y-54510302D01*
X68503402Y-54510299D01*
X68323053Y-54416093D01*
X68323052Y-54416092D01*
X68323049Y-54416091D01*
X68127418Y-54360114D01*
X68008037Y-54349500D01*
X68008035Y-54349500D01*
X66191968Y-54349500D01*
X66191956Y-54349501D01*
X66072585Y-54360113D01*
X65876954Y-54416090D01*
X65876946Y-54416093D01*
X65696597Y-54510299D01*
X65696592Y-54510302D01*
X65538893Y-54638889D01*
X65538889Y-54638893D01*
X65410302Y-54796592D01*
X65410299Y-54796597D01*
X65316093Y-54976946D01*
X65316090Y-54976954D01*
X65260115Y-55172578D01*
X65260114Y-55172582D01*
X65249500Y-55291963D01*
X65249500Y-57108031D01*
X64000500Y-57108031D01*
X64000500Y-54009900D01*
X64000537Y-54005599D01*
X64000543Y-54005280D01*
X64000556Y-54004555D01*
X64000871Y-53995653D01*
X64001189Y-53989709D01*
X64001343Y-53987135D01*
X64005975Y-53916455D01*
X64005995Y-53916174D01*
X64014938Y-53791139D01*
X64015727Y-53782316D01*
X64021934Y-53724576D01*
X64024463Y-53706989D01*
X64025216Y-53702811D01*
X64028835Y-53682752D01*
X64029620Y-53678609D01*
X64042735Y-53612674D01*
X64043618Y-53608439D01*
X64064868Y-53510753D01*
X64066896Y-53502167D01*
X64079506Y-53452763D01*
X64084974Y-53434343D01*
X64115644Y-53343994D01*
X64118081Y-53337153D01*
X64154198Y-53240321D01*
X64157415Y-53232142D01*
X64172104Y-53196680D01*
X64178790Y-53181922D01*
X64223337Y-53091591D01*
X64228020Y-53082574D01*
X64281122Y-52985326D01*
X64285445Y-52977734D01*
X64298079Y-52956440D01*
X64305097Y-52945301D01*
X64363798Y-52857449D01*
X64371418Y-52846682D01*
X64442995Y-52751066D01*
X64448429Y-52744073D01*
X64448430Y-52744072D01*
X64454163Y-52736957D01*
X64460766Y-52729101D01*
X64534465Y-52645063D01*
X64545532Y-52633247D01*
X64633247Y-52545532D01*
X64645063Y-52534465D01*
X64729101Y-52460766D01*
X64736957Y-52454163D01*
X64744075Y-52448427D01*
X64751075Y-52442989D01*
X64751091Y-52442977D01*
X64846682Y-52371418D01*
X64857449Y-52363798D01*
X64945301Y-52305097D01*
X64956440Y-52298079D01*
X64977734Y-52285445D01*
X64985326Y-52281122D01*
X65082574Y-52228020D01*
X65091591Y-52223337D01*
X65181922Y-52178790D01*
X65196680Y-52172104D01*
X65232142Y-52157415D01*
X65240321Y-52154198D01*
X65337153Y-52118081D01*
X65343994Y-52115644D01*
X65434343Y-52084974D01*
X65452763Y-52079506D01*
X65502167Y-52066896D01*
X65510753Y-52064868D01*
X65608439Y-52043618D01*
X65612674Y-52042735D01*
X65678609Y-52029620D01*
X65682752Y-52028835D01*
X65702811Y-52025216D01*
X65706989Y-52024463D01*
X65724562Y-52021935D01*
X65782335Y-52015725D01*
X65791139Y-52014938D01*
X65916174Y-52005995D01*
X65916455Y-52005975D01*
X65987135Y-52001343D01*
X65989709Y-52001189D01*
X65995653Y-52000871D01*
X66004563Y-52000555D01*
X66005646Y-52000536D01*
X66009901Y-52000500D01*
X126990099Y-52000500D01*
X126994341Y-52000536D01*
G37*
%TD.AperFunction*%
%TD*%
M02*
