%TF.GenerationSoftware,KiCad,Pcbnew,7.0.11*%
%TF.CreationDate,2024-11-27T22:18:04+00:00*%
%TF.ProjectId,project_x_pcb,70726f6a-6563-4745-9f78-5f7063622e6b,rev?*%
%TF.SameCoordinates,Original*%
%TF.FileFunction,Copper,L1,Top*%
%TF.FilePolarity,Positive*%
%FSLAX46Y46*%
G04 Gerber Fmt 4.6, Leading zero omitted, Abs format (unit mm)*
G04 Created by KiCad (PCBNEW 7.0.11) date 2024-11-27 22:18:04*
%MOMM*%
%LPD*%
G01*
G04 APERTURE LIST*
G04 Aperture macros list*
%AMRoundRect*
0 Rectangle with rounded corners*
0 $1 Rounding radius*
0 $2 $3 $4 $5 $6 $7 $8 $9 X,Y pos of 4 corners*
0 Add a 4 corners polygon primitive as box body*
4,1,4,$2,$3,$4,$5,$6,$7,$8,$9,$2,$3,0*
0 Add four circle primitives for the rounded corners*
1,1,$1+$1,$2,$3*
1,1,$1+$1,$4,$5*
1,1,$1+$1,$6,$7*
1,1,$1+$1,$8,$9*
0 Add four rect primitives between the rounded corners*
20,1,$1+$1,$2,$3,$4,$5,0*
20,1,$1+$1,$4,$5,$6,$7,0*
20,1,$1+$1,$6,$7,$8,$9,0*
20,1,$1+$1,$8,$9,$2,$3,0*%
G04 Aperture macros list end*
%TA.AperFunction,SMDPad,CuDef*%
%ADD10RoundRect,0.250000X0.325000X0.450000X-0.325000X0.450000X-0.325000X-0.450000X0.325000X-0.450000X0*%
%TD*%
%TA.AperFunction,SMDPad,CuDef*%
%ADD11RoundRect,0.250000X-0.350000X-0.450000X0.350000X-0.450000X0.350000X0.450000X-0.350000X0.450000X0*%
%TD*%
%TA.AperFunction,SMDPad,CuDef*%
%ADD12R,2.200000X1.800000*%
%TD*%
%TA.AperFunction,SMDPad,CuDef*%
%ADD13R,1.800000X2.200000*%
%TD*%
%TA.AperFunction,ComponentPad*%
%ADD14R,1.700000X1.700000*%
%TD*%
%TA.AperFunction,ComponentPad*%
%ADD15O,1.700000X1.700000*%
%TD*%
%TA.AperFunction,ViaPad*%
%ADD16C,1.200000*%
%TD*%
%TA.AperFunction,Conductor*%
%ADD17C,0.600000*%
%TD*%
%TA.AperFunction,Conductor*%
%ADD18C,1.000000*%
%TD*%
%TA.AperFunction,Conductor*%
%ADD19C,1.500000*%
%TD*%
G04 APERTURE END LIST*
D10*
%TO.P,D3,1,K*%
%TO.N,GND*%
X102010000Y-71000000D03*
%TO.P,D3,2,A*%
%TO.N,Net-(D3-A)*%
X99960000Y-71000000D03*
%TD*%
D11*
%TO.P,R2,1*%
%TO.N,LED4*%
X95510000Y-68000000D03*
%TO.P,R2,2*%
%TO.N,Net-(D2-A)*%
X97510000Y-68000000D03*
%TD*%
D12*
%TO.P,U2,1,GND*%
%TO.N,GND*%
X110750000Y-67190000D03*
%TO.P,U2,2,SCL*%
%TO.N,SCL*%
X110750000Y-69730000D03*
%TO.P,U2,3,SDA*%
%TO.N,SDA*%
X110750000Y-72270000D03*
%TO.P,U2,4,VIN*%
%TO.N,/3.3V*%
X110750000Y-74810000D03*
%TO.P,U2,5,GND*%
%TO.N,unconnected-(U2-GND-Pad5)*%
X126250000Y-74810000D03*
%TO.P,U2,6,RD*%
%TO.N,unconnected-(U2-RD-Pad6)*%
X126250000Y-72270000D03*
%TO.P,U2,7,IRD*%
%TO.N,unconnected-(U2-IRD-Pad7)*%
X126250000Y-69730000D03*
%TO.P,U2,8,INT*%
%TO.N,unconnected-(U2-INT-Pad8)*%
X126250000Y-67190000D03*
%TD*%
D11*
%TO.P,R3,1*%
%TO.N,LED3*%
X95510000Y-71000000D03*
%TO.P,R3,2*%
%TO.N,Net-(D3-A)*%
X97510000Y-71000000D03*
%TD*%
%TO.P,R5,1*%
%TO.N,LED1*%
X95510000Y-77000000D03*
%TO.P,R5,2*%
%TO.N,Net-(D5-A)*%
X97510000Y-77000000D03*
%TD*%
D13*
%TO.P,U1,1,A5/MISO*%
%TO.N,unconnected-(U1-A5{slash}MISO-Pad1)*%
X67110000Y-80000000D03*
%TO.P,U1,2,MOSI*%
%TO.N,unconnected-(U1-MOSI-Pad2)*%
X69650000Y-80000000D03*
%TO.P,U1,3,SS*%
%TO.N,unconnected-(U1-SS-Pad3)*%
X72190000Y-80000000D03*
%TO.P,U1,4,SDA*%
%TO.N,SDA*%
X74730000Y-80000000D03*
%TO.P,U1,5,SCL*%
%TO.N,SCL*%
X77270000Y-80000000D03*
%TO.P,U1,6,10*%
%TO.N,unconnected-(U1-10-Pad6)*%
X79810000Y-80000000D03*
%TO.P,U1,7,RX*%
%TO.N,unconnected-(U1-RX-Pad7)*%
X82350000Y-80000000D03*
%TO.P,U1,8,TX*%
%TO.N,unconnected-(U1-TX-Pad8)*%
X84890000Y-80000000D03*
%TO.P,U1,9,A0*%
%TO.N,LED1*%
X84890000Y-62000000D03*
%TO.P,U1,10,A1*%
%TO.N,LED2*%
X82350000Y-62000000D03*
%TO.P,U1,11,A2*%
%TO.N,LED3*%
X79810000Y-62000000D03*
%TO.P,U1,12,A3*%
%TO.N,LED4*%
X77270000Y-62000000D03*
%TO.P,U1,13,A4/SCL*%
%TO.N,LED5*%
X74730000Y-62000000D03*
%TO.P,U1,14,3.3V*%
%TO.N,/3.3V*%
X72190000Y-62000000D03*
%TO.P,U1,15,GND*%
%TO.N,GND*%
X69650000Y-62000000D03*
%TO.P,U1,16,5V*%
%TO.N,VDD*%
X67110000Y-62000000D03*
%TD*%
D11*
%TO.P,R4,1*%
%TO.N,LED2*%
X95510000Y-74000000D03*
%TO.P,R4,2*%
%TO.N,Net-(D4-A)*%
X97510000Y-74000000D03*
%TD*%
D10*
%TO.P,D2,1,K*%
%TO.N,GND*%
X102010000Y-68000000D03*
%TO.P,D2,2,A*%
%TO.N,Net-(D2-A)*%
X99960000Y-68000000D03*
%TD*%
%TO.P,D1,1,K*%
%TO.N,GND*%
X102010000Y-65000000D03*
%TO.P,D1,2,A*%
%TO.N,Net-(D1-A)*%
X99960000Y-65000000D03*
%TD*%
D11*
%TO.P,R1,1*%
%TO.N,LED5*%
X95510000Y-65000000D03*
%TO.P,R1,2*%
%TO.N,Net-(D1-A)*%
X97510000Y-65000000D03*
%TD*%
D10*
%TO.P,D4,1,K*%
%TO.N,GND*%
X102010000Y-74000000D03*
%TO.P,D4,2,A*%
%TO.N,Net-(D4-A)*%
X99960000Y-74000000D03*
%TD*%
%TO.P,D5,1,K*%
%TO.N,GND*%
X102010000Y-77000000D03*
%TO.P,D5,2,A*%
%TO.N,Net-(D5-A)*%
X99960000Y-77000000D03*
%TD*%
D14*
%TO.P,J1,1,Pin_1*%
%TO.N,VDD*%
X67100000Y-56200000D03*
D15*
%TO.P,J1,2,Pin_2*%
%TO.N,GND*%
X69640000Y-56200000D03*
%TD*%
D16*
%TO.N,GND*%
X90500000Y-80000000D03*
X126500000Y-88000000D03*
X104000000Y-61000000D03*
X126500000Y-54500000D03*
X66500000Y-88000000D03*
%TO.N,/3.3V*%
X72190000Y-59000000D03*
X110000000Y-83000000D03*
%TD*%
D17*
%TO.N,GND*%
X69650000Y-62000000D02*
X69650000Y-56210000D01*
X110750000Y-67190000D02*
X104200000Y-67190000D01*
D18*
X102200000Y-65190000D02*
X102010000Y-65000000D01*
D17*
X69650000Y-56210000D02*
X69640000Y-56200000D01*
X102010000Y-77000000D02*
X102010000Y-65000000D01*
X104200000Y-67190000D02*
X102010000Y-65000000D01*
%TO.N,LED1*%
X95510000Y-77000000D02*
X90800000Y-77000000D01*
X84890000Y-60610000D02*
X84890000Y-62000000D01*
X88600000Y-60100000D02*
X85400000Y-60100000D01*
X89100000Y-60600000D02*
X88600000Y-60100000D01*
X85400000Y-60100000D02*
X84890000Y-60610000D01*
X90800000Y-77000000D02*
X89100000Y-75300000D01*
X89100000Y-75300000D02*
X89100000Y-60600000D01*
%TO.N,LED2*%
X89300000Y-59000000D02*
X83300000Y-59000000D01*
X91200000Y-74000000D02*
X90200000Y-73000000D01*
X90200000Y-59900000D02*
X89300000Y-59000000D01*
X90200000Y-73000000D02*
X90200000Y-59900000D01*
X83300000Y-59000000D02*
X82350000Y-59950000D01*
X95510000Y-74000000D02*
X91200000Y-74000000D01*
X82350000Y-59950000D02*
X82350000Y-62000000D01*
%TO.N,LED3*%
X95510000Y-71000000D02*
X92100000Y-71000000D01*
X91300000Y-70200000D02*
X91300000Y-59100000D01*
X92100000Y-71000000D02*
X91300000Y-70200000D01*
X80700000Y-57900000D02*
X79810000Y-58790000D01*
X79810000Y-58790000D02*
X79810000Y-62000000D01*
X90100000Y-57900000D02*
X80700000Y-57900000D01*
X91300000Y-59100000D02*
X90100000Y-57900000D01*
%TO.N,LED4*%
X91000000Y-56800000D02*
X92400000Y-58200000D01*
X77270000Y-57880000D02*
X78350000Y-56800000D01*
X92400000Y-58200000D02*
X92400000Y-67400000D01*
X92400000Y-67400000D02*
X93000000Y-68000000D01*
X77270000Y-62000000D02*
X77270000Y-57880000D01*
X93000000Y-68000000D02*
X95510000Y-68000000D01*
X78350000Y-56800000D02*
X91000000Y-56800000D01*
%TO.N,LED5*%
X74730000Y-62000000D02*
X74730000Y-57770000D01*
X74730000Y-57770000D02*
X76800000Y-55700000D01*
X92000000Y-55700000D02*
X93500000Y-57200000D01*
X94000000Y-65000000D02*
X95510000Y-65000000D01*
X76800000Y-55700000D02*
X92000000Y-55700000D01*
X93500000Y-64500000D02*
X94000000Y-65000000D01*
X93500000Y-57200000D02*
X93500000Y-64500000D01*
D19*
%TO.N,VDD*%
X67100000Y-61990000D02*
X67110000Y-62000000D01*
X67100000Y-56200000D02*
X67100000Y-61990000D01*
D18*
%TO.N,SDA*%
X108929898Y-72270000D02*
X108000000Y-73199898D01*
X75500000Y-86900000D02*
X74730000Y-86130000D01*
X110750000Y-72270000D02*
X108929898Y-72270000D01*
X108000000Y-82000000D02*
X103100000Y-86900000D01*
X74730000Y-86130000D02*
X74730000Y-80000000D01*
X108000000Y-73199898D02*
X108000000Y-82000000D01*
X103100000Y-86900000D02*
X75500000Y-86900000D01*
%TO.N,SCL*%
X101500000Y-85000000D02*
X78110000Y-85000000D01*
X106000000Y-71500000D02*
X106000000Y-80500000D01*
X77270000Y-84160000D02*
X77270000Y-80000000D01*
X110750000Y-69730000D02*
X107770000Y-69730000D01*
X107770000Y-69730000D02*
X106000000Y-71500000D01*
X106000000Y-80500000D02*
X101500000Y-85000000D01*
X78110000Y-85000000D02*
X77270000Y-84160000D01*
%TO.N,/3.3V*%
X110160660Y-75399340D02*
X110000000Y-75399340D01*
X110750000Y-74810000D02*
X110160660Y-75399340D01*
D19*
X72190000Y-59000000D02*
X72190000Y-62000000D01*
X110000000Y-83000000D02*
X110000000Y-75399340D01*
D18*
%TO.N,Net-(D1-A)*%
X97510000Y-65000000D02*
X99960000Y-65000000D01*
%TO.N,Net-(D2-A)*%
X97510000Y-68000000D02*
X99960000Y-68000000D01*
%TO.N,Net-(D3-A)*%
X97510000Y-71000000D02*
X99960000Y-71000000D01*
%TO.N,Net-(D4-A)*%
X97510000Y-74000000D02*
X99960000Y-74000000D01*
%TO.N,Net-(D5-A)*%
X97510000Y-77000000D02*
X99960000Y-77000000D01*
%TD*%
%TA.AperFunction,Conductor*%
%TO.N,SDA*%
G36*
X109655804Y-71444006D02*
G01*
X110738812Y-72260327D01*
X110743356Y-72268043D01*
X110741113Y-72276712D01*
X110739180Y-72278725D01*
X109657548Y-73163823D01*
X109648975Y-73166410D01*
X109642565Y-73163687D01*
X109156601Y-72751063D01*
X109155901Y-72750417D01*
X108460587Y-72055103D01*
X108457160Y-72046830D01*
X108460587Y-72038557D01*
X108463603Y-72036378D01*
X109643507Y-71442896D01*
X109652435Y-71442241D01*
X109655804Y-71444006D01*
G37*
%TD.AperFunction*%
%TD*%
%TA.AperFunction,Conductor*%
%TO.N,LED3*%
G36*
X94971081Y-70406322D02*
G01*
X95205965Y-70664594D01*
X95503840Y-70992128D01*
X95506871Y-71000554D01*
X95503840Y-71007872D01*
X94971083Y-71593675D01*
X94962981Y-71597490D01*
X94957557Y-71596441D01*
X94316830Y-71303126D01*
X94310734Y-71296567D01*
X94310000Y-71292488D01*
X94310000Y-70707511D01*
X94313427Y-70699238D01*
X94316828Y-70696873D01*
X94957558Y-70403557D01*
X94966506Y-70403230D01*
X94971081Y-70406322D01*
G37*
%TD.AperFunction*%
%TD*%
%TA.AperFunction,Conductor*%
%TO.N,Net-(D3-A)*%
G36*
X99426349Y-70428119D02*
G01*
X99427686Y-70429343D01*
X99603430Y-70617392D01*
X99953533Y-70992011D01*
X99956678Y-71000396D01*
X99953533Y-71007989D01*
X99427689Y-71570653D01*
X99419537Y-71574357D01*
X99417722Y-71574278D01*
X98820281Y-71501256D01*
X98812484Y-71496850D01*
X98810000Y-71489642D01*
X98810000Y-70510357D01*
X98813427Y-70502084D01*
X98820279Y-70498743D01*
X99417723Y-70425721D01*
X99426349Y-70428119D01*
G37*
%TD.AperFunction*%
%TD*%
%TA.AperFunction,Conductor*%
%TO.N,LED1*%
G36*
X94971081Y-76406322D02*
G01*
X95205965Y-76664594D01*
X95503840Y-76992128D01*
X95506871Y-77000554D01*
X95503840Y-77007872D01*
X94971083Y-77593675D01*
X94962981Y-77597490D01*
X94957557Y-77596441D01*
X94316830Y-77303126D01*
X94310734Y-77296567D01*
X94310000Y-77292488D01*
X94310000Y-76707511D01*
X94313427Y-76699238D01*
X94316828Y-76696873D01*
X94957558Y-76403557D01*
X94966506Y-76403230D01*
X94971081Y-76406322D01*
G37*
%TD.AperFunction*%
%TD*%
%TA.AperFunction,Conductor*%
%TO.N,Net-(D3-A)*%
G36*
X98060868Y-70400945D02*
G01*
X98700067Y-70498484D01*
X98707726Y-70503119D01*
X98710000Y-70510049D01*
X98710000Y-71489950D01*
X98706573Y-71498223D01*
X98700065Y-71501516D01*
X98060869Y-71599053D01*
X98052174Y-71596913D01*
X98050448Y-71595359D01*
X97516159Y-71007872D01*
X97513128Y-70999446D01*
X97516159Y-70992128D01*
X98050450Y-70404639D01*
X98058550Y-70400825D01*
X98060868Y-70400945D01*
G37*
%TD.AperFunction*%
%TD*%
%TA.AperFunction,Conductor*%
%TO.N,SCL*%
G36*
X77277405Y-80008428D02*
G01*
X77279059Y-80010082D01*
X78165442Y-81094424D01*
X78168024Y-81102998D01*
X78167075Y-81106581D01*
X77773088Y-81993052D01*
X77766596Y-81999220D01*
X77762396Y-82000000D01*
X76777604Y-82000000D01*
X76769331Y-81996573D01*
X76766912Y-81993052D01*
X76372923Y-81106578D01*
X76372696Y-81097629D01*
X76374554Y-81094428D01*
X77260941Y-80010081D01*
X77268831Y-80005846D01*
X77277405Y-80008428D01*
G37*
%TD.AperFunction*%
%TD*%
%TA.AperFunction,Conductor*%
%TO.N,LED5*%
G36*
X75032011Y-60003427D02*
G01*
X75033473Y-60005210D01*
X75625201Y-60892802D01*
X75626939Y-60901587D01*
X75624525Y-60906697D01*
X74739059Y-61989917D01*
X74731169Y-61994153D01*
X74722595Y-61991571D01*
X74720941Y-61989917D01*
X73835474Y-60906697D01*
X73832892Y-60898123D01*
X73834797Y-60892804D01*
X74426527Y-60005210D01*
X74433967Y-60000227D01*
X74436262Y-60000000D01*
X75023738Y-60000000D01*
X75032011Y-60003427D01*
G37*
%TD.AperFunction*%
%TD*%
%TA.AperFunction,Conductor*%
%TO.N,SCL*%
G36*
X109655575Y-68834557D02*
G01*
X110739917Y-69720941D01*
X110744153Y-69728831D01*
X110741571Y-69737405D01*
X110739917Y-69739059D01*
X109655575Y-70625442D01*
X109647001Y-70628024D01*
X109643419Y-70627075D01*
X108756948Y-70233088D01*
X108750780Y-70226596D01*
X108750000Y-70222396D01*
X108750000Y-69237604D01*
X108753427Y-69229331D01*
X108756948Y-69226912D01*
X109643421Y-68832923D01*
X109652370Y-68832696D01*
X109655575Y-68834557D01*
G37*
%TD.AperFunction*%
%TD*%
%TA.AperFunction,Conductor*%
%TO.N,LED1*%
G36*
X85117475Y-59974811D02*
G01*
X85117704Y-59975034D01*
X85532136Y-60389466D01*
X85534312Y-60392475D01*
X85786579Y-60893209D01*
X85787241Y-60902139D01*
X85785185Y-60905883D01*
X84899797Y-61987869D01*
X84891905Y-61992101D01*
X84883332Y-61989514D01*
X84880724Y-61986502D01*
X84229934Y-60907623D01*
X84228595Y-60898769D01*
X84231455Y-60893537D01*
X85100938Y-59975261D01*
X85109112Y-59971611D01*
X85117475Y-59974811D01*
G37*
%TD.AperFunction*%
%TD*%
%TA.AperFunction,Conductor*%
%TO.N,Net-(D1-A)*%
G36*
X99426349Y-64428119D02*
G01*
X99427686Y-64429343D01*
X99603430Y-64617392D01*
X99953533Y-64992011D01*
X99956678Y-65000396D01*
X99953533Y-65007989D01*
X99427689Y-65570653D01*
X99419537Y-65574357D01*
X99417722Y-65574278D01*
X98820281Y-65501256D01*
X98812484Y-65496850D01*
X98810000Y-65489642D01*
X98810000Y-64510357D01*
X98813427Y-64502084D01*
X98820279Y-64498743D01*
X99417723Y-64425721D01*
X99426349Y-64428119D01*
G37*
%TD.AperFunction*%
%TD*%
%TA.AperFunction,Conductor*%
%TO.N,VDD*%
G36*
X67108266Y-56207276D02*
G01*
X67945996Y-57045991D01*
X67949418Y-57054266D01*
X67949338Y-57055626D01*
X67851216Y-57889667D01*
X67846846Y-57897483D01*
X67839596Y-57900000D01*
X66360404Y-57900000D01*
X66352131Y-57896573D01*
X66348784Y-57889667D01*
X66250661Y-57055623D01*
X66253098Y-57047009D01*
X66253992Y-57046002D01*
X67091723Y-56207286D01*
X67099993Y-56203855D01*
X67108266Y-56207276D01*
G37*
%TD.AperFunction*%
%TD*%
%TA.AperFunction,Conductor*%
%TO.N,LED5*%
G36*
X94971081Y-64406322D02*
G01*
X95205965Y-64664594D01*
X95503840Y-64992128D01*
X95506871Y-65000554D01*
X95503840Y-65007872D01*
X94971083Y-65593675D01*
X94962981Y-65597490D01*
X94957557Y-65596441D01*
X94316830Y-65303126D01*
X94310734Y-65296567D01*
X94310000Y-65292488D01*
X94310000Y-64707511D01*
X94313427Y-64699238D01*
X94316828Y-64696873D01*
X94957558Y-64403557D01*
X94966506Y-64403230D01*
X94971081Y-64406322D01*
G37*
%TD.AperFunction*%
%TD*%
%TA.AperFunction,Conductor*%
%TO.N,LED4*%
G36*
X77572011Y-60003427D02*
G01*
X77573473Y-60005210D01*
X78165201Y-60892802D01*
X78166939Y-60901587D01*
X78164525Y-60906697D01*
X77279059Y-61989917D01*
X77271169Y-61994153D01*
X77262595Y-61991571D01*
X77260941Y-61989917D01*
X76375474Y-60906697D01*
X76372892Y-60898123D01*
X76374797Y-60892804D01*
X76966527Y-60005210D01*
X76973967Y-60000227D01*
X76976262Y-60000000D01*
X77563738Y-60000000D01*
X77572011Y-60003427D01*
G37*
%TD.AperFunction*%
%TD*%
%TA.AperFunction,Conductor*%
%TO.N,Net-(D2-A)*%
G36*
X99426349Y-67428119D02*
G01*
X99427686Y-67429343D01*
X99603430Y-67617392D01*
X99953533Y-67992011D01*
X99956678Y-68000396D01*
X99953533Y-68007989D01*
X99427689Y-68570653D01*
X99419537Y-68574357D01*
X99417722Y-68574278D01*
X98820281Y-68501256D01*
X98812484Y-68496850D01*
X98810000Y-68489642D01*
X98810000Y-67510357D01*
X98813427Y-67502084D01*
X98820279Y-67498743D01*
X99417723Y-67425721D01*
X99426349Y-67428119D01*
G37*
%TD.AperFunction*%
%TD*%
%TA.AperFunction,Conductor*%
%TO.N,/3.3V*%
G36*
X72938362Y-60003427D02*
G01*
X72941630Y-60009777D01*
X73089128Y-60894773D01*
X73087108Y-60903497D01*
X73086646Y-60904101D01*
X72199059Y-61989917D01*
X72191169Y-61994153D01*
X72182595Y-61991571D01*
X72180941Y-61989917D01*
X71293353Y-60904101D01*
X71290771Y-60895527D01*
X71290871Y-60894773D01*
X71438370Y-60009777D01*
X71443111Y-60002179D01*
X71449911Y-60000000D01*
X72930089Y-60000000D01*
X72938362Y-60003427D01*
G37*
%TD.AperFunction*%
%TD*%
%TA.AperFunction,Conductor*%
%TO.N,Net-(D2-A)*%
G36*
X98060868Y-67400945D02*
G01*
X98700067Y-67498484D01*
X98707726Y-67503119D01*
X98710000Y-67510049D01*
X98710000Y-68489950D01*
X98706573Y-68498223D01*
X98700065Y-68501516D01*
X98060869Y-68599053D01*
X98052174Y-68596913D01*
X98050448Y-68595359D01*
X97516159Y-68007872D01*
X97513128Y-67999446D01*
X97516159Y-67992128D01*
X98050450Y-67404639D01*
X98058550Y-67400825D01*
X98060868Y-67400945D01*
G37*
%TD.AperFunction*%
%TD*%
%TA.AperFunction,Conductor*%
%TO.N,Net-(D4-A)*%
G36*
X99426349Y-73428119D02*
G01*
X99427686Y-73429343D01*
X99603430Y-73617392D01*
X99953533Y-73992011D01*
X99956678Y-74000396D01*
X99953533Y-74007989D01*
X99427689Y-74570653D01*
X99419537Y-74574357D01*
X99417722Y-74574278D01*
X98820281Y-74501256D01*
X98812484Y-74496850D01*
X98810000Y-74489642D01*
X98810000Y-73510357D01*
X98813427Y-73502084D01*
X98820279Y-73498743D01*
X99417723Y-73425721D01*
X99426349Y-73428119D01*
G37*
%TD.AperFunction*%
%TD*%
%TA.AperFunction,Conductor*%
%TO.N,LED2*%
G36*
X94971081Y-73406322D02*
G01*
X95205965Y-73664594D01*
X95503840Y-73992128D01*
X95506871Y-74000554D01*
X95503840Y-74007872D01*
X94971083Y-74593675D01*
X94962981Y-74597490D01*
X94957557Y-74596441D01*
X94316830Y-74303126D01*
X94310734Y-74296567D01*
X94310000Y-74292488D01*
X94310000Y-73707511D01*
X94313427Y-73699238D01*
X94316828Y-73696873D01*
X94957558Y-73403557D01*
X94966506Y-73403230D01*
X94971081Y-73406322D01*
G37*
%TD.AperFunction*%
%TD*%
%TA.AperFunction,Conductor*%
%TO.N,VDD*%
G36*
X67848411Y-60003427D02*
G01*
X67851669Y-60009720D01*
X68003610Y-60894763D01*
X68001633Y-60903497D01*
X68001160Y-60904121D01*
X67119053Y-61989856D01*
X67111176Y-61994116D01*
X67102594Y-61991559D01*
X67100913Y-61989883D01*
X66213304Y-60904042D01*
X66210722Y-60895468D01*
X66210798Y-60894867D01*
X66348460Y-60009902D01*
X66353118Y-60002254D01*
X66360021Y-60000000D01*
X67840138Y-60000000D01*
X67848411Y-60003427D01*
G37*
%TD.AperFunction*%
%TD*%
%TA.AperFunction,Conductor*%
%TO.N,LED4*%
G36*
X94971081Y-67406322D02*
G01*
X95205965Y-67664594D01*
X95503840Y-67992128D01*
X95506871Y-68000554D01*
X95503840Y-68007872D01*
X94971083Y-68593675D01*
X94962981Y-68597490D01*
X94957557Y-68596441D01*
X94316830Y-68303126D01*
X94310734Y-68296567D01*
X94310000Y-68292488D01*
X94310000Y-67707511D01*
X94313427Y-67699238D01*
X94316828Y-67696873D01*
X94957558Y-67403557D01*
X94966506Y-67403230D01*
X94971081Y-67406322D01*
G37*
%TD.AperFunction*%
%TD*%
%TA.AperFunction,Conductor*%
%TO.N,LED3*%
G36*
X80112011Y-60003427D02*
G01*
X80113473Y-60005210D01*
X80705201Y-60892802D01*
X80706939Y-60901587D01*
X80704525Y-60906697D01*
X79819059Y-61989917D01*
X79811169Y-61994153D01*
X79802595Y-61991571D01*
X79800941Y-61989917D01*
X78915474Y-60906697D01*
X78912892Y-60898123D01*
X78914797Y-60892804D01*
X79506527Y-60005210D01*
X79513967Y-60000227D01*
X79516262Y-60000000D01*
X80103738Y-60000000D01*
X80112011Y-60003427D01*
G37*
%TD.AperFunction*%
%TD*%
%TA.AperFunction,Conductor*%
%TO.N,Net-(D1-A)*%
G36*
X98060868Y-64400945D02*
G01*
X98700067Y-64498484D01*
X98707726Y-64503119D01*
X98710000Y-64510049D01*
X98710000Y-65489950D01*
X98706573Y-65498223D01*
X98700065Y-65501516D01*
X98060869Y-65599053D01*
X98052174Y-65596913D01*
X98050448Y-65595359D01*
X97516159Y-65007872D01*
X97513128Y-64999446D01*
X97516159Y-64992128D01*
X98050450Y-64404639D01*
X98058550Y-64400825D01*
X98060868Y-64400945D01*
G37*
%TD.AperFunction*%
%TD*%
%TA.AperFunction,Conductor*%
%TO.N,LED2*%
G36*
X82652011Y-60003427D02*
G01*
X82653473Y-60005210D01*
X83245201Y-60892802D01*
X83246939Y-60901587D01*
X83244525Y-60906697D01*
X82359059Y-61989917D01*
X82351169Y-61994153D01*
X82342595Y-61991571D01*
X82340941Y-61989917D01*
X81455474Y-60906697D01*
X81452892Y-60898123D01*
X81454797Y-60892804D01*
X82046527Y-60005210D01*
X82053967Y-60000227D01*
X82056262Y-60000000D01*
X82643738Y-60000000D01*
X82652011Y-60003427D01*
G37*
%TD.AperFunction*%
%TD*%
%TA.AperFunction,Conductor*%
%TO.N,SDA*%
G36*
X74737405Y-80008428D02*
G01*
X74739059Y-80010082D01*
X75625442Y-81094424D01*
X75628024Y-81102998D01*
X75627075Y-81106581D01*
X75233088Y-81993052D01*
X75226596Y-81999220D01*
X75222396Y-82000000D01*
X74237604Y-82000000D01*
X74229331Y-81996573D01*
X74226912Y-81993052D01*
X73832923Y-81106578D01*
X73832696Y-81097629D01*
X73834554Y-81094428D01*
X74720941Y-80010081D01*
X74728831Y-80005846D01*
X74737405Y-80008428D01*
G37*
%TD.AperFunction*%
%TD*%
%TA.AperFunction,Conductor*%
%TO.N,Net-(D4-A)*%
G36*
X98060868Y-73400945D02*
G01*
X98700067Y-73498484D01*
X98707726Y-73503119D01*
X98710000Y-73510049D01*
X98710000Y-74489950D01*
X98706573Y-74498223D01*
X98700065Y-74501516D01*
X98060869Y-74599053D01*
X98052174Y-74596913D01*
X98050448Y-74595359D01*
X97516159Y-74007872D01*
X97513128Y-73999446D01*
X97516159Y-73992128D01*
X98050450Y-73404639D01*
X98058550Y-73400825D01*
X98060868Y-73400945D01*
G37*
%TD.AperFunction*%
%TD*%
%TA.AperFunction,Conductor*%
%TO.N,Net-(D5-A)*%
G36*
X99426349Y-76428119D02*
G01*
X99427686Y-76429343D01*
X99603430Y-76617392D01*
X99953533Y-76992011D01*
X99956678Y-77000396D01*
X99953533Y-77007989D01*
X99427689Y-77570653D01*
X99419537Y-77574357D01*
X99417722Y-77574278D01*
X98820281Y-77501256D01*
X98812484Y-77496850D01*
X98810000Y-77489642D01*
X98810000Y-76510357D01*
X98813427Y-76502084D01*
X98820279Y-76498743D01*
X99417723Y-76425721D01*
X99426349Y-76428119D01*
G37*
%TD.AperFunction*%
%TD*%
%TA.AperFunction,Conductor*%
%TO.N,Net-(D5-A)*%
G36*
X98060868Y-76400945D02*
G01*
X98700067Y-76498484D01*
X98707726Y-76503119D01*
X98710000Y-76510049D01*
X98710000Y-77489950D01*
X98706573Y-77498223D01*
X98700065Y-77501516D01*
X98060869Y-77599053D01*
X98052174Y-77596913D01*
X98050448Y-77595359D01*
X97516159Y-77007872D01*
X97513128Y-76999446D01*
X97516159Y-76992128D01*
X98050450Y-76404639D01*
X98058550Y-76400825D01*
X98060868Y-76400945D01*
G37*
%TD.AperFunction*%
%TD*%
%TA.AperFunction,Conductor*%
%TO.N,GND*%
G36*
X126994341Y-52000536D02*
G01*
X126995456Y-52000556D01*
X127004399Y-52000874D01*
X127010126Y-52001181D01*
X127013042Y-52001354D01*
X127083425Y-52005967D01*
X127083894Y-52006000D01*
X127208855Y-52014937D01*
X127217673Y-52015726D01*
X127275445Y-52021936D01*
X127292992Y-52024459D01*
X127317315Y-52028848D01*
X127321402Y-52029623D01*
X127387311Y-52042733D01*
X127391529Y-52043611D01*
X127489262Y-52064872D01*
X127497865Y-52066905D01*
X127547226Y-52079503D01*
X127565662Y-52084977D01*
X127655941Y-52115622D01*
X127662872Y-52118090D01*
X127759652Y-52154188D01*
X127767920Y-52157441D01*
X127803273Y-52172085D01*
X127818106Y-52178805D01*
X127908361Y-52223314D01*
X127917452Y-52228034D01*
X128014644Y-52281106D01*
X128022300Y-52285466D01*
X128043530Y-52298062D01*
X128054766Y-52305142D01*
X128142475Y-52363748D01*
X128142487Y-52363756D01*
X128153360Y-52371450D01*
X128248909Y-52442977D01*
X128255902Y-52448409D01*
X128263044Y-52454165D01*
X128270958Y-52460819D01*
X128354888Y-52534423D01*
X128366782Y-52545562D01*
X128454436Y-52633216D01*
X128465575Y-52645110D01*
X128539172Y-52729032D01*
X128545839Y-52736962D01*
X128551569Y-52744072D01*
X128557028Y-52751098D01*
X128628544Y-52846632D01*
X128636244Y-52857514D01*
X128694852Y-52945226D01*
X128701942Y-52956477D01*
X128714525Y-52977685D01*
X128718905Y-52985377D01*
X128746859Y-53036570D01*
X128771922Y-53082469D01*
X128771928Y-53082479D01*
X128776709Y-53091685D01*
X128821192Y-53181889D01*
X128827916Y-53196730D01*
X128842551Y-53232062D01*
X128845806Y-53240334D01*
X128881906Y-53337123D01*
X128884390Y-53344100D01*
X128915015Y-53434317D01*
X128920495Y-53452773D01*
X128933089Y-53502113D01*
X128935133Y-53510767D01*
X128956370Y-53608391D01*
X128957277Y-53612744D01*
X128970360Y-53678519D01*
X128971188Y-53682884D01*
X128975534Y-53706972D01*
X128978063Y-53724565D01*
X128984269Y-53782287D01*
X128985062Y-53791143D01*
X128993970Y-53915702D01*
X128994071Y-53917179D01*
X128998644Y-53986953D01*
X128998820Y-53989915D01*
X128999125Y-53995607D01*
X128999439Y-54004310D01*
X128999457Y-54005280D01*
X128999500Y-54009900D01*
X128999500Y-87990098D01*
X128999457Y-87994723D01*
X128999439Y-87995692D01*
X128999124Y-88004422D01*
X128998818Y-88010119D01*
X128998643Y-88013046D01*
X128994071Y-88082816D01*
X128993970Y-88084296D01*
X128985062Y-88208856D01*
X128984270Y-88217706D01*
X128982897Y-88230485D01*
X128978065Y-88275428D01*
X128975533Y-88293034D01*
X128971184Y-88317133D01*
X128970358Y-88321487D01*
X128957277Y-88387253D01*
X128956371Y-88391606D01*
X128935130Y-88489251D01*
X128933084Y-88497909D01*
X128920497Y-88547219D01*
X128915018Y-88565672D01*
X128884386Y-88655910D01*
X128881902Y-88662885D01*
X128845809Y-88759657D01*
X128842551Y-88767938D01*
X128827914Y-88803272D01*
X128821194Y-88818104D01*
X128776714Y-88908303D01*
X128771933Y-88917510D01*
X128718917Y-89014601D01*
X128714514Y-89022331D01*
X128701944Y-89043515D01*
X128694841Y-89054789D01*
X128636238Y-89142494D01*
X128628537Y-89153376D01*
X128557038Y-89248888D01*
X128551588Y-89255904D01*
X128545853Y-89263021D01*
X128539176Y-89270962D01*
X128465574Y-89354889D01*
X128454436Y-89366782D01*
X128366782Y-89454436D01*
X128354889Y-89465574D01*
X128270962Y-89539176D01*
X128263021Y-89545853D01*
X128255904Y-89551588D01*
X128248888Y-89557038D01*
X128153376Y-89628537D01*
X128142494Y-89636238D01*
X128054789Y-89694841D01*
X128043515Y-89701944D01*
X128022331Y-89714514D01*
X128014601Y-89718917D01*
X127917510Y-89771933D01*
X127908303Y-89776714D01*
X127818104Y-89821194D01*
X127803272Y-89827914D01*
X127767938Y-89842551D01*
X127759657Y-89845809D01*
X127662885Y-89881902D01*
X127655910Y-89884386D01*
X127565672Y-89915018D01*
X127547219Y-89920497D01*
X127515017Y-89928716D01*
X127497886Y-89933089D01*
X127489251Y-89935130D01*
X127391606Y-89956371D01*
X127387253Y-89957277D01*
X127321487Y-89970358D01*
X127317133Y-89971184D01*
X127293034Y-89975533D01*
X127275428Y-89978065D01*
X127217709Y-89984270D01*
X127208856Y-89985062D01*
X127084296Y-89993970D01*
X127082816Y-89994071D01*
X127013046Y-89998643D01*
X127010119Y-89998818D01*
X127004422Y-89999124D01*
X126995696Y-89999439D01*
X126995156Y-89999449D01*
X126994690Y-89999457D01*
X126990099Y-89999500D01*
X66009901Y-89999500D01*
X66005294Y-89999457D01*
X66005183Y-89999455D01*
X66004315Y-89999439D01*
X65995607Y-89999125D01*
X65989915Y-89998820D01*
X65986953Y-89998644D01*
X65917179Y-89994071D01*
X65915702Y-89993970D01*
X65791143Y-89985062D01*
X65782287Y-89984269D01*
X65724565Y-89978063D01*
X65706972Y-89975534D01*
X65682884Y-89971188D01*
X65678519Y-89970360D01*
X65612744Y-89957277D01*
X65608391Y-89956370D01*
X65510767Y-89935133D01*
X65502113Y-89933089D01*
X65452773Y-89920495D01*
X65434317Y-89915015D01*
X65344100Y-89884390D01*
X65337123Y-89881906D01*
X65240334Y-89845806D01*
X65232062Y-89842551D01*
X65196730Y-89827916D01*
X65181889Y-89821192D01*
X65131038Y-89796115D01*
X65091674Y-89776703D01*
X65082489Y-89771933D01*
X65036570Y-89746859D01*
X64985377Y-89718905D01*
X64977685Y-89714525D01*
X64956477Y-89701942D01*
X64945226Y-89694852D01*
X64857514Y-89636244D01*
X64846632Y-89628544D01*
X64751098Y-89557028D01*
X64744072Y-89551569D01*
X64736962Y-89545839D01*
X64729032Y-89539172D01*
X64645110Y-89465575D01*
X64633216Y-89454436D01*
X64545562Y-89366782D01*
X64534423Y-89354888D01*
X64460819Y-89270958D01*
X64454165Y-89263044D01*
X64448409Y-89255902D01*
X64442977Y-89248909D01*
X64371450Y-89153360D01*
X64363756Y-89142487D01*
X64344590Y-89113803D01*
X64305142Y-89054766D01*
X64298053Y-89043515D01*
X64285466Y-89022300D01*
X64281106Y-89014644D01*
X64228034Y-88917452D01*
X64223314Y-88908361D01*
X64178804Y-88818104D01*
X64172085Y-88803273D01*
X64165975Y-88788523D01*
X64157438Y-88767914D01*
X64154186Y-88759647D01*
X64118099Y-88662895D01*
X64118095Y-88662885D01*
X64118090Y-88662872D01*
X64115614Y-88655917D01*
X64111711Y-88644419D01*
X64084977Y-88565662D01*
X64079501Y-88547216D01*
X64066909Y-88497881D01*
X64064872Y-88489262D01*
X64043611Y-88391529D01*
X64042728Y-88387286D01*
X64029623Y-88321402D01*
X64028848Y-88317315D01*
X64024459Y-88292992D01*
X64021935Y-88275433D01*
X64021934Y-88275428D01*
X64015726Y-88217673D01*
X64014936Y-88208835D01*
X64006000Y-88083894D01*
X64005967Y-88083425D01*
X64001354Y-88013042D01*
X64001182Y-88010156D01*
X64000873Y-88004392D01*
X64000556Y-87995440D01*
X64000536Y-87994350D01*
X64000500Y-87990098D01*
X64000500Y-80000000D01*
X65000000Y-80000000D01*
X65000001Y-80000000D01*
X65009808Y-80009807D01*
X65055789Y-80018954D01*
X65136571Y-80072930D01*
X65190547Y-80153712D01*
X65209501Y-80249000D01*
X65209501Y-81158043D01*
X65220113Y-81277414D01*
X65220113Y-81277417D01*
X65220114Y-81277418D01*
X65276091Y-81473049D01*
X65370302Y-81653407D01*
X65498891Y-81811109D01*
X65656593Y-81939698D01*
X65836951Y-82033909D01*
X66032582Y-82089886D01*
X66151963Y-82100500D01*
X68068036Y-82100499D01*
X68187418Y-82089886D01*
X68311502Y-82054380D01*
X68408326Y-82046390D01*
X68448499Y-82054381D01*
X68572582Y-82089886D01*
X68691963Y-82100500D01*
X70608036Y-82100499D01*
X70727418Y-82089886D01*
X70851502Y-82054380D01*
X70948326Y-82046390D01*
X70988499Y-82054381D01*
X71112582Y-82089886D01*
X71231963Y-82100500D01*
X72980500Y-82100499D01*
X73075788Y-82119453D01*
X73156569Y-82173429D01*
X73210546Y-82254211D01*
X73229500Y-82349499D01*
X73229500Y-86021375D01*
X73227588Y-86052174D01*
X73225643Y-86067779D01*
X73229287Y-86155884D01*
X73229500Y-86166175D01*
X73229500Y-86192071D01*
X73231638Y-86217872D01*
X73232275Y-86228143D01*
X73235918Y-86316230D01*
X73239146Y-86331627D01*
X73243593Y-86362154D01*
X73244890Y-86377814D01*
X73244892Y-86377824D01*
X73266538Y-86463302D01*
X73268857Y-86473326D01*
X73286949Y-86559609D01*
X73286950Y-86559611D01*
X73292663Y-86574253D01*
X73302072Y-86603624D01*
X73305935Y-86618877D01*
X73305936Y-86618879D01*
X73341352Y-86699620D01*
X73345289Y-86709126D01*
X73377344Y-86791274D01*
X73377345Y-86791275D01*
X73385392Y-86804780D01*
X73399510Y-86832207D01*
X73405827Y-86846607D01*
X73405828Y-86846608D01*
X73454038Y-86920401D01*
X73459485Y-86929127D01*
X73504634Y-87004895D01*
X73514796Y-87016893D01*
X73533242Y-87041631D01*
X73541836Y-87054785D01*
X73541838Y-87054787D01*
X73601545Y-87119646D01*
X73608358Y-87127361D01*
X73625098Y-87147126D01*
X73643446Y-87165474D01*
X73650527Y-87172856D01*
X73705166Y-87232209D01*
X73710255Y-87237737D01*
X73710261Y-87237742D01*
X73722659Y-87247392D01*
X73745792Y-87267820D01*
X74362176Y-87884203D01*
X74382601Y-87907332D01*
X74392110Y-87919549D01*
X74392262Y-87919744D01*
X74457181Y-87979506D01*
X74464535Y-87986562D01*
X74482874Y-88004901D01*
X74482879Y-88004905D01*
X74502624Y-88021628D01*
X74510316Y-88028420D01*
X74575215Y-88088164D01*
X74588365Y-88096755D01*
X74588374Y-88096761D01*
X74613112Y-88115207D01*
X74625106Y-88125366D01*
X74634763Y-88131120D01*
X74700853Y-88170501D01*
X74709569Y-88175941D01*
X74783393Y-88224173D01*
X74797785Y-88230486D01*
X74825217Y-88244606D01*
X74838722Y-88252653D01*
X74838723Y-88252653D01*
X74838726Y-88252655D01*
X74920877Y-88284710D01*
X74930343Y-88288631D01*
X75011119Y-88324063D01*
X75026364Y-88327923D01*
X75055741Y-88337334D01*
X75070386Y-88343049D01*
X75156675Y-88361142D01*
X75166673Y-88363455D01*
X75166709Y-88363464D01*
X75252179Y-88385108D01*
X75267847Y-88386405D01*
X75298385Y-88390855D01*
X75313763Y-88394080D01*
X75401855Y-88397723D01*
X75412108Y-88398359D01*
X75437933Y-88400500D01*
X75463832Y-88400500D01*
X75474123Y-88400713D01*
X75562219Y-88404357D01*
X75562219Y-88404356D01*
X75562221Y-88404357D01*
X75574077Y-88402879D01*
X75577825Y-88402412D01*
X75608625Y-88400500D01*
X102991375Y-88400500D01*
X103022175Y-88402412D01*
X103037779Y-88404357D01*
X103125885Y-88400712D01*
X103136176Y-88400500D01*
X103162058Y-88400500D01*
X103162067Y-88400500D01*
X103187866Y-88398361D01*
X103198142Y-88397724D01*
X103286224Y-88394082D01*
X103286227Y-88394081D01*
X103286237Y-88394081D01*
X103301629Y-88390853D01*
X103332150Y-88386406D01*
X103347821Y-88385108D01*
X103433339Y-88363451D01*
X103443292Y-88361148D01*
X103529614Y-88343049D01*
X103544258Y-88337334D01*
X103573638Y-88327922D01*
X103588881Y-88324063D01*
X103669651Y-88288633D01*
X103679091Y-88284723D01*
X103761274Y-88252656D01*
X103774783Y-88244606D01*
X103802219Y-88230483D01*
X103816607Y-88224173D01*
X103890465Y-88175918D01*
X103899095Y-88170531D01*
X103974894Y-88125366D01*
X103986886Y-88115209D01*
X104011620Y-88096764D01*
X104024785Y-88088164D01*
X104066053Y-88050173D01*
X104089648Y-88028453D01*
X104097366Y-88021637D01*
X104101421Y-88018202D01*
X104117126Y-88004902D01*
X104135441Y-87986586D01*
X104142868Y-87979461D01*
X104176155Y-87948817D01*
X104207738Y-87919744D01*
X104217392Y-87907339D01*
X104237809Y-87884217D01*
X108168284Y-83953742D01*
X108249063Y-83899769D01*
X108344351Y-83880815D01*
X108439639Y-83899769D01*
X108520421Y-83953745D01*
X108543608Y-83981729D01*
X108543805Y-83981573D01*
X108713194Y-84193980D01*
X108713205Y-84193991D01*
X108905520Y-84372432D01*
X109122292Y-84520226D01*
X109122294Y-84520227D01*
X109122296Y-84520228D01*
X109261838Y-84587428D01*
X109358668Y-84634059D01*
X109358669Y-84634059D01*
X109358677Y-84634063D01*
X109609385Y-84711396D01*
X109868818Y-84750500D01*
X109868822Y-84750500D01*
X110131178Y-84750500D01*
X110131182Y-84750500D01*
X110390615Y-84711396D01*
X110641323Y-84634063D01*
X110877704Y-84520228D01*
X111094479Y-84372433D01*
X111286805Y-84193981D01*
X111450386Y-83988857D01*
X111581568Y-83761643D01*
X111677420Y-83517416D01*
X111735802Y-83261630D01*
X111750500Y-83065494D01*
X111750500Y-80999000D01*
X111769454Y-80903712D01*
X111823430Y-80822930D01*
X111904212Y-80768954D01*
X111999500Y-80750000D01*
X126249999Y-80750000D01*
X126250000Y-80750000D01*
X126250000Y-76959499D01*
X126268954Y-76864211D01*
X126322930Y-76783429D01*
X126403712Y-76729453D01*
X126499000Y-76710499D01*
X127408032Y-76710499D01*
X127408036Y-76710499D01*
X127527418Y-76699886D01*
X127723049Y-76643909D01*
X127903407Y-76549698D01*
X128061109Y-76421109D01*
X128189698Y-76263407D01*
X128283909Y-76083049D01*
X128339886Y-75887418D01*
X128350500Y-75768037D01*
X128350499Y-73851964D01*
X128339886Y-73732582D01*
X128304380Y-73608498D01*
X128296391Y-73511673D01*
X128304381Y-73471501D01*
X128339886Y-73347418D01*
X128350500Y-73228037D01*
X128350499Y-71311964D01*
X128339886Y-71192582D01*
X128304380Y-71068498D01*
X128296391Y-70971673D01*
X128304381Y-70931501D01*
X128307426Y-70920860D01*
X128339886Y-70807418D01*
X128350500Y-70688037D01*
X128350499Y-68771964D01*
X128339886Y-68652582D01*
X128304380Y-68528498D01*
X128296391Y-68431673D01*
X128304381Y-68391501D01*
X128306128Y-68385396D01*
X128339886Y-68267418D01*
X128350500Y-68148037D01*
X128350499Y-66231964D01*
X128339886Y-66112582D01*
X128283909Y-65916951D01*
X128189698Y-65736593D01*
X128061109Y-65578891D01*
X127903407Y-65450302D01*
X127903402Y-65450299D01*
X127723053Y-65356093D01*
X127723052Y-65356092D01*
X127723049Y-65356091D01*
X127527418Y-65300114D01*
X127408037Y-65289500D01*
X127408036Y-65289500D01*
X126499000Y-65289500D01*
X126403712Y-65270546D01*
X126322930Y-65216570D01*
X126268954Y-65135788D01*
X126250000Y-65040500D01*
X126250000Y-61250001D01*
X126250000Y-61250000D01*
X110750000Y-61250000D01*
X110750000Y-66290000D01*
X111601000Y-66290000D01*
X111696288Y-66308954D01*
X111777070Y-66362930D01*
X111831046Y-66443712D01*
X111850000Y-66539000D01*
X111850000Y-67580500D01*
X111831046Y-67675788D01*
X111777070Y-67756570D01*
X111696288Y-67810546D01*
X111601000Y-67829500D01*
X109662365Y-67829500D01*
X109643473Y-67828782D01*
X109639143Y-67828452D01*
X109626867Y-67827518D01*
X109617921Y-67827746D01*
X109612035Y-67828176D01*
X109612028Y-67828080D01*
X109597475Y-67828959D01*
X109597489Y-67829255D01*
X109591975Y-67829500D01*
X109472582Y-67840113D01*
X109459908Y-67843740D01*
X109440239Y-67847718D01*
X109440310Y-67848036D01*
X109428364Y-67850690D01*
X109383227Y-67865492D01*
X109374142Y-67868280D01*
X109276948Y-67896091D01*
X109276947Y-67896091D01*
X109273250Y-67898023D01*
X109240878Y-67911678D01*
X109240933Y-67911820D01*
X109236455Y-67913544D01*
X109235607Y-67913902D01*
X109235058Y-67914081D01*
X109235051Y-67914084D01*
X108573655Y-68208039D01*
X108478881Y-68229419D01*
X108472526Y-68229500D01*
X107878625Y-68229500D01*
X107847825Y-68227588D01*
X107832216Y-68225642D01*
X107744115Y-68229287D01*
X107733824Y-68229500D01*
X107707926Y-68229500D01*
X107682126Y-68231638D01*
X107671857Y-68232275D01*
X107583770Y-68235918D01*
X107583765Y-68235918D01*
X107583763Y-68235919D01*
X107568365Y-68239147D01*
X107537846Y-68243593D01*
X107522182Y-68244891D01*
X107436707Y-68266536D01*
X107426684Y-68268855D01*
X107340385Y-68286951D01*
X107325735Y-68292667D01*
X107296367Y-68302075D01*
X107281116Y-68305937D01*
X107281114Y-68305938D01*
X107200371Y-68341354D01*
X107190871Y-68345290D01*
X107108723Y-68377345D01*
X107095212Y-68385396D01*
X107067796Y-68399508D01*
X107053397Y-68405824D01*
X107053396Y-68405824D01*
X106979594Y-68454041D01*
X106970871Y-68459486D01*
X106895107Y-68504633D01*
X106895092Y-68504644D01*
X106883099Y-68514801D01*
X106858384Y-68533231D01*
X106845219Y-68541832D01*
X106780352Y-68601546D01*
X106772650Y-68608347D01*
X106752876Y-68625095D01*
X106734540Y-68643431D01*
X106727122Y-68650547D01*
X106662265Y-68710252D01*
X106662252Y-68710266D01*
X106652604Y-68722662D01*
X106632185Y-68745785D01*
X105015785Y-70362185D01*
X104992662Y-70382604D01*
X104980266Y-70392252D01*
X104980252Y-70392265D01*
X104920547Y-70457122D01*
X104913431Y-70464540D01*
X104895095Y-70482876D01*
X104878347Y-70502650D01*
X104871546Y-70510352D01*
X104811832Y-70575219D01*
X104803231Y-70588384D01*
X104784801Y-70613099D01*
X104774644Y-70625092D01*
X104774633Y-70625107D01*
X104729486Y-70700871D01*
X104724041Y-70709594D01*
X104675826Y-70783395D01*
X104669511Y-70797791D01*
X104655393Y-70825217D01*
X104647344Y-70838724D01*
X104615295Y-70920860D01*
X104611358Y-70930366D01*
X104575936Y-71011120D01*
X104575936Y-71011122D01*
X104572075Y-71026367D01*
X104562667Y-71055735D01*
X104556951Y-71070385D01*
X104538855Y-71156684D01*
X104536536Y-71166707D01*
X104514891Y-71252182D01*
X104513593Y-71267846D01*
X104509147Y-71298365D01*
X104505919Y-71313763D01*
X104505918Y-71313770D01*
X104502275Y-71401857D01*
X104501638Y-71412126D01*
X104499500Y-71437926D01*
X104499500Y-71463823D01*
X104499287Y-71474113D01*
X104495642Y-71562218D01*
X104497588Y-71577823D01*
X104499500Y-71608624D01*
X104499500Y-79775332D01*
X104480546Y-79870620D01*
X104426570Y-79951402D01*
X100951402Y-83426570D01*
X100870620Y-83480546D01*
X100775332Y-83499500D01*
X79019500Y-83499500D01*
X78924212Y-83480546D01*
X78843430Y-83426570D01*
X78789454Y-83345788D01*
X78770500Y-83250500D01*
X78770500Y-82349499D01*
X78789454Y-82254211D01*
X78843430Y-82173429D01*
X78924212Y-82119453D01*
X79019495Y-82100499D01*
X80768036Y-82100499D01*
X80887418Y-82089886D01*
X81011502Y-82054380D01*
X81108326Y-82046390D01*
X81148499Y-82054381D01*
X81272582Y-82089886D01*
X81391963Y-82100500D01*
X83308036Y-82100499D01*
X83427418Y-82089886D01*
X83551502Y-82054380D01*
X83648326Y-82046390D01*
X83688499Y-82054381D01*
X83812582Y-82089886D01*
X83931963Y-82100500D01*
X85848036Y-82100499D01*
X85967418Y-82089886D01*
X86163049Y-82033909D01*
X86343407Y-81939698D01*
X86501109Y-81811109D01*
X86629698Y-81653407D01*
X86723909Y-81473049D01*
X86779886Y-81277418D01*
X86790500Y-81158037D01*
X86790499Y-80248998D01*
X86809453Y-80153712D01*
X86863429Y-80072931D01*
X86944211Y-80018954D01*
X87039499Y-80000000D01*
X87499999Y-80000000D01*
X87500000Y-80000000D01*
X87500000Y-76068935D01*
X87518954Y-75973647D01*
X87572930Y-75892865D01*
X87653712Y-75838889D01*
X87749000Y-75819935D01*
X87844288Y-75838889D01*
X87925070Y-75892865D01*
X87964641Y-75944437D01*
X87969430Y-75952733D01*
X87995885Y-75990514D01*
X88007556Y-76008834D01*
X88030618Y-76048778D01*
X88030622Y-76048785D01*
X88060276Y-76084126D01*
X88073496Y-76101355D01*
X88097274Y-76135313D01*
X88099953Y-76139139D01*
X88260861Y-76300047D01*
X88260864Y-76300049D01*
X89799950Y-77839135D01*
X89799953Y-77839139D01*
X89960861Y-78000047D01*
X89960864Y-78000049D01*
X89960865Y-78000050D01*
X89998645Y-78026503D01*
X90015879Y-78039727D01*
X90051214Y-78069377D01*
X90091164Y-78092442D01*
X90109479Y-78104110D01*
X90147253Y-78130560D01*
X90147258Y-78130562D01*
X90147266Y-78130568D01*
X90189072Y-78150062D01*
X90208328Y-78160087D01*
X90248278Y-78183152D01*
X90248285Y-78183156D01*
X90291629Y-78198931D01*
X90311680Y-78207235D01*
X90353504Y-78226739D01*
X90398066Y-78238678D01*
X90418773Y-78245208D01*
X90462114Y-78260983D01*
X90462115Y-78260983D01*
X90462120Y-78260985D01*
X90507542Y-78268993D01*
X90528750Y-78273695D01*
X90573308Y-78285635D01*
X90619264Y-78289655D01*
X90640795Y-78292491D01*
X90670798Y-78297781D01*
X90686221Y-78300501D01*
X90686225Y-78300501D01*
X90924053Y-78300501D01*
X90924077Y-78300500D01*
X94025582Y-78300500D01*
X94120870Y-78319454D01*
X94129217Y-78323092D01*
X94327411Y-78413822D01*
X94389731Y-78442351D01*
X94427885Y-78464074D01*
X94540374Y-78542007D01*
X94745317Y-78635096D01*
X94963588Y-78690096D01*
X94963591Y-78690096D01*
X94963594Y-78690097D01*
X95029685Y-78695298D01*
X95095783Y-78700500D01*
X95924216Y-78700499D01*
X96056412Y-78690096D01*
X96274683Y-78635096D01*
X96407024Y-78574983D01*
X96501620Y-78552834D01*
X96597492Y-78568571D01*
X96612970Y-78574981D01*
X96745317Y-78635096D01*
X96963588Y-78690096D01*
X96963591Y-78690096D01*
X96963594Y-78690097D01*
X97029685Y-78695298D01*
X97095783Y-78700500D01*
X97924216Y-78700499D01*
X98056412Y-78690096D01*
X98274683Y-78635096D01*
X98414163Y-78571740D01*
X98479573Y-78552299D01*
X98711445Y-78516917D01*
X98735783Y-78513204D01*
X98803551Y-78512194D01*
X98965601Y-78532000D01*
X99038368Y-78552452D01*
X99220311Y-78635094D01*
X99220314Y-78635094D01*
X99220317Y-78635096D01*
X99438588Y-78690096D01*
X99438591Y-78690096D01*
X99438594Y-78690097D01*
X99504685Y-78695298D01*
X99570783Y-78700500D01*
X100349216Y-78700499D01*
X100481412Y-78690096D01*
X100699683Y-78635096D01*
X100904626Y-78542007D01*
X101089654Y-78413819D01*
X101248819Y-78254654D01*
X101377007Y-78069626D01*
X101470096Y-77864683D01*
X101525096Y-77646412D01*
X101535500Y-77514217D01*
X101535499Y-76485784D01*
X101525096Y-76353588D01*
X101470096Y-76135317D01*
X101377007Y-75930374D01*
X101377003Y-75930368D01*
X101248822Y-75745350D01*
X101248821Y-75745349D01*
X101248819Y-75745346D01*
X101179539Y-75676066D01*
X101125566Y-75595288D01*
X101106612Y-75500000D01*
X101125566Y-75404712D01*
X101179539Y-75323933D01*
X101248819Y-75254654D01*
X101377007Y-75069626D01*
X101470096Y-74864683D01*
X101525096Y-74646412D01*
X101535500Y-74514217D01*
X101535499Y-73485784D01*
X101525096Y-73353588D01*
X101470096Y-73135317D01*
X101377007Y-72930374D01*
X101248819Y-72745346D01*
X101179539Y-72676066D01*
X101125566Y-72595288D01*
X101106612Y-72500000D01*
X101125566Y-72404712D01*
X101179539Y-72323933D01*
X101248819Y-72254654D01*
X101377007Y-72069626D01*
X101470096Y-71864683D01*
X101525096Y-71646412D01*
X101535500Y-71514217D01*
X101535499Y-70485784D01*
X101525096Y-70353588D01*
X101470096Y-70135317D01*
X101377007Y-69930374D01*
X101248819Y-69745346D01*
X101179539Y-69676066D01*
X101125566Y-69595288D01*
X101106612Y-69500000D01*
X101125566Y-69404712D01*
X101179539Y-69323933D01*
X101248819Y-69254654D01*
X101377007Y-69069626D01*
X101470096Y-68864683D01*
X101525096Y-68646412D01*
X101526774Y-68625098D01*
X101535499Y-68514228D01*
X101535500Y-68514217D01*
X101535499Y-67485784D01*
X101525096Y-67353588D01*
X101470096Y-67135317D01*
X101377007Y-66930374D01*
X101248819Y-66745346D01*
X101179539Y-66676066D01*
X101125566Y-66595288D01*
X101106612Y-66500000D01*
X101125566Y-66404712D01*
X101179539Y-66323933D01*
X101248819Y-66254654D01*
X101377007Y-66069626D01*
X101470096Y-65864683D01*
X101525096Y-65646412D01*
X101535500Y-65514217D01*
X101535499Y-64485784D01*
X101525096Y-64353588D01*
X101470096Y-64135317D01*
X101377007Y-63930374D01*
X101248819Y-63745346D01*
X101089654Y-63586181D01*
X101089650Y-63586178D01*
X101089649Y-63586177D01*
X100904631Y-63457996D01*
X100904629Y-63457995D01*
X100904626Y-63457993D01*
X100767776Y-63395833D01*
X100699686Y-63364905D01*
X100699684Y-63364904D01*
X100699683Y-63364904D01*
X100481412Y-63309904D01*
X100481411Y-63309903D01*
X100481408Y-63309903D01*
X100481405Y-63309902D01*
X100349222Y-63299500D01*
X99570791Y-63299500D01*
X99438587Y-63309904D01*
X99220311Y-63364905D01*
X99038376Y-63447544D01*
X98965610Y-63467996D01*
X98803553Y-63487803D01*
X98735783Y-63486793D01*
X98479569Y-63447696D01*
X98414155Y-63428254D01*
X98274688Y-63364905D01*
X98056408Y-63309903D01*
X98056405Y-63309902D01*
X97924222Y-63299500D01*
X97095791Y-63299500D01*
X96963587Y-63309904D01*
X96745316Y-63364904D01*
X96612975Y-63425016D01*
X96518378Y-63447165D01*
X96422506Y-63431428D01*
X96407025Y-63425016D01*
X96274683Y-63364904D01*
X96056408Y-63309903D01*
X96056405Y-63309902D01*
X95924222Y-63299500D01*
X95095787Y-63299500D01*
X95095784Y-63299501D01*
X95069030Y-63301606D01*
X94972548Y-63290184D01*
X94887782Y-63242710D01*
X94827636Y-63166411D01*
X94801267Y-63072903D01*
X94800500Y-63053373D01*
X94800500Y-57326087D01*
X94800501Y-57326066D01*
X94800501Y-57086225D01*
X94800501Y-57086221D01*
X94792491Y-57040795D01*
X94789655Y-57019264D01*
X94785635Y-56973308D01*
X94773695Y-56928750D01*
X94768992Y-56907534D01*
X94760987Y-56862132D01*
X94760985Y-56862120D01*
X94745208Y-56818773D01*
X94738678Y-56798066D01*
X94726739Y-56753504D01*
X94707235Y-56711680D01*
X94698931Y-56691629D01*
X94683158Y-56648291D01*
X94683156Y-56648286D01*
X94683156Y-56648285D01*
X94660080Y-56608318D01*
X94650063Y-56589074D01*
X94630568Y-56547266D01*
X94604105Y-56509473D01*
X94592437Y-56491157D01*
X94569375Y-56451213D01*
X94569373Y-56451210D01*
X94561264Y-56441547D01*
X94539726Y-56415879D01*
X94526521Y-56398671D01*
X94500047Y-56360861D01*
X94339139Y-56199953D01*
X94339135Y-56199950D01*
X94331871Y-56192686D01*
X94331858Y-56192674D01*
X93000049Y-54860864D01*
X93000047Y-54860861D01*
X92839139Y-54699953D01*
X92839135Y-54699950D01*
X92801355Y-54673496D01*
X92784126Y-54660276D01*
X92748785Y-54630622D01*
X92748778Y-54630618D01*
X92708834Y-54607556D01*
X92690514Y-54595885D01*
X92652737Y-54569434D01*
X92652736Y-54569433D01*
X92652732Y-54569431D01*
X92610926Y-54549936D01*
X92591665Y-54539909D01*
X92551717Y-54516845D01*
X92551714Y-54516843D01*
X92508365Y-54501066D01*
X92488295Y-54492752D01*
X92446494Y-54473260D01*
X92401930Y-54461318D01*
X92381222Y-54454789D01*
X92337881Y-54439015D01*
X92337878Y-54439014D01*
X92292449Y-54431003D01*
X92271252Y-54426304D01*
X92233141Y-54416093D01*
X92226692Y-54414365D01*
X92226690Y-54414364D01*
X92226685Y-54414363D01*
X92180737Y-54410343D01*
X92159210Y-54407509D01*
X92129519Y-54402274D01*
X92113779Y-54399499D01*
X91886221Y-54399499D01*
X91875947Y-54399499D01*
X91875923Y-54399500D01*
X76924077Y-54399500D01*
X76924053Y-54399499D01*
X76913779Y-54399499D01*
X76686221Y-54399499D01*
X76672723Y-54401878D01*
X76640775Y-54407511D01*
X76619252Y-54410344D01*
X76573309Y-54414364D01*
X76528749Y-54426303D01*
X76507556Y-54431002D01*
X76462122Y-54439014D01*
X76418775Y-54454791D01*
X76398065Y-54461320D01*
X76378112Y-54466667D01*
X76353503Y-54473261D01*
X76311689Y-54492759D01*
X76291624Y-54501070D01*
X76248283Y-54516844D01*
X76208319Y-54539917D01*
X76189062Y-54549941D01*
X76147268Y-54569431D01*
X76147263Y-54569433D01*
X76109478Y-54595890D01*
X76091164Y-54607557D01*
X76051219Y-54630619D01*
X76051206Y-54630628D01*
X76015871Y-54660277D01*
X75998645Y-54673495D01*
X75960865Y-54699949D01*
X75960862Y-54699951D01*
X75799952Y-54860860D01*
X75799953Y-54860861D01*
X75799950Y-54860864D01*
X73890864Y-56769950D01*
X73890861Y-56769953D01*
X73890860Y-56769952D01*
X73729951Y-56930862D01*
X73729949Y-56930865D01*
X73703495Y-56968645D01*
X73690277Y-56985871D01*
X73660628Y-57021206D01*
X73660619Y-57021219D01*
X73637557Y-57061164D01*
X73625890Y-57079478D01*
X73599433Y-57117263D01*
X73599431Y-57117268D01*
X73579941Y-57159062D01*
X73569917Y-57178319D01*
X73546844Y-57218283D01*
X73531070Y-57261624D01*
X73522759Y-57281689D01*
X73503260Y-57323505D01*
X73503259Y-57323508D01*
X73491405Y-57367748D01*
X73448434Y-57454883D01*
X73375389Y-57518941D01*
X73283389Y-57550170D01*
X73186442Y-57543815D01*
X73110624Y-57509034D01*
X73067704Y-57479772D01*
X73067702Y-57479771D01*
X72831331Y-57365940D01*
X72831326Y-57365938D01*
X72831323Y-57365937D01*
X72580615Y-57288604D01*
X72321182Y-57249500D01*
X72058818Y-57249500D01*
X71851271Y-57280783D01*
X71799384Y-57288604D01*
X71686238Y-57323505D01*
X71548677Y-57365937D01*
X71548675Y-57365937D01*
X71548668Y-57365940D01*
X71312297Y-57479771D01*
X71312292Y-57479773D01*
X71095520Y-57627567D01*
X70903205Y-57806008D01*
X70903194Y-57806019D01*
X70739612Y-58011144D01*
X70608436Y-58238348D01*
X70608428Y-58238364D01*
X70512578Y-58482587D01*
X70454198Y-58738370D01*
X70454197Y-58738374D01*
X70439500Y-58934505D01*
X70439500Y-59866171D01*
X70436112Y-59907107D01*
X70301325Y-60715822D01*
X70300542Y-60720271D01*
X70299453Y-60726144D01*
X70299071Y-60729339D01*
X70294102Y-60762552D01*
X70293992Y-60763379D01*
X70291667Y-60782288D01*
X70291310Y-60813226D01*
X70290351Y-60832372D01*
X70289500Y-60841956D01*
X70289500Y-60969046D01*
X70289483Y-60971918D01*
X70289239Y-60993066D01*
X70289500Y-60998870D01*
X70289500Y-62000001D01*
X70289501Y-62851000D01*
X70270547Y-62946288D01*
X70216571Y-63027069D01*
X70135789Y-63081046D01*
X70040501Y-63100000D01*
X69259500Y-63100000D01*
X69164212Y-63081046D01*
X69083430Y-63027070D01*
X69029454Y-62946288D01*
X69010500Y-62851000D01*
X69010499Y-60841968D01*
X69010498Y-60841956D01*
X68999886Y-60722582D01*
X68989544Y-60686441D01*
X68983530Y-60660083D01*
X68854090Y-59906102D01*
X68850500Y-59863971D01*
X68850500Y-58016046D01*
X68852205Y-57986953D01*
X68873491Y-57806019D01*
X68947951Y-57173109D01*
X68953103Y-57114671D01*
X68953183Y-57113311D01*
X68954830Y-57067586D01*
X68951465Y-57029495D01*
X68950499Y-57007584D01*
X68950499Y-55291968D01*
X68950498Y-55291956D01*
X68939886Y-55172585D01*
X68939886Y-55172582D01*
X68883909Y-54976951D01*
X68789698Y-54796593D01*
X68661109Y-54638891D01*
X68503407Y-54510302D01*
X68503402Y-54510299D01*
X68323053Y-54416093D01*
X68323052Y-54416092D01*
X68323049Y-54416091D01*
X68127418Y-54360114D01*
X68008037Y-54349500D01*
X68008035Y-54349500D01*
X66191968Y-54349500D01*
X66191956Y-54349501D01*
X66072585Y-54360113D01*
X65876954Y-54416090D01*
X65876946Y-54416093D01*
X65696597Y-54510299D01*
X65696592Y-54510302D01*
X65538893Y-54638889D01*
X65538889Y-54638893D01*
X65410302Y-54796592D01*
X65410299Y-54796597D01*
X65316093Y-54976946D01*
X65316090Y-54976954D01*
X65260115Y-55172578D01*
X65260114Y-55172582D01*
X65249500Y-55291963D01*
X65249500Y-56951425D01*
X65248814Y-56968066D01*
X65249469Y-57009626D01*
X65249500Y-57013547D01*
X65249500Y-57108041D01*
X65250546Y-57119806D01*
X65251492Y-57137903D01*
X65252048Y-57173118D01*
X65347794Y-57986946D01*
X65349500Y-58016040D01*
X65349500Y-59870869D01*
X65346541Y-59909142D01*
X65217243Y-60740333D01*
X65213244Y-60768699D01*
X65213178Y-60769217D01*
X65211619Y-60782226D01*
X65211618Y-60782237D01*
X65211253Y-60813867D01*
X65210294Y-60833014D01*
X65209501Y-60841938D01*
X65209500Y-60841973D01*
X65209500Y-60964734D01*
X65209483Y-60967606D01*
X65209195Y-60992573D01*
X65209500Y-60999355D01*
X65209500Y-61473430D01*
X65209501Y-61751000D01*
X65190547Y-61846288D01*
X65136571Y-61927069D01*
X65055789Y-61981046D01*
X65009808Y-61990192D01*
X65000001Y-62000000D01*
X65000000Y-62000000D01*
X65000000Y-80000000D01*
X64000500Y-80000000D01*
X64000500Y-54009900D01*
X64000537Y-54005599D01*
X64000543Y-54005280D01*
X64000556Y-54004555D01*
X64000871Y-53995653D01*
X64001189Y-53989709D01*
X64001343Y-53987135D01*
X64005975Y-53916455D01*
X64005995Y-53916174D01*
X64014938Y-53791139D01*
X64015727Y-53782316D01*
X64021934Y-53724576D01*
X64024463Y-53706989D01*
X64025216Y-53702811D01*
X64028835Y-53682752D01*
X64029620Y-53678609D01*
X64042735Y-53612674D01*
X64043618Y-53608439D01*
X64064868Y-53510753D01*
X64066896Y-53502167D01*
X64079506Y-53452763D01*
X64084974Y-53434343D01*
X64115644Y-53343994D01*
X64118081Y-53337153D01*
X64154198Y-53240321D01*
X64157415Y-53232142D01*
X64172104Y-53196680D01*
X64178790Y-53181922D01*
X64223337Y-53091591D01*
X64228020Y-53082574D01*
X64281122Y-52985326D01*
X64285445Y-52977734D01*
X64298079Y-52956440D01*
X64305097Y-52945301D01*
X64363798Y-52857449D01*
X64371418Y-52846682D01*
X64442995Y-52751066D01*
X64448429Y-52744073D01*
X64448430Y-52744072D01*
X64454163Y-52736957D01*
X64460766Y-52729101D01*
X64534465Y-52645063D01*
X64545532Y-52633247D01*
X64633247Y-52545532D01*
X64645063Y-52534465D01*
X64729101Y-52460766D01*
X64736957Y-52454163D01*
X64744075Y-52448427D01*
X64751075Y-52442989D01*
X64751091Y-52442977D01*
X64846682Y-52371418D01*
X64857449Y-52363798D01*
X64945301Y-52305097D01*
X64956440Y-52298079D01*
X64977734Y-52285445D01*
X64985326Y-52281122D01*
X65082574Y-52228020D01*
X65091591Y-52223337D01*
X65181922Y-52178790D01*
X65196680Y-52172104D01*
X65232142Y-52157415D01*
X65240321Y-52154198D01*
X65337153Y-52118081D01*
X65343994Y-52115644D01*
X65434343Y-52084974D01*
X65452763Y-52079506D01*
X65502167Y-52066896D01*
X65510753Y-52064868D01*
X65608439Y-52043618D01*
X65612674Y-52042735D01*
X65678609Y-52029620D01*
X65682752Y-52028835D01*
X65702811Y-52025216D01*
X65706989Y-52024463D01*
X65724562Y-52021935D01*
X65782335Y-52015725D01*
X65791139Y-52014938D01*
X65916174Y-52005995D01*
X65916455Y-52005975D01*
X65987135Y-52001343D01*
X65989709Y-52001189D01*
X65995653Y-52000871D01*
X66004563Y-52000555D01*
X66005646Y-52000536D01*
X66009901Y-52000500D01*
X126990099Y-52000500D01*
X126994341Y-52000536D01*
G37*
%TD.AperFunction*%
%TD*%
M02*
